<svg id="_0207_camera" xmlns="http://www.w3.org/2000/svg" viewBox="0 0 500 500" data-imageid="camera-4" imageName="Camera" class="illustrations_image" style="width: 166px;"><defs><style>.cls-1_camera-4{fill:#fff;}.cls-2_camera-4{opacity:.39;}.cls-2_camera-4,.cls-3_camera-4,.cls-4_camera-4,.cls-5_camera-4,.cls-6_camera-4{fill:none;}.cls-3_camera-4{opacity:.46;}.cls-7_camera-4{fill:#e6e6e6;}.cls-4_camera-4{opacity:.03;}.cls-5_camera-4{opacity:.08;}.cls-6_camera-4{opacity:.28;}.cls-8_camera-4{fill:#24285b;}.cls-9_camera-4{fill:#000001;}.cls-10_camera-4{fill:#ffd200;}.cls-11_camera-4{fill:#68e1fd;}</style></defs><g id="bg_camera-4"><g class="cls-4_camera-4"><rect class="cls-9_camera-4" x="58.04" y="48.7" width="77.98" height="192.06"/></g><g class="cls-4_camera-4"><rect class="cls-9_camera-4" x="159.23" y="48.7" width="77.98" height="192.06"/></g><g class="cls-4_camera-4"><rect class="cls-9_camera-4" x="262.8" y="48.7" width="77.98" height="192.06"/></g><g class="cls-4_camera-4"><rect class="cls-9_camera-4" x="363.99" y="48.7" width="77.98" height="192.06"/></g></g><g id="sd_camera-4" class="cls-4_camera-4"><ellipse class="cls-9_camera-4" cx="250" cy="420.6" rx="230.28" ry="26.3"/></g><g id="camera_camera-4"><path class="cls-8_camera-4" d="m380.61,353.59c-6.94,0-14.48-.53-22.68-1.7l2.27-15.82c36.04,5.16,63.28-2.94,76.72-22.84,10.13-14.99,10.58-35.2,1.15-51.47-10.23-17.67-29.5-26.82-52.87-25.11-46.71,3.43-68.57-14.73-86.14-29.33-18.55-15.41-31.95-26.54-69.64-13.42-73.46,25.58-64.79,97.42-64.39,100.46l-15.84,2.16c-.12-.9-2.93-22.28,4.82-47.43,7.22-23.43,25.25-54.65,70.15-70.29,46.21-16.09,65.99.33,85.11,16.22,16.95,14.08,34.47,28.64,74.76,25.68,29.28-2.14,54.65,10.2,67.87,33.04,12.48,21.54,11.79,48.4-1.74,68.43-8.46,12.52-28.1,31.41-69.54,31.41Z"/><polygon class="cls-11_camera-4 targetColor" points="327.67 285.57 308.14 255.81 241.38 255.81 221.22 285.57 163.11 285.57 163.11 416.43 379.48 416.43 379.48 285.57 327.67 285.57" style="fill: rgb(104, 225, 253);"/><g class="cls-5_camera-4"><polygon class="cls-9_camera-4" points="327.67 285.57 308.14 255.81 241.38 255.81 221.22 285.57 163.11 285.57 163.11 416.43 379.48 416.43 379.48 285.57 327.67 285.57"/></g><polygon class="cls-11_camera-4 targetColor" points="296.18 285.57 276.65 255.81 209.88 255.81 189.72 285.57 131.62 285.57 131.62 416.43 347.98 416.43 347.98 285.57 296.18 285.57" style="fill: rgb(104, 225, 253);"/><rect class="cls-10_camera-4" x="323.65" y="275.34" width="37.32" height="10.24"/><g class="cls-5_camera-4"><rect class="cls-9_camera-4" x="323.65" y="275.34" width="37.32" height="10.24"/></g><g class="cls-5_camera-4"><circle class="cls-9_camera-4" cx="232.56" cy="345.57" r="54.96"/></g><rect class="cls-10_camera-4" x="310.66" y="275.34" width="37.32" height="10.24"/><rect class="cls-11_camera-4 targetColor" x="119.18" y="285.57" width="45.98" height="130.86" style="fill: rgb(104, 225, 253);"/><circle class="cls-11_camera-4 targetColor" cx="209.57" cy="345.57" r="54.96" style="fill: rgb(104, 225, 253);"/><g class="cls-3_camera-4"><circle class="cls-1_camera-4" cx="209.57" cy="345.57" r="54.96"/></g><circle class="cls-8_camera-4" cx="209.57" cy="345.57" r="43.7"/><g class="cls-5_camera-4"><circle class="cls-1_camera-4" cx="216.81" cy="338.64" r="22.99"/></g><g class="cls-5_camera-4"><circle class="cls-1_camera-4" cx="225.82" cy="334.11" r="9.02"/></g><rect class="cls-10_camera-4" x="297.91" y="331.4" width="19.37" height="30.23"/><g class="cls-2_camera-4"><rect class="cls-1_camera-4" x="128.06" y="294.31" width="26.55" height="10.75"/></g><path class="cls-10_camera-4" d="m409.52,223.72l-5.53,12.26c-1.45,3.21.03,6.96,3.26,8.37,10.21,4.46,29.88,16.55,31.06,43.87.15,3.39,2.89,6.09,6.28,6.09h13.79c3.44,0,6.27-2.77,6.29-6.21.1-15.26-4.05-54.33-47.51-67.79-3.05-.94-6.33.5-7.65,3.41Z"/><rect class="cls-11_camera-4 targetColor" x="46.17" y="322.3" width="85.45" height="94.13" style="fill: rgb(104, 225, 253);"/><g class="cls-3_camera-4"><rect class="cls-1_camera-4" x="46.17" y="322.3" width="85.45" height="94.13"/></g><rect class="cls-11_camera-4 targetColor" x="58.06" y="335.4" width="61.67" height="67.1" style="fill: rgb(104, 225, 253);"/><polygon class="cls-8_camera-4" points="58.06 402.51 76.77 359.98 91.13 389.27 101.5 365.86 119.73 402.51 58.06 402.51"/><circle class="cls-8_camera-4" cx="88.89" cy="352.49" r="6.92"/><g class="cls-5_camera-4"><rect class="cls-9_camera-4" x="131.62" y="331.4" width="13.15" height="85.03"/></g><rect class="cls-7_camera-4" x="379.48" y="396.87" width="56.96" height="19.56"/><g class="cls-6_camera-4"><rect class="cls-7_camera-4" x="379.48" y="377.32" width="35.97" height="19.56"/></g></g></svg>