<svg id="_0210_creative_process" data-name="0210_creative_process" xmlns="http://www.w3.org/2000/svg" viewBox="0 0 500 500" data-imageid="creative-process-11" imageName="Creative Process" class="illustrations_image" style="width: 166px;"><defs><style>.cls-1_creative-process-11{fill:#fff;}.cls-2_creative-process-11{fill:#231f20;}.cls-3_creative-process-11{fill:#d1d3d4;}.cls-4_creative-process-11{fill:#68e1fd;}</style></defs><g id="Gear_2_creative-process-11" data-name="Gear 2"><path class="cls-1_creative-process-11" d="M48.89,226.75c1.39-5.45,2.74-10.92,4.19-16.36.75-2.83,1.64-5.62,2.55-8.39,1.22-3.72,4.06-6,8-5.84,4.34.13,8.67.71,13,1.05a39.14,39.14,0,0,0,7,.35,7.64,7.64,0,0,0,4.65-1.92c4.56-5.08,8.89-10.36,13.15-15.69,1.6-2,1.64-4.51.92-6.92-1.51-5.1-3.17-10.17-4.65-15.28a21.19,21.19,0,0,1-1-6.11,5.78,5.78,0,0,1,1.7-4.1,94.58,94.58,0,0,1,24.76-13.75,6.42,6.42,0,0,1,7.56,2.05c3.64,4.25,7.43,8.36,10.94,12.71,2.79,3.47,6,5,10.54,4.31,5.65-.87,11.34-1.42,17-2.14a6.45,6.45,0,0,0,4.9-3.5c1.79-3.17,3.46-6.41,5.21-9.6,1.5-2.73,3-5.49,4.59-8.15,1.73-2.85,4.38-4.18,7.64-3.34,8.1,2.1,16.19,4.26,24.22,6.64,3.39,1,4.91,3.95,4.85,7.26-.08,4.4-.72,8.8-1.07,13.2-.17,2.07-.31,4.15-.31,6.23a8.49,8.49,0,0,0,3.2,7c4.46,3.59,9,7.11,13.3,10.86a9.3,9.3,0,0,0,9.44,1.89c5.54-1.67,11-3.49,16.56-5.15,4.37-1.32,7.52-.2,9.8,3.74q5.61,9.69,10.89,19.58c2.56,4.79,2,7.73-2,11.47-2.71,2.52-5.67,4.76-8.46,7.2-2,1.75-4,3.57-5.83,5.46a7.28,7.28,0,0,0-2.17,6.05c.61,5.89,1.17,11.78,1.91,17.65a9.32,9.32,0,0,0,5.35,7.46c3.37,1.67,6.79,3.26,10.14,5a63.15,63.15,0,0,1,6.12,3.44c2.95,1.94,4.26,4.72,3.28,8.24q-3,11-6.26,21.9a15.47,15.47,0,0,1-1.5,3.16c-1.38,2.48-3.43,3.88-6.37,3.64-5.18-.43-10.36-.89-15.53-1.34-.39,0-.78,0-1.17-.09-4.86-.73-8.51,1-11.39,5-2.62,3.64-5.64,7-8.48,10.46a11.1,11.1,0,0,0-2,11.34c1.65,4.86,3.27,9.73,4.68,14.66,1.5,5.21.65,7.59-4,10.31-6.67,3.88-13.46,7.57-20.3,11.15-3.74,2-6.64,1.4-9.53-1.7s-5.81-6.67-8.65-10.06c-6.11-7.28-7.53-7.86-17-6.62-3.68.48-7.34,1-11,1.5a10.24,10.24,0,0,0-8.28,5.76c-2,3.89-3.79,7.84-5.86,11.67a35.11,35.11,0,0,1-3.84,5.62,5.21,5.21,0,0,1-5.73,2c-7.67-2.18-15.35-4.34-23-6.57a15.63,15.63,0,0,1-3-1.42c-2.5-1.37-3.9-3.41-3.67-6.35.4-5.12.87-10.23,1.26-15.35a45.63,45.63,0,0,0,.09-4.68,8.1,8.1,0,0,0-3.1-6.64c-4.37-3.39-8.68-6.85-13-10.3a8.91,8.91,0,0,0-9-1.46c-4.87,1.62-9.78,3.1-14.67,4.64-.19.06-.37.14-.56.19-6.42,1.71-8.61,1-11.91-4.75-3.67-6.42-7.08-13-10.39-19.61-2-4.06-1.49-6.49,2-9.56,3.73-3.33,7.55-6.58,11.53-9.62,4.14-3.16,5.81-7.09,5-12.24s-1.34-10.58-2-15.87a6.68,6.68,0,0,0-3.54-5.3c-4.65-2.48-9.32-4.89-13.95-7.39-3-1.64-6.11-3.28-7.56-6.72ZM220.17,243c-2.22-28.1-26.44-48.55-54.79-46.43-23.27,1.73-48,24.23-45.63,54.47,2.2,27.46,26.56,48.34,54,46.22C206.11,294.73,223.33,265.14,220.17,243Z"/><path class="cls-2_creative-process-11" d="M150.08,368.63a6.33,6.33,0,0,1-1.74-.26L142,366.56q-8.34-2.35-16.66-4.76a13.62,13.62,0,0,1-2.71-1.25l-.42-.23c-2.91-1.6-4.27-4-4-7q.27-3.42.56-6.84c.24-2.84.48-5.67.69-8.5a44.56,44.56,0,0,0,.09-4.61,7.34,7.34,0,0,0-2.83-6.11c-3.88-3-7.79-6.14-11.56-9.16l-1.44-1.15a8.27,8.27,0,0,0-8.32-1.34c-3.4,1.13-6.87,2.21-10.23,3.26l-4.45,1.39-.2.07c-.13,0-.25.09-.39.12-6.82,1.82-9.32.82-12.69-5.07-4.05-7.08-7.69-14.22-10.42-19.65-2.14-4.28-1.57-7.1,2.12-10.38,4.34-3.88,8-6.95,11.56-9.66,4-3,5.5-6.72,4.78-11.59-.49-3.29-.9-6.65-1.29-9.9-.25-2-.49-4-.75-6a6,6,0,0,0-3.18-4.77c-1.92-1-3.84-2-5.77-3.05-2.73-1.44-5.47-2.88-8.18-4.35-3.16-1.71-6.34-3.43-7.87-7.06a.54.54,0,0,1,0-.21l-.16-1.95a.9.9,0,0,1,0-.23l1.22-4.8c1-3.86,2-7.72,3-11.57.78-2.93,1.69-5.78,2.56-8.43,1.36-4.15,4.51-6.47,8.69-6.32,2.89.09,5.8.37,8.62.65,1.47.15,3,.29,4.42.41l1.73.16a27,27,0,0,0,5.14.19,7.14,7.14,0,0,0,4.21-1.69c4.86-5.43,9.36-11,13.12-15.67,1.28-1.61,1.55-3.72.8-6.28-.68-2.27-1.38-4.53-2.08-6.79-.87-2.78-1.76-5.65-2.58-8.5A22.12,22.12,0,0,1,96,151.63a6.47,6.47,0,0,1,2-4.65c8.82-6.55,16.74-10.95,25-13.85a7.14,7.14,0,0,1,8.32,2.26c1.28,1.5,2.58,3,3.89,4.46,2.35,2.68,4.79,5.44,7.06,8.27,2.77,3.43,5.82,4.68,9.89,4,3.66-.56,7.4-1,11-1.42q3-.34,6-.72a5.77,5.77,0,0,0,4.39-3.16c1.05-1.86,2.06-3.75,3.07-5.64.71-1.31,1.41-2.63,2.13-3.94l.75-1.36c1.23-2.26,2.5-4.59,3.86-6.82,2-3.25,4.95-4.54,8.4-3.65,9.75,2.52,17.22,4.56,24.24,6.64,3.42,1,5.43,4,5.36,7.94-.06,3-.36,5.92-.66,8.79-.15,1.49-.3,3-.42,4.46-.16,2-.3,4.07-.31,6.17a7.78,7.78,0,0,0,3,6.47c1,.84,2.08,1.68,3.13,2.51,3.37,2.7,6.86,5.49,10.19,8.37a8.54,8.54,0,0,0,8.78,1.75c2.7-.81,5.39-1.66,8.07-2.51,2.83-.89,5.65-1.79,8.49-2.64,4.72-1.42,8.19-.1,10.6,4.06,3.74,6.44,7.41,13,10.91,19.6,2.67,5,2.09,8.36-2.15,12.31-1.61,1.5-3.33,2.91-5,4.28-1.17,1-2.35,1.93-3.5,2.93-2.09,1.83-4,3.65-5.79,5.43a6.54,6.54,0,0,0-2,5.49l.36,3.58c.47,4.61.95,9.38,1.54,14a8.56,8.56,0,0,0,5,6.92c1.42.71,2.84,1.4,4.27,2.09,2,.95,3.94,1.9,5.88,2.89a62.83,62.83,0,0,1,6.18,3.48c3.36,2.21,4.6,5.32,3.57,9-1.91,6.89-4,14.06-6.26,21.9a14.26,14.26,0,0,1-1.41,3l-.15.27c-1.62,2.9-4,4.25-7,4q-5.5-.45-11-1l-4.91-.41c-.28,0-.54,0-.81-.07-4.51-.68-7.92.84-10.73,4.75-1.84,2.57-3.91,5-5.92,7.4-.86,1-1.73,2.06-2.58,3.09a10.41,10.41,0,0,0-1.85,10.67c1.58,4.66,3.24,9.65,4.69,14.7,1.6,5.56.54,8.25-4.34,11.1-6.1,3.55-12.75,7.21-20.33,11.17-4,2.1-7.21,1.53-10.36-1.85-2.48-2.66-4.85-5.5-7.14-8.24l-1.53-1.84c-6-7.11-7.18-7.59-16.35-6.38q-3.1.4-6.19.84c-1.61.22-3.22.45-4.83.66a9.48,9.48,0,0,0-7.75,5.38c-.65,1.3-1.29,2.61-1.93,3.91-1.26,2.57-2.55,5.22-3.94,7.78a36,36,0,0,1-3.91,5.73A6,6,0,0,1,150.08,368.63Zm-51.52-55a9.37,9.37,0,0,1,6,2.22L106,317c3.77,3,7.67,6.14,11.54,9.15a8.78,8.78,0,0,1,3.38,7.17,47.06,47.06,0,0,1-.1,4.75c-.21,2.84-.45,5.68-.69,8.51q-.28,3.42-.56,6.84c-.2,2.5.88,4.36,3.3,5.69l.43.23a12.3,12.3,0,0,0,2.42,1.13q8.31,2.42,16.65,4.76l6.36,1.81a4.49,4.49,0,0,0,5-1.75,35.11,35.11,0,0,0,3.77-5.5c1.36-2.54,2.66-5.18,3.91-7.73.64-1.31,1.28-2.62,1.94-3.93a10.92,10.92,0,0,1,8.81-6.13l4.81-.66c2.07-.29,4.14-.58,6.21-.85,9.66-1.26,11.31-.62,17.6,6.88l1.53,1.83c2.28,2.73,4.64,5.56,7.09,8.19,2.69,2.88,5.29,3.35,8.7,1.56,7.55-3.95,14.18-7.59,20.27-11.14,4.33-2.52,5.12-4.56,3.7-9.51s-3.09-10-4.67-14.63a11.86,11.86,0,0,1,2.09-12c.85-1,1.72-2.08,2.6-3.11,2-2.35,4-4.79,5.85-7.31,3.11-4.33,7-6.07,12.06-5.32.23,0,.45,0,.68.05l.45,0,4.51.4c3.67.32,7.35.64,11,.94,2.48.2,4.35-.86,5.7-3.28l.15-.27a14,14,0,0,0,1.3-2.75c2.29-7.83,4.33-15,6.25-21.89.86-3.08-.15-5.6-3-7.47a61.77,61.77,0,0,0-6-3.4c-1.94-1-3.9-1.93-5.85-2.88-1.44-.69-2.87-1.38-4.29-2.09a10,10,0,0,1-5.73-8c-.59-4.69-1.08-9.47-1.54-14.09l-.37-3.58a8,8,0,0,1,2.36-6.61c1.78-1.8,3.75-3.65,5.87-5.5,1.15-1,2.34-2,3.53-3,1.64-1.35,3.34-2.75,4.92-4.22,3.81-3.54,4.27-6.13,1.86-10.63-3.49-6.55-7.15-13.13-10.87-19.56-2.1-3.61-4.87-4.67-9-3.43-2.83.86-5.65,1.75-8.47,2.64s-5.38,1.7-8.08,2.52a10,10,0,0,1-10.11-2c-3.3-2.87-6.78-5.65-10.14-8.34L222,167a9.22,9.22,0,0,1-3.46-7.56c0-2.15.15-4.29.31-6.29.12-1.49.27-3,.43-4.48.29-2.84.59-5.79.64-8.67.06-3.35-1.53-5.75-4.35-6.59-7-2.07-14.47-4.11-24.19-6.62-3.6-.93-5.73,1.13-6.87,3-1.34,2.21-2.61,4.52-3.83,6.76l-.75,1.37q-1.06,2-2.12,3.93c-1,1.9-2,3.8-3.09,5.67a7.17,7.17,0,0,1-5.42,3.85c-2,.26-4,.49-6,.72-3.6.42-7.32.86-11,1.42-4.56.7-8.11-.75-11.18-4.56-2.26-2.8-4.68-5.55-7-8.22-1.31-1.49-2.61-3-3.9-4.47a5.69,5.69,0,0,0-6.79-1.86c-8.08,2.86-15.89,7.2-24.58,13.66a5.17,5.17,0,0,0-1.43,3.55,20.45,20.45,0,0,0,1,5.9c.82,2.84,1.71,5.7,2.57,8.47.7,2.27,1.41,4.54,2.08,6.81.88,3,.52,5.59-1,7.55-3.77,4.72-8.28,10.28-13.17,15.73a8.25,8.25,0,0,1-5.1,2.14,26.51,26.51,0,0,1-5.42-.18c-.57-.06-1.13-.12-1.7-.16-1.48-.12-3-.27-4.45-.41-2.79-.28-5.68-.56-8.52-.65-3.51-.14-6.18,1.85-7.33,5.36-.86,2.63-1.76,5.46-2.53,8.35-1,3.85-2,7.71-3,11.57l-1.19,4.68.14,1.7c1.3,3.1,4.12,4.63,7.12,6.25,2.79,1.51,5.52,3,8.25,4.39,1.93,1,3.86,2,5.78,3a7.3,7.3,0,0,1,3.9,5.82c.27,2,.51,4,.75,6,.4,3.23.8,6.58,1.29,9.86.8,5.34-.94,9.56-5.31,12.9-3.52,2.69-7.17,5.73-11.49,9.58-3.22,2.88-3.65,5-1.79,8.73,2.71,5.41,6.35,12.53,10.38,19.58,3.08,5.38,4.85,6.09,11.12,4.41.1,0,.19-.06.29-.09l.24-.08,4.45-1.39c3.36-1,6.83-2.13,10.21-3.25A11.36,11.36,0,0,1,98.56,313.63Zm71.25-15.54a51.12,51.12,0,0,1-50.76-47,50.54,50.54,0,0,1,12.2-37.13c8.91-10.4,21.65-17.16,34.07-18.09,28.91-2.17,53.28,18.52,55.54,47.06,1.7,12-2.37,25.46-10.88,36.08a50.9,50.9,0,0,1-36.22,18.94C172.44,298,171.12,298.09,169.81,298.09Zm-.37-101c-1.33,0-2.66,0-4,.15-12.07.9-24.45,7.48-33.12,17.61A49.13,49.13,0,0,0,120.44,251a49.83,49.83,0,0,0,88.45,27.16c8.29-10.33,12.24-23.43,10.59-35v0C217.39,216.6,195.77,197.09,169.44,197.09Z"/><path class="cls-1_creative-process-11" d="M342.36,420c-3.11-.4-4.23-2.47-4.67-5.3a47.4,47.4,0,0,0-1.58-7.39,5.64,5.64,0,0,0-2.46-3.07,90.57,90.57,0,0,0-9.67-4,3.68,3.68,0,0,0-2.74.35c-2.34,1.33-4.56,2.89-6.84,4.34-3.74,2.37-5.39,2.33-8.53-.76-2.61-2.58-4.94-5.45-7.45-8.13a3,3,0,0,1-.34-4.07c1.27-2.05,2.46-4.17,3.91-6.09a8.76,8.76,0,0,0,1-9.76c-4.08-9-2.73-7.88-12-9.63-5.51-1-6.25-1.6-6.48-7.17-.13-3.38,0-6.78.17-10.17.11-2.34,1.07-3.47,3.34-4,2.45-.58,4.95-1,7.44-1.41a7.32,7.32,0,0,0,5.86-4.53c.87-2,1.74-4,2.56-6a6.53,6.53,0,0,0-.62-6.25c-1.67-2.68-3.22-5.43-4.86-8.12a3,3,0,0,1,.46-4.09c3.36-3.3,6.74-6.58,10.26-9.7a3.23,3.23,0,0,1,2.83-.24,32.15,32.15,0,0,1,4.58,2.7c1.26.8,2.47,1.69,3.72,2.49a6.5,6.5,0,0,0,6,.68c2.79-1,5.52-2.23,8.24-3.45a5.34,5.34,0,0,0,3.06-4.29c.55-2.93,1.31-5.81,2-8.72a2.64,2.64,0,0,1,2.71-2.21c4.64-.09,9.29-.11,13.93-.15,2,0,3,1.17,3.42,3,.6,2.69,1.28,5.36,1.73,8.08a6.08,6.08,0,0,0,3.93,5.16c2.83,1.13,5.57,2.45,8.43,3.48a3.64,3.64,0,0,0,2.72-.27c2.74-1.56,5.34-3.37,8-5,3.23-1.91,3.74-1.92,6.52.59a100.16,100.16,0,0,1,7.43,7.43c2.2,2.45,2.25,4.21.52,7.06-1.57,2.6-3.25,5.14-4.92,7.69a3.44,3.44,0,0,0-.35,3.43c1.34,3.1,2.55,6.27,4.06,9.29a4.79,4.79,0,0,0,2.68,2.1c2.35.71,4.81,1.07,7.23,1.55,4.34.86,5.7,2.35,5.84,6.74.09,3.1.07,6.21,0,9.31-.11,3.42-1.24,4.68-4.63,5.4-2.31.49-4.63.89-6.95,1.3a6.59,6.59,0,0,0-5.26,4c-1.23,2.89-2.46,5.81-3.47,8.78a4,4,0,0,0,.39,2.89c1.47,2.59,3.24,5,4.75,7.6,1.81,3.1,1.79,3.87-.64,6.56a103.15,103.15,0,0,1-7.55,7.53c-2.58,2.31-3.33,2.31-6.28.56-2.22-1.31-4.4-2.73-6.5-4.22a6.36,6.36,0,0,0-6.79-.7c-2,.93-4.1,1.8-6.13,2.74a7,7,0,0,0-4.06,5.42c-.26,1.47-.47,3-.74,4.42-.57,3.18-1.13,6.38-5.47,6.25Zm7.26-38.3a20.17,20.17,0,0,0,11.65-2.43c13.65-7.94,17.69-23.62,11.11-35.92a26.48,26.48,0,0,0-42.74-6.09c-6.43,6.7-7.74,14.75-6.73,23.49a15.61,15.61,0,0,0,1.42,5.27C329.46,376,337,382.33,349.62,381.65Z"/><path class="cls-2_creative-process-11" d="M354.33,420.65H342.27c-4-.52-4.91-3.61-5.27-5.89a46.28,46.28,0,0,0-1.56-7.29,5,5,0,0,0-2.1-2.66,94.31,94.31,0,0,0-9.6-4,3.08,3.08,0,0,0-2.16.31c-1.56.89-3.1,1.9-4.59,2.88-.74.48-1.47,1-2.22,1.43-4.07,2.59-6.09,2.41-9.39-.84-1.59-1.58-3.1-3.28-4.56-4.92-1-1.09-1.92-2.17-2.91-3.23a3.7,3.7,0,0,1-.42-4.92l.92-1.5a54.77,54.77,0,0,1,3-4.63,8.08,8.08,0,0,0,.95-9.06c-.38-.84-.72-1.58-1-2.26-2.46-5.53-2.46-5.53-8.16-6.55l-2.29-.42c-5.67-1.07-6.8-1.81-7-7.83-.14-3.43,0-6.93.16-10.23a4.43,4.43,0,0,1,3.88-4.66c2.18-.52,4.43-.9,6.6-1.27l.89-.15a6.61,6.61,0,0,0,5.33-4.12l.34-.76c.75-1.74,1.5-3.48,2.21-5.24a5.85,5.85,0,0,0-.56-5.62c-1-1.53-1.87-3.09-2.79-4.64-.69-1.17-1.37-2.33-2.08-3.49a3.73,3.73,0,0,1,.57-4.95c3.06-3,6.64-6.48,10.29-9.72a3.91,3.91,0,0,1,3.56-.37,23.65,23.65,0,0,1,3.7,2.12l1,.64c.64.41,1.27.84,1.89,1.27s1.21.83,1.83,1.22A5.81,5.81,0,0,0,326,310c2.63-1,5.18-2.08,8.21-3.43a4.7,4.7,0,0,0,2.66-3.79c.39-2.07.89-4.14,1.37-6.15.2-.86.41-1.73.61-2.6a3.32,3.32,0,0,1,3.38-2.74c3.47-.08,6.94-.1,10.41-.13l3.53,0c1.47-.06,3.44.59,4.1,3.53.15.68.31,1.36.47,2.05.45,2,.93,4,1.27,6.06a5.42,5.42,0,0,0,3.5,4.64c1.16.46,2.31.95,3.45,1.45,1.62.69,3.29,1.41,4.95,2a3,3,0,0,0,2.14-.22c1.51-.86,3-1.81,4.45-2.73,1.19-.77,2.38-1.53,3.6-2.25,3.54-2.09,4.36-2,7.34.67a103.62,103.62,0,0,1,7.48,7.49c2.37,2.64,2.53,4.7.6,7.88-1.39,2.3-2.89,4.58-4.33,6.79l-.6.92a2.71,2.71,0,0,0-.3,2.77c.4.93.79,1.86,1.18,2.8.89,2.14,1.82,4.36,2.87,6.46a4.07,4.07,0,0,0,2.25,1.74,50.49,50.49,0,0,0,5.32,1.19l1.85.35c4.7.92,6.25,2.72,6.39,7.4.09,3,.08,6.12,0,9.36-.13,3.73-1.44,5.26-5.19,6-2.05.44-4.14.81-6.17,1.17l-.79.14a5.84,5.84,0,0,0-4.75,3.56c-1.31,3.09-2.48,5.87-3.45,8.74a3.28,3.28,0,0,0,.34,2.31c.76,1.35,1.63,2.69,2.47,4s1.55,2.38,2.27,3.61c2,3.41,1.88,4.51-.72,7.38a102.81,102.81,0,0,1-7.61,7.59c-2.77,2.48-3.83,2.58-7.1.64-2.21-1.31-4.41-2.74-6.54-4.25a5.65,5.65,0,0,0-6.1-.64L367.91,403c-1.09.47-2.17.95-3.25,1.45A6.24,6.24,0,0,0,361,409.4c-.14.73-.25,1.47-.37,2.2s-.24,1.48-.37,2.22C359.71,416.88,359,420.65,354.33,420.65Zm-11.92-1.39h11.68c3.57.13,4.15-2.09,4.8-5.66q.19-1.12.36-2.22c.12-.74.24-1.48.37-2.22a7.65,7.65,0,0,1,4.46-5.94c1.08-.5,2.17-1,3.27-1.46l2.86-1.27a7,7,0,0,1,7.48.76c2.1,1.49,4.27,2.9,6.45,4.19,2.74,1.62,3.15,1.59,5.46-.48a100,100,0,0,0,7.51-7.48c2.19-2.43,2.23-2.86.54-5.74-.7-1.21-1.48-2.4-2.23-3.56-.85-1.31-1.73-2.66-2.51-4.05a4.64,4.64,0,0,1-.45-3.45c1-2.91,2.17-5.72,3.49-8.84a7.23,7.23,0,0,1,5.78-4.38l.8-.15c2-.35,4.09-.72,6.12-1.15,3.1-.65,4-1.67,4.09-4.74s.12-6.33,0-9.27c-.12-4-1.21-5.27-5.27-6.08l-1.83-.34a50.06,50.06,0,0,1-5.47-1.22,5.38,5.38,0,0,1-3.1-2.46c-1.07-2.14-2-4.38-2.91-6.55-.39-.92-.77-1.85-1.17-2.78a4.12,4.12,0,0,1,.41-4.08l.6-.92c1.44-2.2,2.93-4.47,4.31-6.75,1.61-2.66,1.51-4.05-.45-6.23a100.61,100.61,0,0,0-7.37-7.38c-2.53-2.28-2.69-2.29-5.7-.51-1.2.72-2.38,1.47-3.56,2.22-1.46.93-3,1.9-4.51,2.77a4.38,4.38,0,0,1-3.3.32c-1.71-.62-3.4-1.35-5-2.05-1.13-.49-2.27-1-3.42-1.44a6.74,6.74,0,0,1-4.36-5.7c-.33-2-.8-4-1.25-6-.16-.69-.32-1.37-.47-2.06-.38-1.69-1.21-2.44-2.69-2.44h0l-3.53,0c-3.46,0-6.93.05-10.39.12a2,2,0,0,0-2,1.67c-.2.87-.41,1.74-.62,2.6-.48,2-1,4.06-1.35,6.09a6,6,0,0,1-3.46,4.8c-3.05,1.36-5.63,2.48-8.29,3.47a7.17,7.17,0,0,1-6.57-.75c-.63-.4-1.25-.82-1.86-1.25s-1.23-.84-1.86-1.24c-.34-.21-.67-.43-1-.65a21.7,21.7,0,0,0-3.48-2,2.68,2.68,0,0,0-2.1.12c-3.62,3.22-7.18,6.68-10.23,9.68a2.34,2.34,0,0,0-.36,3.22c.71,1.17,1.4,2.34,2.09,3.51.91,1.54,1.83,3.09,2.77,4.61a7.28,7.28,0,0,1,.68,6.88c-.72,1.77-1.48,3.52-2.23,5.27l-.34.77a8,8,0,0,1-6.38,4.93l-.89.16c-2.15.36-4.37.74-6.51,1.25-2,.46-2.71,1.35-2.8,3.37-.17,3.4-.31,6.73-.17,10.1.21,5.27.78,5.55,5.91,6.52l2.28.41c6.3,1.14,6.47,1.27,9.19,7.37.29.67.63,1.41,1,2.24a9.46,9.46,0,0,1-1.1,10.47,51.51,51.51,0,0,0-2.95,4.52c-.31.51-.61,1-.93,1.52a2.34,2.34,0,0,0,.25,3.23c1,1.06,2,2.16,2.95,3.25,1.44,1.63,2.93,3.31,4.49,4.85,2.84,2.8,4.13,2.91,7.67.67l2.19-1.43c1.51-1,3.07-2,4.68-2.92a4.4,4.4,0,0,1,3.31-.41,92.53,92.53,0,0,1,9.75,4,6.28,6.28,0,0,1,2.81,3.47,47.92,47.92,0,0,1,1.61,7.5C338.85,417.57,340,418.93,342.41,419.26Zm9-36.85c-.57,0-1.15,0-1.75-.06-11.73.61-20-4.49-25.91-16.06a15.85,15.85,0,0,1-1.49-5.52c-1.18-10.25,1-17.89,6.92-24a27,27,0,0,1,23.33-8.23A27.38,27.38,0,0,1,373,343c7,13.13,2.15,29-11.37,36.85A19.89,19.89,0,0,1,351.37,382.41ZM349.62,381h.05a19.29,19.29,0,0,0,11.25-2.34c12.85-7.48,17.52-22.52,10.84-35a26,26,0,0,0-19.48-13.75,25.6,25.6,0,0,0-22.14,7.82c-5.59,5.83-7.67,13.11-6.54,22.92a14.7,14.7,0,0,0,1.35,5c5.66,11,13.49,15.91,24.63,15.31Z"/></g><g id="Gear_1_creative-process-11" data-name="Gear 1"><path class="cls-3_creative-process-11" d="M227.37,396.46a5.57,5.57,0,0,1,.42-1.06,12.68,12.68,0,0,1,1.32-1.68c2.3-2.4,2.79-5,1.13-7.92a7.45,7.45,0,0,0-2.65-2.23,29.62,29.62,0,0,0-3.24-1.46,1.52,1.52,0,0,1-1-1.71c.3-2.08.56-4.16,1-6.22a1.84,1.84,0,0,1,1.18-1.09,12.64,12.64,0,0,1,2.83-.28,5.72,5.72,0,0,0,4.9-2.82c1.54-2.25,2-4.16.47-6.74-1.82-3.11-1.53-3.41,1.36-5.67,1-.81,2.14-1.52,3.18-2.3a1.21,1.21,0,0,1,1.71.08c1.11,1,2.26,1.88,3.38,2.83a3.5,3.5,0,0,0,3.11.82c.77-.16,1.54-.37,2.32-.53a4.78,4.78,0,0,0,3.86-3.72c1.31-4.64,2.17-3.94,5.47-3.39,1.13.19,2.25.49,3.38.71a1.6,1.6,0,0,1,1.48,1.56c.13,1.51.37,3,.46,4.5a2.25,2.25,0,0,0,1.16,2c4.74,3,4.27,3,9.06.75,1.74-.82,2.3-.71,3.53.73s2.07,2.72,3.09,4.08a1.64,1.64,0,0,1-.05,2.26c-1.13,1.37-2.28,2.75-3.34,4.18a2.13,2.13,0,0,0-.35,1.44c.25,1.29.64,2.54,1,3.8A3.52,3.52,0,0,0,280,380a17.07,17.07,0,0,1,3.49,1.47,2.28,2.28,0,0,1,1,1.7c-.09,1.93-.36,3.87-.64,5.79a2,2,0,0,1-2.16,1.81,7.56,7.56,0,0,1-.83,0c-3.54-.27-5.72,1.56-7.21,4.58a4,4,0,0,0-.2,3.54c.46,1.05.91,2.11,1.38,3.16a2.06,2.06,0,0,1-.66,2.82q-2.2,1.62-4.37,3.29a1.65,1.65,0,0,1-2.35-.14c-1-.87-2-1.69-3-2.58a3.16,3.16,0,0,0-2.95-.89,26.72,26.72,0,0,0-3.79,1,3.4,3.4,0,0,0-1.58,1.49,16,16,0,0,0-1.12,3.13,2.62,2.62,0,0,1-2.88,2.25c-1.93-.21-3.83-.63-5.75-.95a1.64,1.64,0,0,1-1.41-1.66c-.09-.91-.13-1.82-.2-2.74a10,10,0,0,0-.17-1.65c-.72-2.83-5.67-5.09-8.27-3.81-1,.49-1.95,1.08-3,1.49A1.64,1.64,0,0,1,232,403a15.21,15.21,0,0,1-4.46-5.94A3.77,3.77,0,0,1,227.37,396.46Zm26.92-2.14a12.5,12.5,0,0,0,12.36-12.4A12.71,12.71,0,0,0,254,369.08,12.88,12.88,0,0,0,241.43,382,12.53,12.53,0,0,0,254.29,394.32Z"/><path class="cls-3_creative-process-11" d="M252.52,413.15l-.41,0c-1.37-.15-2.74-.41-4.07-.65l-1.71-.31a2.32,2.32,0,0,1-2-2.29c-.05-.54-.09-1.09-.12-1.63l-.11-1.57a5.94,5.94,0,0,0-.12-1.08,6.32,6.32,0,0,0-7.28-3.35c-.35.17-.69.35-1,.54a20.56,20.56,0,0,1-2,1,2.32,2.32,0,0,1-2.11-.19,16,16,0,0,1-4.67-6.2,2.63,2.63,0,0,1-.15-.52l-.05-.22a.67.67,0,0,1,0-.42l.09-.28a3.62,3.62,0,0,1,.4-.92,13.86,13.86,0,0,1,1.39-1.77c2.17-2.26,2.5-4.51,1-7.09a6.71,6.71,0,0,0-2.36-1.95,14,14,0,0,0-2.11-1l-1.1-.46a2.22,2.22,0,0,1-1.41-2.45l.16-1.12c.23-1.69.47-3.43.81-5.14a2.53,2.53,0,0,1,1.69-1.63,13.6,13.6,0,0,1,3-.3,5,5,0,0,0,4.34-2.52c1.57-2.29,1.69-3.86.44-6-2-3.42-1.6-4.13,1.54-6.57.6-.47,1.21-.91,1.83-1.34.46-.32.92-.64,1.37-1a1.88,1.88,0,0,1,2.57.11c.62.53,1.24,1.05,1.87,1.56l1.51,1.26a2.81,2.81,0,0,0,2.52.67c.4-.08.79-.17,1.19-.27s.75-.18,1.12-.25a4.1,4.1,0,0,0,3.34-3.23c1.25-4.42,2.33-4.62,5.36-4.05l.89.16c.67.11,1.33.26,2,.41.47.1.94.21,1.41.3a2.29,2.29,0,0,1,2.05,2.19c.05.63.13,1.26.2,1.89.1.87.2,1.75.26,2.63a1.56,1.56,0,0,0,.83,1.46l.81.51c3.43,2.17,3.43,2.18,7.1.43l.48-.23c2-1,2.93-.78,4.36.91.79.93,1.52,1.93,2.22,2.89l.9,1.22a2.32,2.32,0,0,1-.07,3.12l-.16.2c-1.06,1.29-2.16,2.61-3.16,4a1.38,1.38,0,0,0-.22.89c.18.93.45,1.88.7,2.8l.27.95a2.86,2.86,0,0,0,2.09,2.1,17.87,17.87,0,0,1,3.63,1.53,3,3,0,0,1,1.33,2.33c-.09,1.91-.35,3.78-.65,5.86a2.67,2.67,0,0,1-2.83,2.41l-.28,0a4.28,4.28,0,0,1-.62,0c-3-.23-5,1.11-6.53,4.19a3.24,3.24,0,0,0-.18,2.95l.38.9c.33.75.65,1.51,1,2.25a2.75,2.75,0,0,1-.88,3.68q-2.21,1.6-4.37,3.27a2.32,2.32,0,0,1-3.23-.17l-1.22-1.05c-.6-.5-1.19-1-1.76-1.54a2.45,2.45,0,0,0-2.32-.71l-.61.13a19.57,19.57,0,0,0-3.07.84,2.66,2.66,0,0,0-1.22,1.16,14.75,14.75,0,0,0-1.06,3A3.36,3.36,0,0,1,252.52,413.15Zm-14.36-12.6a8.15,8.15,0,0,1,3.36.8,6.56,6.56,0,0,1,3.82,3.91,7,7,0,0,1,.16,1.34l.11,1.56c0,.53.06,1.06.11,1.6.07.74.39.95.84,1l1.73.31c1.31.24,2.65.49,4,.63A2,2,0,0,0,254.4,410a16.2,16.2,0,0,1,1.17-3.26,4.1,4.1,0,0,1,1.94-1.82,21.52,21.52,0,0,1,3.3-.9l.59-.13a3.85,3.85,0,0,1,3.58,1.05c.56.52,1.13,1,1.71,1.5.42.36.84.71,1.25,1.08a1,1,0,0,0,1.45.1c1.45-1.11,2.91-2.22,4.39-3.3a1.37,1.37,0,0,0,.43-2c-.34-.76-.66-1.52-1-2.28l-.39-.89a4.68,4.68,0,0,1,.22-4.13c1.78-3.61,4.38-5.22,7.88-5a2.64,2.64,0,0,0,.4,0l.37,0a1.3,1.3,0,0,0,1.47-1.21,56.22,56.22,0,0,0,.64-5.72,1.7,1.7,0,0,0-.64-1.07,16.7,16.7,0,0,0-3.35-1.4,4.2,4.2,0,0,1-3-3.06l-.26-.94c-.27-.95-.55-1.92-.74-2.91a2.75,2.75,0,0,1,.48-2c1-1.38,2.13-2.72,3.2-4l.16-.2a1,1,0,0,0,0-1.39c-.31-.41-.61-.82-.91-1.24-.69-.94-1.4-1.91-2.16-2.8-1-1.2-1.23-1.25-2.69-.55l-.48.22c-4.24,2-4.48,2-8.45-.5l-.8-.51a3,3,0,0,1-1.49-2.56c-.05-.86-.15-1.71-.25-2.56q-.12-1-.21-1.92c-.05-.58-.28-.82-.92-.94l-1.45-.32c-.64-.14-1.27-.28-1.91-.39l-.92-.17c-2.43-.44-2.75-.51-3.75,3.06a5.49,5.49,0,0,1-4.4,4.22l-1.09.24c-.41.1-.82.2-1.23.28a4.14,4.14,0,0,1-3.7-1l-1.5-1.25c-.64-.52-1.27-1-1.89-1.58-.36-.31-.52-.29-.83-.05s-.92.67-1.39,1-1.2.84-1.78,1.29c-2.73,2.13-2.73,2.13-1.19,4.77,1.88,3.21.87,5.49-.49,7.48a6.39,6.39,0,0,1-5.47,3.13,11.8,11.8,0,0,0-2.67.26,1.36,1.36,0,0,0-.67.55c-.33,1.66-.57,3.38-.8,5.05L224,380.5a.82.82,0,0,0,.59,1c.35.16.7.3,1.06.44A15.08,15.08,0,0,1,228,383a7.72,7.72,0,0,1,2.88,2.47c1.77,3.12,1.36,6.06-1.23,8.76a11.65,11.65,0,0,0-1.23,1.58,2.17,2.17,0,0,0-.24.57c0,.05,0,.09,0,.14v.05a1.76,1.76,0,0,0,.07.27,14.54,14.54,0,0,0,4.26,5.66,1.16,1.16,0,0,0,.71,0,18.7,18.7,0,0,0,1.86-.91l1.07-.56A4.78,4.78,0,0,1,238.16,400.55ZM254.33,395h0a13.32,13.32,0,0,1-.38-26.64H254a13.47,13.47,0,0,1,13.32,13.55A13.15,13.15,0,0,1,254.33,395Zm-.42-25.24a11.92,11.92,0,1,0,.38,23.84h0A11.74,11.74,0,0,0,266,381.92,12.06,12.06,0,0,0,254,369.78Z"/></g><g id="Lamp_creative-process-11"><path class="cls-1_creative-process-11" d="M397,152.13c-1.72-.37-3.43-.81-5.17-1.1a4.82,4.82,0,0,1-4.47-5c-.12-4.34-1.59-8.18-3.48-12a23.35,23.35,0,0,1-1.49-17.71c3.82-12.15,15.39-17.51,27.87-13.53,18.4,5.87,19.54,26.48,6.79,37.87-3.44,3.08-6.75,6.08-8.84,10.29-1.16,2.33-3.24,3.05-5.8,2.4C400.6,152.86,398.78,152.53,397,152.13Z"/><path class="cls-2_creative-process-11" d="M404.1,154.25a7.49,7.49,0,0,1-1.88-.25c-1.23-.31-2.46-.57-3.7-.82l-1.69-.36h0c-.53-.11-1.06-.24-1.58-.36-1.16-.26-2.37-.54-3.55-.74a5.52,5.52,0,0,1-5.06-5.68,28.34,28.34,0,0,0-3.41-11.74,24.13,24.13,0,0,1-1.52-18.22,21.26,21.26,0,0,1,10.47-13c5.29-2.74,11.78-3.11,18.27-1,8.11,2.59,13.69,8.37,15.28,15.87,1.75,8.2-1.4,17.09-8.23,23.19-3.25,2.9-6.61,5.9-8.68,10.08A5.05,5.05,0,0,1,404.1,154.25Zm-7-2.8,1.69.35c1.25.26,2.51.53,3.75.84,2.35.6,4-.08,5-2,2.2-4.42,5.66-7.51,9-10.5,6.46-5.77,9.45-14.15,7.81-21.86-1.52-7.09-6.61-12.36-14.35-14.83-6.14-2-12.24-1.62-17.2,1A20,20,0,0,0,383,116.5a22.49,22.49,0,0,0,1.45,17.19A29.64,29.64,0,0,1,388,146a4.14,4.14,0,0,0,3.89,4.34c1.23.2,2.45.49,3.63.76l1.56.35Z"/><rect class="cls-1_creative-process-11" x="386.96" y="152.09" width="18.82" height="5.35" rx="2.3" transform="translate(41.62 -80.21) rotate(12.19)"/><path class="cls-2_creative-process-11" d="M403.24,159.63a3.55,3.55,0,0,1-.64-.06h0l-13.89-3a3,3,0,0,1-2.3-3.57l.15-.72a3,3,0,0,1,3.57-2.3l13.9,3a3,3,0,0,1,2.3,3.57l-.15.72A3,3,0,0,1,403.24,159.63Zm-.34-1.43a1.63,1.63,0,0,0,1.91-1.23l.15-.73a1.59,1.59,0,0,0-1.23-1.9l-13.89-3a1.61,1.61,0,0,0-1.91,1.23l-.15.73a1.59,1.59,0,0,0,1.22,1.9Z"/><rect class="cls-1_creative-process-11" x="385.83" y="157.32" width="18.82" height="5.35" rx="2.3" transform="translate(42.7 -79.85) rotate(12.19)"/><path class="cls-2_creative-process-11" d="M402.11,164.86a2.85,2.85,0,0,1-.64-.07l-13.89-3a3,3,0,0,1-2.3-3.57l.15-.72a3,3,0,0,1,3.57-2.31l13.9,3a3,3,0,0,1,2.3,3.57l-.15.72A3,3,0,0,1,402.11,164.86Zm-13.74-8.33a1.6,1.6,0,0,0-1.57,1.26l-.15.72a1.53,1.53,0,0,0,.22,1.21,1.59,1.59,0,0,0,1,.7l13.89,3h0a1.6,1.6,0,0,0,1.91-1.23l.15-.72a1.57,1.57,0,0,0-.22-1.21,1.54,1.54,0,0,0-1-.69l-13.89-3A2,2,0,0,0,388.37,156.53Z"/><path class="cls-1_creative-process-11" d="M401.81,164.15c-.43,2-4,2.88-7.91,2s-6.79-3.13-6.36-5.11Z"/><path class="cls-2_creative-process-11" d="M396.78,167.19a14.15,14.15,0,0,1-3-.33c-4.39-1-7.42-3.56-6.9-5.94a.65.65,0,0,1,.3-.44.7.7,0,0,1,.53-.1L402,163.46a.71.71,0,0,1,.53.84C402.1,166.11,399.79,167.19,396.78,167.19Zm-8.49-5.25c.45,1.3,2.59,2.86,5.76,3.55s5.77.14,6.72-.85Z"/><path class="cls-2_creative-process-11" d="M401.93,151h-.05a.69.69,0,0,1-.65-.74,57.9,57.9,0,0,1,2.24-13.09,17.49,17.49,0,0,1-5.42-.75,67.94,67.94,0,0,1-2.9,12.08l-.16.5a.7.7,0,0,1-.87.47.71.71,0,0,1-.47-.88l.16-.5A66.18,66.18,0,0,0,396.7,136a16.59,16.59,0,0,1-6.46-4.51A9,9,0,0,1,388,127.2a5.1,5.1,0,0,1,1.45-4.78,4.6,4.6,0,0,1,3.78-1,4.55,4.55,0,0,1,3.24,2.13c1,1.85,1.64,4.67,1.79,8.38a27.77,27.77,0,0,1-.05,3,15.88,15.88,0,0,0,5.73.76c0-.08.05-.16.08-.23l.14-.42c1.13-3.32,2.54-7.45,5.58-9.62.52-.36,2.32-1.52,3.87-1a2.47,2.47,0,0,1,1.57,1.76,7.24,7.24,0,0,1-1.39,6.46,11.48,11.48,0,0,1-5.42,3.61,16.35,16.35,0,0,1-3.38.75,55.72,55.72,0,0,0-2.34,13.28A.71.71,0,0,1,401.93,151Zm10.81-25.24a4.3,4.3,0,0,0-2.21.88c-2.67,1.9-4,5.79-5.06,8.92v0a16.12,16.12,0,0,0,2.44-.61,10.17,10.17,0,0,0,4.77-3.14,5.9,5.9,0,0,0,1.16-5.19c-.21-.68-.57-.8-.69-.84A1.25,1.25,0,0,0,412.74,125.77Zm-20.41-3a3,3,0,0,0-2,.67,3.77,3.77,0,0,0-1,3.48,7.71,7.71,0,0,0,1.94,3.59,15.1,15.1,0,0,0,5.52,4c0-.82.05-1.64,0-2.47-.14-3.48-.68-6.09-1.61-7.75a3.17,3.17,0,0,0-2.25-1.43A3.63,3.63,0,0,0,392.33,122.8Z"/></g><g id="Light_creative-process-11"><path class="cls-3_creative-process-11" d="M357.29,150a.7.7,0,0,1-.14-1.38l16-3.39a.71.71,0,0,1,.83.54.7.7,0,0,1-.54.83l-16,3.39Z"/><path class="cls-3_creative-process-11" d="M380.69,99.31a.69.69,0,0,1-.47-.18l-10-9.11a.7.7,0,0,1-.05-1,.71.71,0,0,1,1,0l10,9.11a.7.7,0,0,1,0,1A.71.71,0,0,1,380.69,99.31Z"/><path class="cls-3_creative-process-11" d="M436.66,114.2a.7.7,0,0,1-.19-1.37l14.45-4a.7.7,0,0,1,.37,1.36l-14.45,3.94Z"/><path class="cls-3_creative-process-11" d="M431.27,173a.66.66,0,0,1-.52-.23l-8.68-9.68a.71.71,0,0,1,.06-1,.7.7,0,0,1,1,.06l8.67,9.68a.7.7,0,0,1-.06,1A.67.67,0,0,1,431.27,173Z"/><path class="cls-3_creative-process-11" d="M410.11,93.05H410a.7.7,0,0,1-.58-.81l1.84-11.29a.7.7,0,0,1,1.38.22l-1.84,11.3A.7.7,0,0,1,410.11,93.05Z"/><path class="cls-3_creative-process-11" d="M366.75,123.8l-.14,0-13.93-2.89a.7.7,0,0,1-.54-.83.69.69,0,0,1,.83-.54l13.93,2.89a.7.7,0,0,1-.15,1.39Z"/><path class="cls-3_creative-process-11" d="M450.19,141.71l-.16,0-12.61-3a.71.71,0,0,1-.53-.84.7.7,0,0,1,.85-.52l12.61,3a.7.7,0,0,1,.52.84A.7.7,0,0,1,450.19,141.71Z"/></g><g id="Character_creative-process-11"><path class="cls-1_creative-process-11" d="M355.64,287.25l19.46,17.28s27.57-26.9,25.63-30S379,283.64,379,283.64l-12-13"/><path class="cls-2_creative-process-11" d="M375.1,305.23a.71.71,0,0,1-.47-.18l-19.46-17.28a.69.69,0,0,1-.05-1,.69.69,0,0,1,1-.06l19,16.85c12.87-12.59,25.66-26.67,25.06-28.75a.53.53,0,0,0-.26-.12c-2.76-.65-13.75,5.34-20.46,9.52a.7.7,0,0,1-.88-.11l-12-13a.7.7,0,0,1,0-1,.71.71,0,0,1,1,0l11.61,12.57c3.19-2,17.11-10.32,21-9.4a1.76,1.76,0,0,1,1.14.77c2,3.26-17.34,22.7-25.75,30.91A.69.69,0,0,1,375.1,305.23Z"/><path class="cls-2_creative-process-11" d="M327.88,229.44s31.25,30.29,45.44,43.17L354.8,290.54S305.21,248.76,289,242.06Z"/><path class="cls-2_creative-process-11" d="M354.8,291.24a.7.7,0,0,1-.45-.17c-.5-.41-49.69-41.79-65.61-48.37a.7.7,0,0,1-.43-.67.71.71,0,0,1,.48-.64l38.87-12.61a.7.7,0,0,1,.7.16c.31.3,31.41,30.43,45.43,43.15a.7.7,0,0,1,.23.51.71.71,0,0,1-.21.51L355.28,291A.69.69,0,0,1,354.8,291.24Zm-63.86-49.08c16.75,8.12,58.56,43,63.82,47.44l17.54-17c-13.51-12.31-41.4-39.28-44.61-42.39Z"/><path class="cls-2_creative-process-11" d="M237.72,201.52c.4,1.12-2.3,40,16.19,45.39s52.93,0,52.93,0l-6.44,32.88,22.48,3.39s22-55.11,16.54-59.65c-9.67-8.05-66.55-26.83-66.55-26.83Z"/><path class="cls-2_creative-process-11" d="M322.88,283.88h-.1l-22.49-3.39a.7.7,0,0,1-.46-.29.71.71,0,0,1-.12-.53L306,247.74c-5.77.82-35.56,4.7-52.24-.17-11-3.22-16.64-18-16.64-43.93,0-.91,0-1.77,0-1.95a.62.62,0,0,1,.07-.56.68.68,0,0,1,.51-.3L272.77,196a.87.87,0,0,1,.32,0c2.32.77,57.11,18.92,66.78,27,5.68,4.73-14.07,54.76-16.34,60.45A.7.7,0,0,1,322.88,283.88Zm-21.66-4.67,21.22,3.2c8.42-21.17,20.2-55.3,16.54-58.34-9.22-7.67-62.89-25.57-66.18-26.66l-34.34,4.72c0,.33,0,.81,0,1.51,0,25.24,5.26,39.57,15.64,42.6,18.14,5.29,52.28,0,52.62,0a.7.7,0,0,1,.61.2.71.71,0,0,1,.18.62Z"/><path class="cls-1_creative-process-11" d="M288.17,141.77l36.47,12.77,1.65-27.6s-3.2-5.44-3.41-6.85,3.41-3.13,3.41-3.13.23-10.11,1.36-11.49,3.1-1.77,3.3,0S331,117,331,117s6.3.68,7.09,1.79,1.19,7.56,0,9.07,10.25,45.65,5.92,46.63-63.74-9.65-63.74-9.65"/><path class="cls-2_creative-process-11" d="M343.15,175.15c-8.68,0-60.72-9.31-63-9.72a.64.64,0,0,1-.51-.75.62.62,0,0,1,.74-.51c16.48,3,60.05,10.44,63.47,9.66,2.16-.49-2.19-22.18-4-31.44-2.45-12.2-2.76-14.3-2.23-15,.95-1.21.63-7.38,0-8.3-.37-.48-3.41-1.18-6.64-1.53a.62.62,0,0,1-.57-.64c0-.1.19-9.69,0-11.41-.05-.5-.28-.57-.35-.59a2.1,2.1,0,0,0-1.81.93c-.62.75-1.11,6.23-1.22,11.09a.68.68,0,0,1-.36.57c-1.68.79-3.13,2-3.06,2.45.14.94,2.12,4.56,3.33,6.62a.6.6,0,0,1,.09.37l-1.65,27.6a.64.64,0,0,1-.28.49.68.68,0,0,1-.57.08L288,142.38a.64.64,0,0,1,.43-1.21l35.66,12.49,1.59-26.57c-.61-1-3.18-5.51-3.39-6.91-.23-1.56,2.22-3,3.41-3.62.07-2.37.36-10.11,1.5-11.49a3.25,3.25,0,0,1,3.16-1.35,1.82,1.82,0,0,1,1.26,1.68c.18,1.56.06,8.84,0,11,2.2.26,6.18.88,7,2,1,1.35,1.34,8.1,0,9.83-.16.76,1.18,7.46,2.47,13.93,4.46,22.25,6,32.28,3.08,32.94A5.33,5.33,0,0,1,343.15,175.15Z"/><path class="cls-1_creative-process-11" d="M281.46,101.66a13.52,13.52,0,0,0-5.75-5.07c-2-.8-3.43-.18-5.4.2-.79.15-1.12,1.24-1.93,1.31s-2.18-1-3-1.22c-17.74-4.56-22.71,18.3-33.19,27.05-6.88,5.74-15.9,9.38-20.55,17a20.4,20.4,0,0,0-2.16,16,30.36,30.36,0,0,0,5.47,10,42.59,42.59,0,0,0,10,9.6c12.42,8.24,29.8,6.9,42.13-1.48,17.34-11.78,23.51-32.85,21.68-52.82A42.05,42.05,0,0,0,281.46,101.66Z"/><path class="cls-2_creative-process-11" d="M244.21,182.82a35.54,35.54,0,0,1-19.68-5.65,42.59,42.59,0,0,1-10.16-9.76,30.43,30.43,0,0,1-5.59-10.25A21.22,21.22,0,0,1,211,140.6c3.17-5.2,8.33-8.62,13.32-11.92a82.43,82.43,0,0,0,7.38-5.29c3.32-2.77,6.06-7,8.95-11.39,6.1-9.34,12.4-19,24.87-15.79a6.53,6.53,0,0,1,1.35.61,4.55,4.55,0,0,0,1.43.59c.16,0,.36-.23.57-.45a2.47,2.47,0,0,1,1.29-.85c.38-.07.73-.16,1.06-.23a7.27,7.27,0,0,1,4.74.06c2.8,1.09,4.8,3.56,6,5.32a42.68,42.68,0,0,1,7.4,21c2.08,22.71-6.13,42.7-22,53.46A41.68,41.68,0,0,1,244.21,182.82ZM261,97c-8.85,0-14.06,8-19.13,15.77-3,4.52-5.74,8.8-9.22,11.7a85,85,0,0,1-7.51,5.38c-5.09,3.37-9.89,6.55-12.9,11.49a19.82,19.82,0,0,0-2.08,15.45,29.05,29.05,0,0,0,5.35,9.78A41.59,41.59,0,0,0,225.3,176c11.67,7.75,28.68,7.14,41.36-1.47,15.42-10.47,23.41-30,21.37-52.18a41.36,41.36,0,0,0-7.14-20.29h0c-1.15-1.62-3-3.87-5.43-4.83a5.83,5.83,0,0,0-3.91,0c-.36.08-.72.16-1.11.23a1.57,1.57,0,0,0-.55.45,2.31,2.31,0,0,1-1.44.88,4.26,4.26,0,0,1-2.24-.76,5.59,5.59,0,0,0-1-.48A16.72,16.72,0,0,0,261,97Z"/><path class="cls-4_creative-process-11 targetColor" d="M234.65,137.72c.76-1,43.06-8.18,53.52,4.05s-5.55,60.32-5.55,60.32l-56.43-3.39S214,163.53,234.65,137.72Z" style="fill: rgb(104, 225, 253);"/><path class="cls-1_creative-process-11" d="M274.57,134.7l.77,9.9s-.93,4.62-7.68,3.6-8.11-5.49-8.11-5.49l-.78-18.51s9.88-6.4,7.52-16.91a13.61,13.61,0,0,0,14.45,5.92s.95,9.48.6,14.66S274.57,134.7,274.57,134.7Z"/><path class="cls-2_creative-process-11" d="M269.5,149a13.82,13.82,0,0,1-1.94-.15c-7.1-1.08-8.62-5.78-8.68-6a.47.47,0,0,1,0-.17l-.78-18.51a.73.73,0,0,1,.32-.62c.1-.06,9.44-6.27,7.22-16.17a.7.7,0,0,1,1.28-.51,12.8,12.8,0,0,0,13.7,5.59.69.69,0,0,1,.56.12.71.71,0,0,1,.28.5c0,.39,1,9.59.61,14.78-.33,4.73-5.06,6.73-6.73,7.29l.73,9.33a1.15,1.15,0,0,1,0,.19C276,144.78,275.09,149,269.5,149Zm-9.26-6.46c.21.57,1.73,4,7.53,4.92,5.58.85,6.71-2.37,6.86-3l-.76-9.78a.7.7,0,0,1,.52-.74c.06,0,5.94-1.58,6.25-6.19a108.19,108.19,0,0,0-.53-13.79,14,14,0,0,1-12.78-4.33c.44,8.28-6.25,13.68-7.84,14.84Z"/><path class="cls-1_creative-process-11" d="M261.85,123.4a4.34,4.34,0,0,0-1.66-2.18,7.39,7.39,0,0,0-2.42-1,3.08,3.08,0,0,0-1.41-.13,2.44,2.44,0,0,0-.91.42,3.31,3.31,0,0,0-1.45,1.81,3.91,3.91,0,0,0,.08,1.89,7.67,7.67,0,0,0,.68,2,5.26,5.26,0,0,0,7.17,2.13"/><path class="cls-2_creative-process-11" d="M259.38,129.7a5.7,5.7,0,0,1-1.68-.25,6,6,0,0,1-3.56-2.9,8.68,8.68,0,0,1-.74-2.14,4.63,4.63,0,0,1-.08-2.23,4,4,0,0,1,1.74-2.21,3.22,3.22,0,0,1,1.16-.53,3.84,3.84,0,0,1,1.73.14,8.17,8.17,0,0,1,2.63,1.06,5.07,5.07,0,0,1,1.94,2.53.7.7,0,0,1-1.33.46,3.67,3.67,0,0,0-1.39-1.83,7.12,7.12,0,0,0-2.2-.87,2.73,2.73,0,0,0-1.1-.12,2,2,0,0,0-.66.32,2.73,2.73,0,0,0-1.16,1.41,3.33,3.33,0,0,0,.08,1.56,7.12,7.12,0,0,0,.62,1.79,4.55,4.55,0,0,0,6.21,1.84.7.7,0,1,1,.67,1.23A5.91,5.91,0,0,1,259.38,129.7Z"/><path class="cls-1_creative-process-11" d="M272.63,117.54s4.08,4.72,3.37,5.72-3.07.68-3.07.68"/><path class="cls-2_creative-process-11" d="M273.77,124.7a7.25,7.25,0,0,1-.93-.06.7.7,0,1,1,.18-1.39c.82.1,2.11,0,2.41-.4,0-.45-1.53-2.77-3.33-4.85a.7.7,0,0,1,1.06-.92c2.95,3.41,4.1,5.63,3.41,6.58A3.4,3.4,0,0,1,273.77,124.7Z"/><ellipse class="cls-2_creative-process-11" cx="269.41" cy="116.96" rx="0.86" ry="1.21" transform="translate(-23.49 95.31) rotate(-19.24)"/><ellipse class="cls-2_creative-process-11" cx="275.1" cy="116.29" rx="0.86" ry="1.21" transform="translate(-22.95 97.15) rotate(-19.24)"/><path class="cls-1_creative-process-11" d="M276.09,126l-6.45-.78s-.34,4.81,3.39,5.14C275.59,130.6,276.09,126,276.09,126Z"/><path class="cls-2_creative-process-11" d="M273.22,131.09l-.25,0c-3.49-.3-4.16-4-4-5.87a.7.7,0,0,1,.26-.49.63.63,0,0,1,.52-.16l6.45.77a.7.7,0,0,1,.61.77C276.58,128,275.6,131.09,273.22,131.09Zm-2.87-5c.07,1.2.51,3.44,2.74,3.64,1.41.11,2-1.94,2.18-3.05Z"/><path class="cls-2_creative-process-11" d="M274.57,134.7s-5.15.29-7.62-1c0,0,2.31,5.77,8,6.94Z"/><path class="cls-2_creative-process-11" d="M274.93,141.36l-.14,0c-6-1.23-8.39-7.11-8.49-7.36a.7.7,0,0,1,1-.88c2.27,1.17,7.21.91,7.26.9a.73.73,0,0,1,.73.66l.37,6a.68.68,0,0,1-.24.57A.71.71,0,0,1,274.93,141.36ZM268.4,135a11,11,0,0,0,5.78,4.79l-.27-4.32A23.59,23.59,0,0,1,268.4,135Z"/><path class="cls-1_creative-process-11" d="M320.78,283.18l-3.7,12.76s16.2,8.18,13.36,9.92-31.55-1.36-32.62-1.9S301,278.72,301,278.72"/><path class="cls-2_creative-process-11" d="M325.27,307.06c-9.34,0-26.78-2-27.77-2.48-.53-.27-1.53-.77,2.83-26a.69.69,0,0,1,1.37.23c-1.83,10.62-3.57,22.51-3.35,24.57,3,.66,29.26,3.38,31.72,1.87,0-1.08-6.13-5.09-13.31-8.71a.68.68,0,0,1-.35-.81l3.7-12.76a.7.7,0,1,1,1.34.39l-3.54,12.2c3.75,1.92,13.45,7.12,13.56,9.68a1.29,1.29,0,0,1-.67,1.19C330.09,306.89,328,307.06,325.27,307.06Z"/><path class="cls-1_creative-process-11" d="M284.51,216.1a.64.64,0,0,1-.35-.1l-15.27-10.39,2.16,9.17a.62.62,0,0,1-1.21.28l-2.52-10.71a.62.62,0,0,1,.95-.66L284.86,215a.62.62,0,0,1,.16.86A.6.6,0,0,1,284.51,216.1Z"/><polygon class="cls-1_creative-process-11" points="295.08 220.13 272.87 204.38 316.37 194.16 345.17 211.81 295.08 220.13"/><path class="cls-2_creative-process-11" d="M295.08,220.77a.58.58,0,0,1-.36-.12L272.5,204.91a.64.64,0,0,1-.26-.65.65.65,0,0,1,.48-.5l43.5-10.23a.62.62,0,0,1,.48.08l28.8,17.65a.62.62,0,0,1,.29.67.64.64,0,0,1-.52.51l-50.08,8.32Zm-20.69-16.09,20.85,14.77,48.13-8-27.11-16.62Z"/><path class="cls-1_creative-process-11" d="M242.65,142.94s-.6,45.51,2.68,46.18,43.21,3.78,45.48,4.21,8.12,2.86,9.49,4.6,4,9.34,2.18,9.25-6.51-.09-8.05-.48-4.47-4-4.47-4,1.17,3.92-.89,3.51-6.45-4.09-6.45-4.09-47.17,9.42-53.94,1.1-9-29.2-5.15-46.46S239.74,133.61,242.65,142.94Z"/><path class="cls-2_creative-process-11" d="M302.51,207.82h-.06c-.49,0-1.16,0-1.93-.06a39.94,39.94,0,0,1-6.25-.44,9.35,9.35,0,0,1-3.34-2.57,2.47,2.47,0,0,1-.49,1.64,1.52,1.52,0,0,1-1.5.42c-1.95-.39-5.48-3.2-6.49-4-4.41.86-47.55,9.07-54.26.81-6.84-8.41-9.21-29.5-5.28-47,2.69-12,9.28-18.49,14.39-18.7,2.8-.08,5,1.66,6,4.86a1.36,1.36,0,0,1,0,.2c-.28,21.34.48,44.22,2.24,45.57,1.74.34,15.13,1.49,27,2.5,9.35.8,17.42,1.49,18.45,1.68,2.41.46,8.38,2.93,9.88,4.84,1.16,1.48,3.65,7.85,2.73,9.64A1.12,1.12,0,0,1,302.51,207.82ZM290,202a.62.62,0,0,1,.5.24c1.08,1.34,3.16,3.56,4.13,3.81a42.46,42.46,0,0,0,6,.4l1.95.06c.43-.74-1.39-6.54-2.71-8.21-1.18-1.51-6.78-3.93-9.11-4.37-1-.18-9.39-.9-18.32-1.67-11.85-1-25.28-2.16-27.17-2.55-.89-.18-2.55-.52-3.08-24C241.88,155,242,144.21,242,143c-.83-2.59-2.46-4-4.66-3.87-4.51.19-10.67,6.45-13.2,17.7-3.85,17.17-1.6,37.76,5,45.91,1.83,2.25,8.33,4.48,28.94,2.34,12.47-1.29,24.26-3.64,24.38-3.66a.63.63,0,0,1,.54.14c1.18,1,4.59,3.64,6.15,4,.11,0,.25,0,.3,0,.29-.32.16-1.67-.14-2.68a.64.64,0,0,1,.32-.75A.59.59,0,0,1,290,202Z"/><path class="cls-1_creative-process-11" d="M295.08,220.13c1.11-2.78,14.36-43.68,14.36-43.68l52.22-7-16.49,42.35Z"/><path class="cls-2_creative-process-11" d="M295.08,220.77a.63.63,0,0,1-.49-.24.62.62,0,0,1-.1-.64c1.08-2.73,14.21-43.23,14.34-43.64a.67.67,0,0,1,.52-.44l52.22-7a.71.71,0,0,1,.59.24.65.65,0,0,1,.1.63L345.76,212a.65.65,0,0,1-.49.4l-50.08,8.32ZM309.92,177c-1.33,4.1-11.57,35.7-13.86,42.29l48.64-8.08,16-41Z"/><path class="cls-3_creative-process-11" d="M326.25,202.22a4.94,4.94,0,0,1-2.2-.48c-.91-.47-2.34-1.69-1.72-4.63h0a12,12,0,0,1,2.59-5.28,7,7,0,0,1,3.19-2.28,4.15,4.15,0,0,1,4.05.79,4.73,4.73,0,0,1,1.33,2.94,8.3,8.3,0,0,1-2,6.7A7.44,7.44,0,0,1,326.25,202.22Zm3.23-11.48a3.25,3.25,0,0,0-1,.15,5.67,5.67,0,0,0-2.54,1.85,10.63,10.63,0,0,0-2.28,4.65h0c-.33,1.55,0,2.6,1,3.1,1.55.8,4.35.09,5.77-1.46a6.91,6.91,0,0,0,1.65-5.56,3.45,3.45,0,0,0-.91-2.11A2.47,2.47,0,0,0,329.48,190.74ZM323,197.25h0Z"/><path class="cls-2_creative-process-11" d="M331.34,126a.64.64,0,0,1-.64-.64,2.77,2.77,0,0,0-2.51-2.7,3.8,3.8,0,0,1-.45-.07.65.65,0,0,1-.5-.72.68.68,0,0,1,.68-.54l.51.06a4.67,4.67,0,0,0,3.95-1.72c.11-.13.22-.3.17-.41-.32-.76-3.52-1.48-6.3-1.67a.65.65,0,0,1-.6-.69.64.64,0,0,1,.68-.59c1.54.11,6.61.59,7.4,2.45a1.58,1.58,0,0,1-.37,1.73,6,6,0,0,1-2.74,1.89,3.67,3.67,0,0,1,1.36,3A.64.64,0,0,1,331.34,126Z"/><path class="cls-1_creative-process-11" d="M328.27,269.66a.78.78,0,0,1-.22,0,.62.62,0,0,1-.36-.8c2.05-5.52,9.68-29.52,9.76-29.76a.62.62,0,0,1,.78-.41.63.63,0,0,1,.4.78c-.08.24-7.72,24.28-9.78,29.82A.62.62,0,0,1,328.27,269.66Z"/></g></svg>