<svg version="1.1" id="Layer_1" xmlns="http://www.w3.org/2000/svg" xmlns:xlink="http://www.w3.org/1999/xlink" x="0px" y="0px" viewBox="0 0 500 500" style="width: 166px;" xml:space="preserve" data-imageid="family-1-49" imageName="Family 1" class="illustrations_image">
<style type="text/css">
	.st0_family-1-49{fill:#D1D3D4;}
	.st1_family-1-49{fill:#FFFFFF;}
	.st2_family-1-49{fill:#231F20;}
	.st3_family-1-49{fill:#68E1FD;}
</style>
<g id="Frame_family-1-49">
	<path class="st0_family-1-49" d="M474.5,382l-448.1,1.4c-8.8,0-15.9-7.1-15.9-15.8L9.7,134.1c0-8.8,7.1-15.9,15.8-15.9l448.1-1.5&#10;&#9;&#9;c8.8,0,15.9,7.1,15.9,15.8l0.8,233.5C490.4,374.8,483.3,381.9,474.5,382C474.5,382,474.5,382,474.5,382z M25.5,119.5&#10;&#9;&#9;c-8,0-14.5,6.5-14.5,14.6l0.8,233.5c0,8,6.6,14.5,14.6,14.5l448.1-1.5c8,0,14.5-6.5,14.5-14.5c0,0,0,0,0-0.1l-0.8-233.5&#10;&#9;&#9;c0-8-6.6-14.5-14.6-14.5L25.5,119.5z"/>
</g>
<g id="Family_family-1-49">
	<path class="st1_family-1-49" d="M459.6,344.9c0,0-1.2,8.9,0,10s2.8-1.3,2.8-1.3s-0.5,6,2.7,5.3c3-0.7,5.1-3.4,5.1-6.5c-0.1-2.7-4-10.5-4-10.5"/>
	<path class="st2_family-1-49" d="M464.7,359.7c-0.6,0-1.1-0.2-1.5-0.6c-1-0.9-1.2-2.5-1.3-3.8c-0.3,0.3-0.7,0.5-1.2,0.6c-0.5,0.1-1-0.1-1.4-0.4&#10;&#9;&#9;c-1.4-1.2-0.6-7.8-0.2-10.6c0-0.3,0.4-0.6,0.7-0.5c0.3,0,0.6,0.4,0.5,0.7c-0.6,4.6-0.7,9-0.2,9.5c0.1,0.1,0.3,0.2,0.4,0.1&#10;&#9;&#9;c0.5-0.1,1.2-0.9,1.5-1.3c0.2-0.2,0.4-0.3,0.7-0.3c0.3,0.1,0.4,0.3,0.4,0.6c-0.1,0.9,0,3.6,0.9,4.5c0.3,0.2,0.7,0.3,1,0.2&#10;&#9;&#9;c2.7-0.7,4.6-3.1,4.6-5.9c-0.1-2.1-2.9-8.1-3.9-10.3c-0.1-0.3,0-0.7,0.3-0.8c0.3-0.1,0.7,0,0.8,0.3l0,0c0.2,0.3,3.9,8,4,10.8&#10;&#9;&#9;c0.1,3.4-2.2,6.4-5.5,7.1C465,359.6,464.8,359.7,464.7,359.7z"/>
	<path class="st1_family-1-49" d="M385.4,286.2c0,0-5.9-13.4-8-13.9s-5.4,9.3-5.4,9.3c2.9,2.9,5.6,6,8,9.3c0.4,0.5,0.7,1,1,1.5&#10;&#9;&#9;C383.1,296,385.4,286.2,385.4,286.2z"/>
	<path class="st2_family-1-49" d="M382,293.8c-0.4,0-1-0.2-1.5-1.1c-0.3-0.5-0.6-1-0.9-1.5c-2.5-3.2-5.2-6.3-8-9.2c-0.2-0.2-0.2-0.4-0.1-0.6&#10;&#9;&#9;c1-3.1,3.8-10.3,6.2-9.7s7,11.1,8.4,14.3c0,0.1,0,0.3,0,0.4c-0.5,2.2-1.9,7.2-3.8,7.5L382,293.8z M372.7,281.4&#10;&#9;&#9;c2.8,2.9,5.4,5.9,7.8,9.1c0.4,0.5,0.7,1,1,1.6c0.2,0.4,0.4,0.5,0.4,0.5c0.7-0.1,1.9-3,2.7-6.3c-2.8-6.3-6.4-13.1-7.5-13.4&#10;&#9;&#9;C376.5,272.7,374.4,276.3,372.7,281.4z"/>
	<path class="st1_family-1-49" d="M429.1,402.2c0,0,0.3,6.7,1.2,7.1s14.4,3.2,14.1,1.9s-7.6-9.9-7.6-9.9L429.1,402.2z"/>
	<path class="st2_family-1-49" d="M443.1,412.2c-3.9,0-13-2.2-13.1-2.3c-0.3-0.1-1.2-0.5-1.5-7.6c0-0.3,0.2-0.6,0.5-0.6l7.6-0.9&#10;&#9;&#9;c0.2,0,0.4,0.1,0.5,0.2c1.8,2,7.5,8.7,7.8,10.2c0,0.3-0.1,0.6-0.3,0.8C444.2,412.1,443.6,412.2,443.1,412.2z M429.7,402.8&#10;&#9;&#9;c0.1,2.7,0.5,5.6,0.9,6.1c0.8,0.3,10.7,2.4,13,2.1c-2.2-3.1-4.6-6.2-7.1-9L429.7,402.8z"/>
	<path class="st1_family-1-49" d="M424.9,401c0,0,0.4,8.1,0,8.2s-15.7,1.8-15.2,0.9s8.2-9.2,8.2-9.2"/>
	<path class="st2_family-1-49" d="M411.8,411c-1.4,0-2.3-0.1-2.5-0.4c-0.2-0.2-0.2-0.5-0.1-0.8c0.5-0.9,7-7.9,8.3-9.3c0.2-0.2,0.6-0.2,0.9,0&#10;&#9;&#9;c0,0,0,0,0,0c0.2,0.2,0.2,0.6,0,0.9c-2.5,2.6-6.2,6.8-7.6,8.4c2.8,0.1,11.6-0.8,13.7-1.1c0.1-1.1,0-4.5-0.1-7.7&#10;&#9;&#9;c0-0.3,0.2-0.6,0.6-0.6c0,0,0,0,0,0c0.3,0,0.6,0.2,0.6,0.5c0,0,0,0,0,0c0.4,8.6,0.1,8.7-0.4,8.9C425,409.9,416.2,411,411.8,411z"/>
	<polygon class="st2_family-1-49" points="409.7,342.9 414.6,402.3 426,402.2 429,372.5 429.1,402.2 439.6,403.9 444.8,349.2 &#9;"/>
	<path class="st2_family-1-49" d="M439.6,404.6h-0.1l-10.5-1.7c-0.3-0.1-0.6-0.3-0.6-0.7l0-16.7l-1.7,16.8c0,0.3-0.3,0.6-0.7,0.6h-11.4&#10;&#9;&#9;c-0.4,0-0.6-0.3-0.7-0.6l-4.9-59.4c0-0.4,0.3-0.7,0.6-0.7c0.1,0,0.1,0,0.2,0l35.2,6.3c0.3,0.1,0.6,0.4,0.5,0.7l-5.3,54.7&#10;&#9;&#9;c0,0.2-0.1,0.3-0.2,0.5C439.9,404.5,439.8,404.6,439.6,404.6z M429.7,401.7l9.3,1.5l5.1-53.4l-33.6-6.1l4.7,57.9h10.2l2.9-29.1&#10;&#9;&#9;c0-0.4,0.3-0.6,0.7-0.6c0,0,0,0,0,0c0.4,0,0.6,0.3,0.6,0.7L429.7,401.7z"/>
	<path class="st3_family-1-49 targetColor" d="M412.3,301.5c0,0-10.9-3.8-15-7.3s-11.1-11-11.1-11l-7.5,8.3c3.4,6,7.4,11.6,12,16.7&#10;&#9;&#9;c6.9,7.4,21.6,13.1,21.6,13.1L412.3,301.5z" style="fill: rgb(104, 225, 253);"/>
	<polygon class="st1_family-1-49" points="109.8,350 102.6,402.9 92.1,402.9 90.5,347 &#9;"/>
	<path class="st2_family-1-49" d="M102.6,403.6H92.1c-0.4,0-0.7-0.3-0.7-0.7L89.8,347c0-0.2,0.1-0.4,0.2-0.5c0.1-0.1,0.4-0.2,0.6-0.2l19.3,3&#10;&#9;&#9;c0.4,0.1,0.6,0.4,0.6,0.8l-7.2,52.9C103.2,403.3,102.9,403.6,102.6,403.6z M92.8,402.2h9.3l7-51.6l-17.8-2.8L92.8,402.2z"/>
	<path class="st2_family-1-49" d="M92.1,402.9v5.6c0,0,25,3,24.8,1.6s-14.3-7.2-14.3-7.2L92.1,402.9z"/>
	<path class="st2_family-1-49" d="M114.4,411.1c-4.7,0-14.2-1-22.4-1.9c-0.3,0-0.6-0.3-0.6-0.7v-5.6c0-0.4,0.3-0.7,0.7-0.7c0,0,0,0,0,0h10.5&#10;&#9;&#9;c0.1,0,0.2,0,0.3,0.1c9.6,4,14.6,6.6,14.7,7.8c0,0.2-0.1,0.5-0.2,0.7C117.1,411,116,411.1,114.4,411.1z M92.8,407.9&#10;&#9;&#9;c9.4,1.1,19.7,2,22.8,1.9c-4.2-2.4-8.6-4.4-13.1-6.2h-9.7L92.8,407.9z"/>
	<polygon class="st1_family-1-49" points="67.2,350.2 74.8,403 85.3,402.9 86.9,347 &#9;"/>
	<path class="st2_family-1-49" d="M85.3,403.6H74.8c-0.3,0-0.6-0.3-0.7-0.6l-7.5-52.8c-0.1-0.4,0.2-0.7,0.6-0.8c0,0,0,0,0,0l19.7-3.2&#10;&#9;&#9;c0.4-0.1,0.7,0.2,0.8,0.6c0,0,0,0.1,0,0.1l-1.7,56C85.9,403.4,85.6,403.6,85.3,403.6z M75.3,402.3h9.3l1.6-54.5L68,350.7&#10;&#9;&#9;L75.3,402.3z"/>
	<path class="st1_family-1-49" d="M116.2,259c0,1.3-0.3,2.7-0.8,3.9c-2.6,5.8-8.4,9.5-14.8,9.4c-4.7-0.1-8.7-4.3-11.4-7.8&#10;&#9;&#9;c-6.2-8.1-7.2-20.8-0.5-28.9c2.4-2.9,4.4-6.1,8.5-6.9c3-0.5,6,0.3,8.3,2.2c2.7,2.4,4,6.1,4.7,9.6s1.1,7.3,2.7,10.5&#10;&#9;&#9;C114.3,254.1,116.1,256.2,116.2,259z"/>
	<path class="st2_family-1-49" d="M101.1,272.9h-0.4c-3.9-0.1-8-2.8-12-8.1c-6.8-9-7-21.7-0.5-29.8l0.8-1c2.1-2.6,4.2-5.3,8-6.1&#10;&#9;&#9;c3.2-0.6,6.5,0.3,8.9,2.4c3.1,2.7,4.3,6.8,4.9,10c0.2,0.8,0.3,1.6,0.5,2.4c0.4,2.7,1.1,5.4,2.2,7.9c0.4,0.8,0.8,1.6,1.2,2.4&#10;&#9;&#9;c1.1,1.9,2.1,3.7,2.2,5.8l0,0c0,1.4-0.3,2.9-0.9,4.2C113.3,269,107.5,272.8,101.1,272.9z M98.9,229.2c-0.5,0-1.1,0.1-1.6,0.1&#10;&#9;&#9;c-3.3,0.6-5.2,3-7.2,5.6c-0.3,0.4-0.6,0.7-0.8,1c-6,7.4-5.8,19.8,0.6,28.1c3.7,4.9,7.4,7.4,10.9,7.5c6.1,0.1,11.7-3.4,14.1-9&#10;&#9;&#9;c0.5-1.1,0.8-2.3,0.8-3.6l0,0c-0.1-1.8-1-3.4-2-5.2c-0.4-0.8-0.9-1.6-1.3-2.4c-1.1-2.6-1.9-5.4-2.3-8.3c-0.2-0.8-0.3-1.6-0.5-2.4&#10;&#9;&#9;c-0.6-3-1.7-6.8-4.5-9.2C103.3,230,101.1,229.2,98.9,229.2L98.9,229.2z"/>
	<path class="st1_family-1-49" d="M101.9,269.8c0,0,10.7,18.5,13.2,20l13.7-16l6,5.7c0,0-13,24.8-20.9,23.2s-18.6-20.3-18.6-20.3"/>
	<path class="st2_family-1-49" d="M114.7,303.4c-0.3,0-0.6,0-0.9-0.1c-8-1.7-18.6-19.8-19-20.6c-0.2-0.3-0.1-0.7,0.2-0.9c0,0,0,0,0,0&#10;&#9;&#9;c0.3-0.2,0.7-0.1,0.9,0.2c0,0,0,0,0,0c0.1,0.2,10.7,18.4,18.2,19.9c5.9,1.2,16.1-15.3,19.9-22.4l-5.1-4.9l-13.3,15.5&#10;&#9;&#9;c-0.2,0.3-0.6,0.3-0.9,0.1c-2.6-1.6-12.3-18.4-13.4-20.3c-0.2-0.3-0.1-0.7,0.2-0.9c0,0,0,0,0,0c0.3-0.2,0.7-0.1,0.9,0.2&#10;&#9;&#9;c0,0,0,0,0,0c4,6.9,10.3,17.2,12.5,19.4l13.3-15.5c0.1-0.1,0.3-0.2,0.5-0.2c0.2,0,0.4,0.1,0.5,0.2l6,5.7c0.2,0.2,0.3,0.5,0.1,0.8&#10;&#9;&#9;C134.1,282.3,122.8,303.4,114.7,303.4z"/>
	<path class="st1_family-1-49" d="M374.2,213.2c0,0,6,55,6.5,55.7c1.4,2.5,1.9,5.4,1.4,8.1c-0.7,4.5-3.8,9-4.8,9.4s-6.5,0.4-6.6-0.7&#10;&#9;&#9;s2.5-1.8,4-2.6s4.4-4.2,3.7-6.2s-3.5-3.2-4.3-2.9s-3,5.6-4.6,4.5s0.9-4.7,1.8-7.5s-11.5-55.3-11.5-55.3"/>
	<path class="st2_family-1-49" d="M374.8,287.4c-1.4,0.1-2.8-0.1-4.1-0.7c-0.3-0.2-0.5-0.5-0.6-0.9c-0.1-1.3,1.6-2,3.2-2.6&#10;&#9;&#9;c0.4-0.2,0.9-0.4,1.2-0.5c1.3-0.7,3.9-3.9,3.4-5.4c-0.7-1.3-1.9-2.3-3.4-2.5c-0.1,0.1-0.5,0.7-0.8,1.2c-0.9,1.4-2.1,3.2-3.3,3.5&#10;&#9;&#9;c-0.4,0.1-0.8,0-1.1-0.2c-1.6-1.1-0.5-3.4,0.5-5.7c0.4-0.8,0.7-1.7,1-2.5c0.6-2.2-6.6-34-11.5-54.9c-0.1-0.3,0.1-0.7,0.4-0.8&#10;&#9;&#9;c0.3-0.1,0.7,0.1,0.8,0.4c0,0,0,0.1,0,0.1c1.3,5.4,12.4,52.7,11.5,55.6c-0.3,0.9-0.7,1.8-1.1,2.6c-0.7,1.6-1.7,3.7-0.9,4.2&#10;&#9;&#9;c0.1,0,0.1,0,0.2,0c0.7-0.1,1.9-1.9,2.5-3s0.9-1.5,1.3-1.6c0.6-0.2,1.3-0.1,1.9,0.2c1.4,0.5,2.6,1.6,3.2,3c0.8,2.4-2.4,6.1-4,6.9&#10;&#9;&#9;c-0.4,0.2-0.8,0.4-1.3,0.6c-0.7,0.3-2.2,0.9-2.4,1.3c0.7,0.5,4.8,0.6,5.7,0.2c0.6-0.3,3.7-4.4,4.4-8.9c0.5-2.6,0-5.4-1.3-7.7&#10;&#9;&#9;c-0.5-0.8-4.3-35.4-6.6-56c0-0.3,0.2-0.6,0.5-0.7c0.3,0,0.6,0.2,0.7,0.5c2.4,21.6,6,54.2,6.5,55.6c1.4,2.6,1.9,5.6,1.4,8.5&#10;&#9;&#9;c-0.7,4.5-3.8,9.4-5.1,9.9C376.6,287.2,375.7,287.4,374.8,287.4z"/>
	<path class="st1_family-1-49" d="M280.4,211.4c0,0-13.1,41-17.1,48.4s-6.8,11.1-6.5,13.4s1.4,5.5,5.1,3.6s5.7-2,8.5-7.8&#10;&#9;&#9;c1.2-2.4,22.7-50.4,22.7-50.4"/>
	<path class="st2_family-1-49" d="M260,278.1c-0.5,0-1-0.1-1.4-0.4c-1.6-0.9-2.1-3.1-2.3-4.4c-0.2-1.8,1.1-4.1,3.4-8c0.9-1.6,2-3.5,3.2-5.7&#10;&#9;&#9;c3.9-7.3,16.9-47.9,17-48.3c0.1-0.3,0.5-0.5,0.8-0.4c0.3,0.1,0.5,0.4,0.4,0.8c0,0,0,0,0,0c-0.5,1.7-13.2,41.2-17.1,48.5&#10;&#9;&#9;c-1.2,2.2-2.3,4.1-3.2,5.7c-2,3.5-3.4,5.9-3.2,7.3c0.1,0.8,0.5,2.8,1.6,3.5c0.8,0.3,1.8,0.2,2.5-0.3l1.6-0.8c2.7-1.3,4.3-2,6.6-6.7&#10;&#9;&#9;c1.2-2.4,22.5-49.9,22.7-50.4c0.1-0.3,0.5-0.4,0.8-0.3c0.3,0.1,0.4,0.5,0.3,0.8c-0.9,2-21.5,48-22.7,50.4c-2.5,5-4.4,6-7.1,7.2&#10;&#9;&#9;c-0.5,0.2-1,0.5-1.6,0.8C261.6,277.8,260.8,278,260,278.1z"/>
	<path class="st1_family-1-49" d="M255.4,241.2c0,0,7.3,18.1,8,18.6c2.2,1.7,3.8,4.2,4.4,7c1.1,4.4,0,9.8-0.7,10.5s-5.8,2.9-6.3,1.9&#10;&#9;&#9;s1.6-2.7,2.7-3.9s2.4-5.6,1-7.1s-4.5-1.6-5-1s-0.6,6.3-2.5,6s-1-4.7-1.3-7.6s-10.7-18.5-10.7-18.5"/>
	<path class="st2_family-1-49" d="M261.4,280.2c-0.1,0-0.2,0-0.4,0c-0.4,0-0.7-0.3-0.9-0.6c-0.6-1.2,0.7-2.4,1.9-3.7c0.3-0.3,0.6-0.7,0.9-1&#10;&#9;&#9;c1-1.1,2.1-5.1,1-6.3c-1.1-1-2.7-1.4-4.1-1c0,0.1-0.2,0.8-0.3,1.4c-0.3,1.7-0.7,3.8-1.7,4.5c-0.3,0.2-0.7,0.3-1.1,0.2&#10;&#9;&#9;c-1.9-0.4-1.8-3-1.8-5.5c0.1-0.9,0.1-1.8,0-2.7c-0.2-2-6.4-12-10.6-18.2c-0.1-0.3,0-0.7,0.3-0.8c0.2-0.1,0.5,0,0.7,0.1&#10;&#9;&#9;c1.1,1.6,10.6,15.8,10.8,18.8c0.1,0.9,0.1,1.9,0,2.8c0,1.8-0.1,4.1,0.8,4.2c0.1,0,0.1,0,0.2,0c0.6-0.4,1-2.5,1.2-3.7&#10;&#9;&#9;c0-0.7,0.2-1.4,0.5-2c0.5-0.4,1.1-0.6,1.8-0.6c1.5-0.1,3.1,0.5,4.2,1.5c1.7,1.9,0.1,6.6-1,7.9c-0.3,0.3-0.6,0.7-1,1&#10;&#9;&#9;c-0.6,0.6-1.7,1.7-1.7,2.2c0.9,0.2,4.7-1.3,5.4-2c0.5-0.5,1.7-5.5,0.6-10c-0.6-2.6-2.1-5-4.2-6.6c-0.7-0.5-4.9-10.6-8.2-18.9&#10;&#9;&#9;c-0.1-0.3,0-0.7,0.3-0.8c0,0,0,0,0,0c0.3-0.1,0.7,0,0.8,0.3c0,0,0,0,0,0c2.7,6.7,7.2,17.6,7.8,18.4c2.3,1.8,4,4.4,4.6,7.3&#10;&#9;&#9;c1.1,4.4,0.1,10.1-0.9,11.1C265.6,279.1,263.5,279.9,261.4,280.2z"/>
	<path class="st1_family-1-49" d="M136.4,238.2c0,0-5.1,24.6-5.8,25.1c-2.1,1.9-3.6,4.4-4,7.2c-0.9,4.5,0.6,9.8,1.4,10.5s6,2.6,6.5,1.5&#10;&#9;&#9;s-1.8-2.6-2.9-3.8s-2.7-5.4-1.5-7s4.4-1.9,5-1.3s1,6.3,2.9,5.8s0.7-4.8,0.8-7.7s7.9-23.4,7.9-23.4"/>
	<path class="st2_family-1-49" d="M133.6,283.5c-2.1-0.2-4.2-0.9-6.1-2c-1.1-1-2.5-6.5-1.6-11c0.5-2.9,1.9-5.6,4.1-7.5&#10;&#9;&#9;c0.6-1.4,3.8-15.9,5.7-24.9c0.1-0.3,0.4-0.6,0.7-0.5c0.3,0.1,0.6,0.4,0.5,0.7c0,0,0,0.1,0,0.1c-5.2,24.8-5.8,25.3-6,25.5&#10;&#9;&#9;c-2,1.8-3.3,4.2-3.8,6.9c-0.9,4.5,0.7,9.4,1.2,9.9c0.7,0.6,4.6,1.9,5.5,1.7c0-0.4-1.2-1.5-1.8-2c-0.4-0.3-0.7-0.7-1-1&#10;&#9;&#9;c-1.2-1.3-3.1-5.9-1.5-7.9c1.1-1.1,2.5-1.8,4.1-1.8c0.6-0.1,1.3,0.1,1.8,0.5c0.4,0.6,0.6,1.3,0.7,2c0.3,1.2,0.8,3.2,1.4,3.6&#10;&#9;&#9;c0.1,0,0.1,0,0.2,0c0.8-0.2,0.6-2.5,0.5-4.3c-0.1-0.9-0.1-1.9-0.1-2.8c0.1-3,7.6-22.8,7.9-23.6c0.1-0.3,0.5-0.5,0.8-0.4&#10;&#9;&#9;s0.5,0.5,0.4,0.8c-2.2,5.7-7.8,20.9-7.8,23.2c0,0.9,0,1.8,0.1,2.7c0.2,2.5,0.4,5.1-1.4,5.6c-0.4,0.1-0.8,0.1-1.1-0.2&#10;&#9;&#9;c-1.1-0.6-1.6-2.7-2-4.4c-0.1-0.5-0.2-1-0.4-1.4c-1.5-0.2-2.9,0.3-4,1.3c-1,1.3,0.4,5.2,1.4,6.2c0.3,0.3,0.6,0.6,1,0.9&#10;&#9;&#9;c1.3,1.1,2.6,2.3,2.1,3.5c-0.2,0.3-0.5,0.6-0.8,0.6C134,283.5,133.8,283.5,133.6,283.5z"/>
	<path class="st1_family-1-49" d="M213.2,396.4c0,0-2.5,7.8-1.4,8.7s23.3,6.2,24.9,6.1s6.4-0.8,6.4-2.1s-18.5-12.8-18.5-12.8"/>
	<path class="st2_family-1-49" d="M236.7,411.8c-2.4,0-24.1-5.3-25.3-6.2s-0.1-5.6,1.2-9.4c0.1-0.3,0.5-0.5,0.8-0.3c0.3,0.1,0.4,0.4,0.4,0.7&#10;&#9;&#9;c-1.2,3.8-1.9,7.5-1.6,8.1c1.3,0.8,22.9,6,24.4,5.9c2.6-0.2,5.3-0.9,5.7-1.4c-1.1-1.3-10-7.2-18.1-12.3c-0.3-0.2-0.4-0.6-0.2-0.9&#10;&#9;&#9;c0.2-0.3,0.6-0.4,0.9-0.2c18.8,11.7,18.8,12.9,18.8,13.3C243.7,411.2,238.4,411.7,236.7,411.8L236.7,411.8z"/>
	<path class="st1_family-1-49" d="M193.5,396.5c0,0,4.6,7.8,2.9,8.8s-24.6,7.1-25.9,6.9s-8.2-0.7-7.2-2.5s20.3-14.1,20.3-14.1L193.5,396.5z"/>
	<path class="st2_family-1-49" d="M170.5,412.8h-0.1l-0.7-0.1c-3.8-0.4-6.5-1-7.1-2.1c-0.2-0.4-0.2-0.8,0-1.2c1-1.8,17.3-12.3,20.6-14.4&#10;&#9;&#9;c0.1-0.1,0.3-0.1,0.4-0.1l9.9,0.9c0.2,0,0.4,0.1,0.5,0.3c0.6,1.1,3.9,6.7,3.3,8.8c-0.1,0.4-0.3,0.7-0.6,0.8&#10;&#9;&#9;C195.2,406.7,173,412.8,170.5,412.8z M183.7,396.2c-7.4,4.8-19.2,12.6-20,13.8c0.1,0.2,0.9,0.9,6.1,1.5l0.7,0.1l0,0&#10;&#9;&#9;c1.7,0,23.9-6,25.5-6.9c0.4-0.4-0.8-3.8-3-7.6L183.7,396.2z"/>
	<polygon class="st2_family-1-49" points="165.1,241.2 178.4,396.5 195.6,396.5 195,270 211.6,398.3 227.8,398.2 224.1,239.9 &#9;"/>
	<path class="st2_family-1-49" d="M227.8,398.9l-16.2,0c-0.3,0-0.6-0.2-0.7-0.6l-15.2-117.5l0.6,115.6c0,0.2-0.1,0.4-0.2,0.5&#10;&#9;&#9;c-0.1,0.1-0.3,0.2-0.5,0.2l-17.3,0.1c-0.3,0-0.6-0.3-0.7-0.6l-13.3-155.4c0-0.2,0-0.4,0.2-0.5c0.1-0.1,0.3-0.2,0.5-0.2l59-1.2&#10;&#9;&#9;c0.4,0,0.7,0.3,0.7,0.6c0,0,0,0,0,0l3.7,158.3c0,0.2-0.1,0.4-0.2,0.5C228.1,398.8,228,398.9,227.8,398.9z M212.1,397.6l15,0&#10;&#9;&#9;l-3.7-157l-57.6,1.2l13.2,154l16,0L194.3,270c0-0.4,0.3-0.7,0.6-0.7c0.4,0,0.7,0.2,0.7,0.6c0,0,0,0,0,0L212.1,397.6z"/>
	<path class="st3_family-1-49 targetColor" d="M181.7,150.5c0,0-20.8,2.8-25.3,7.1s-19.8,75.7-26.9,92.5l15.5,7.9l14.8-54.5l2.8,45.3l64.2-0.2l-1.9-45.3&#10;&#9;&#9;c0,0,11,32.5,20.2,51.4l16.7-10.3c0,0-27.4-63.4-31-81.1S181.7,150.5,181.7,150.5z" style="fill: rgb(104, 225, 253);"/>
	<path class="st3_family-1-49 targetColor" d="M105.8,263.5c0,0-29.6-5.3-35.4-0.2s1.7,47,1.7,47l36.2-4.2C108.3,306.1,116.8,277.3,105.8,263.5z" style="fill: rgb(104, 225, 253);"/>
	<path class="st1_family-1-49" d="M72.1,269.9c0,0-13.4,15.4-15.5,15.9S45.9,268,45.9,268l-9.2,6.8c0,0,11.9,26.9,16.7,28.9&#10;&#9;&#9;S88.9,277.8,72.1,269.9z"/>
	<path class="st2_family-1-49" d="M53.9,304.5c-0.3,0-0.6,0-0.8-0.1c-4.9-2.1-15.9-26.5-17.1-29.3c-0.1-0.3,0-0.6,0.2-0.8l9.2-6.8&#10;&#9;&#9;c0.3-0.2,0.7-0.1,0.9,0.2c0,0,0,0.1,0.1,0.1c3.8,8,8.7,17,10,17.4c1.1-0.3,8.6-8.2,15.1-15.6c0.2-0.2,0.5-0.3,0.8-0.2&#10;&#9;&#9;c5.5,2.6,6.8,7.4,3.9,13.9C72,292.8,58.7,304.5,53.9,304.5z M37.5,275c3.5,7.8,12.5,26.5,16.1,28.1c2.3,1,16.7-9.7,21.4-20.5&#10;&#9;&#9;c2.5-5.6,1.6-9.6-2.8-11.9c-2.9,3.3-13.4,15.2-15.5,15.7s-7.1-9-11.1-17.4L37.5,275z"/>
	<path class="st1_family-1-49" d="M97.9,260l0.4,8.5c0,0-1.2,2.5-8.2,0.6s-7-5.2-7-5.2S82.8,248,82.8,248c0-0.8,0.3-9.1,0.2-16.4&#10;&#9;&#9;c8.5-0.2,16.1-0.9,16.1-0.9c-0.8,0.8,2.2,1,2.2,1c1.4,0,2.7,0.2,4,0.6c0.5,4.9,3,18.5,2.4,21.3C106.7,258.9,97.9,260,97.9,260z"/>
	<path class="st2_family-1-49" d="M94.8,270.4c-1.6,0-3.3-0.3-4.8-0.8c-7.4-2-7.4-5.6-7.4-5.8C82.2,248,82.2,248,82.2,248&#10;&#9;&#9;c0.1-2.9,0.3-9.9,0.2-16.4c0-0.2,0.1-0.3,0.2-0.4c0.1-0.1,0.3-0.2,0.4-0.2c8.4-0.2,16-0.9,16-0.9c0.3,0,0.6,0.2,0.7,0.6&#10;&#9;&#9;c0,0.1,0,0.1,0,0.2c0.5,0.1,1.1,0.2,1.6,0.2c1.4,0,2.9,0.2,4.2,0.6c0.2,0.1,0.4,0.3,0.4,0.5c0.2,1.6,0.5,4.1,1,6.8&#10;&#9;&#9;c0.9,5.9,1.9,12.7,1.5,14.7c-1,5-7.8,6.5-9.8,6.9l0.3,8c0,0.1,0,0.2,0,0.3C98.7,269,97.9,270.4,94.8,270.4z M83.6,232.2&#10;&#9;&#9;c0.1,6.3-0.1,13.1-0.2,15.7c0,0.1,0.3,16,0.3,16s0.2,2.9,6.5,4.6c5.4,1.5,7,0.2,7.4-0.2l-0.3-8.4c0-0.3,0.2-0.6,0.5-0.6&#10;&#9;&#9;c0.1,0,8.3-1.1,9.3-6c0.4-1.8-0.7-8.8-1.5-14.3c-0.4-2.5-0.7-4.8-0.9-6.4c-1.1-0.3-2.3-0.5-3.5-0.4l0,0c-0.6,0-2.4-0.2-2.8-0.8l0,0&#10;&#9;&#9;C96.4,231.5,90.3,232,83.6,232.2z"/>
	<path class="st1_family-1-49" d="M97.3,245.3c0.9,1.6,1.8,3.5,1.3,4.1c-0.9,1-3.3,0.3-3.3,0.3"/>
	<path class="st2_family-1-49" d="M96.9,250.6c-0.6,0-1.2-0.1-1.8-0.2c-0.4-0.1-0.5-0.5-0.4-0.9c0.1-0.3,0.4-0.5,0.7-0.4&#10;&#9;&#9;c0.8,0.2,2.3,0.3,2.7-0.1l0,0c0,0,0-0.7-1.4-3.3c-0.2-0.3-0.1-0.7,0.2-0.9c0,0,0,0,0,0c0.3-0.2,0.7-0.1,0.9,0.2c0,0,0,0,0,0&#10;&#9;&#9;c1.9,3.4,1.7,4.3,1.3,4.9C98.5,250.4,97.7,250.6,96.9,250.6z"/>
	<path class="st1_family-1-49" d="M87.8,264.3c-0.6,1.3-1.5,2.4-2.7,3.3c-2.2,1.7-4.8,2.9-7.5,3.4c-3.4,0.8-7.1,1-10.3-0.3&#10;&#9;&#9;c-3-1.2-6.2-4.3-5.5-7.8c0.8-3.7,2.4-7.7,3.5-11.4c3.7-11.4,5.6-29,19.8-31.7c10.7-2,17.6,0.5,22,6c5.3,6.7,3.4,15.8-6.6,11.5&#10;&#9;&#9;c-2.8-1.2-4.8-3.6-5.6-6.6c-1.1,3-3.1,5.5-5.6,7.5c-0.9,0.6-1.7,1.3-2.4,2.1c-2.9,4.2-1.4,10.2-0.3,14.7&#10;&#9;&#9;C87.5,258.9,88.9,261.6,87.8,264.3z"/>
	<path class="st2_family-1-49" d="M72.6,272.3c-1.9,0-3.8-0.3-5.6-1c-3.5-1.4-6.7-4.8-5.9-8.5c0.7-2.8,1.5-5.6,2.5-8.4c0.4-1.1,0.7-2.1,1.1-3.1&#10;&#9;&#9;c0.7-2,1.3-4.2,1.9-6.5c3-10.9,6.3-23.4,18.4-25.6c10.2-1.9,17.8,0.2,22.6,6.3c3.2,4,4,9,1.9,11.8c-1,1.3-3.6,3.2-9.2,0.8&#10;&#9;&#9;c-2.4-1.1-4.3-3-5.4-5.4c-1.2,2.4-2.9,4.5-5.1,6.2l-0.5,0.4c-0.7,0.4-1.3,1-1.8,1.6c-2.7,3.9-1.3,9.5-0.2,14v0.2&#10;&#9;&#9;c0.2,0.9,0.4,1.7,0.7,2.5c0.8,2.6,1.4,4.8,0.5,7.1l0,0c-0.6,1.4-1.6,2.6-2.9,3.6c-2.3,1.8-5,3-7.8,3.5&#10;&#9;&#9;C76,272.1,74.3,272.3,72.6,272.3z M91.8,219.8c-2.2,0-4.4,0.3-6.6,0.7c-11.2,2.1-14.5,14.1-17.3,24.6c-0.6,2.4-1.2,4.6-1.9,6.6&#10;&#9;&#9;c-0.3,1-0.7,2.1-1.1,3.1c-1,2.7-1.8,5.4-2.5,8.2c-0.6,3,2.2,5.8,5.1,7c2.7,1.1,6,1.2,9.9,0.3c2.6-0.5,5.1-1.6,7.2-3.3&#10;&#9;&#9;c1.1-0.8,1.9-1.8,2.5-3c0.8-1.9,0.2-3.8-0.5-6.2c-0.2-0.8-0.5-1.6-0.7-2.5v-0.2c-1.1-4.5-2.6-10.7,0.4-15.1c0.6-0.7,1.2-1.4,2-1.9&#10;&#9;&#9;l0.5-0.4c2.4-1.9,4.2-4.4,5.3-7.2c0.1-0.3,0.4-0.5,0.7-0.4c0.3,0,0.5,0.2,0.6,0.5c0.7,2.7,2.6,5,5.2,6.1c3.6,1.5,6.3,1.4,7.6-0.4&#10;&#9;&#9;c1.7-2.2,0.9-6.6-1.9-10.1C103,221.9,98.2,219.8,91.8,219.8L91.8,219.8z M87.8,264.3L87.8,264.3z"/>
	<path class="st2_family-1-49" d="M96.8,254.4c-1.9,0-3.8-0.9-5.5-2.9c-0.3-0.3-0.2-0.7,0-1s0.7-0.2,1,0c1.6,1.7,3.2,2.5,4.8,2.4&#10;&#9;&#9;c2.7-0.2,4.7-2.9,4.7-2.9c0.2-0.3,0.6-0.4,0.9-0.2s0.4,0.6,0.2,0.9c-0.1,0.1-2.3,3.2-5.7,3.4L96.8,254.4z"/>
	<path class="st2_family-1-49" d="M97.9,260c0,0-5.7,0.1-7.8-1.9c0,0,2.1,2.8,8.2,6.3L97.9,260z"/>
	<path class="st2_family-1-49" d="M98.3,265.1c-0.1,0-0.2,0-0.3-0.1c-6.1-3.6-8.3-6.4-8.4-6.5c-0.2-0.3-0.2-0.7,0.1-0.9c0.3-0.2,0.6-0.2,0.9,0&#10;&#9;&#9;c1.6,1.5,5.9,1.7,7.4,1.7l0,0c0.4,0,0.6,0.3,0.7,0.6l0.3,4.5c0,0.3-0.1,0.5-0.3,0.6C98.5,265.1,98.4,265.1,98.3,265.1z M93.2,260.2&#10;&#9;&#9;c1.4,1.1,2.8,2.1,4.3,3l-0.2-2.5C95.9,260.6,94.5,260.5,93.2,260.2L93.2,260.2z"/>
	<path class="st2_family-1-49" d="M99.4,243.7c-0.1,0-0.2,0-0.3-0.1c-0.3-0.2-0.4-0.6-0.3-0.9c0.7-1.3,1.5-2,2.4-2c1,0,1.9,0.6,2.4,1.4&#10;&#9;&#9;c0.2,0.3,0.1,0.7-0.3,0.9c-0.3,0.2-0.6,0.1-0.8-0.2c-0.3-0.4-0.7-0.7-1.2-0.8l0,0c-0.4,0-0.9,0.5-1.3,1.3&#10;&#9;&#9;C99.9,243.6,99.7,243.7,99.4,243.7z"/>
	<path class="st2_family-1-49" d="M90.4,243.8c-0.1,0-0.2,0-0.3-0.1c-0.3-0.2-0.5-0.6-0.3-0.9c0.7-1.3,1.5-2,2.5-2c1,0,1.9,0.6,2.4,1.4&#10;&#9;&#9;c0.2,0.3,0.1,0.7-0.3,0.9c-0.3,0.2-0.6,0.1-0.8-0.2c-0.2-0.2-0.7-0.8-1.2-0.8l0,0c-0.4,0-0.9,0.5-1.3,1.3&#10;&#9;&#9;C90.9,243.6,90.7,243.8,90.4,243.8z"/>
	<path class="st1_family-1-49" d="M47.3,273.6c1.4-3.9,0.3-9.8-0.7-12.8c-0.2-0.8-0.6-1.6-0.9-2.3c-0.4-0.7-0.9-1.3-1.7-1.7&#10;&#9;&#9;c-0.3-0.2-0.7-0.1-1,0.1c-0.2,0.3-0.3,0.6-0.2,1c0.1,1.7,0.4,3.3,0.8,4.9c-0.5-1.2-0.9-2.6-1.1-3.9c-0.3-1.5-0.8-3.1-1.3-4.5&#10;&#9;&#9;c-0.2-0.7-0.5-1.9-1.3-2.2c-1.8-0.7-1.1,3.3-1,4c0.2,1.9,0.6,3.8,1.3,5.6l-1.6-4.3c-0.3-1.2-0.7-2.4-1.3-3.6&#10;&#9;&#9;c-0.2-0.4-0.5-0.8-0.9-0.8c-0.4,0-0.7,0.3-0.9,0.6c-0.1,0.4-0.1,0.8-0.1,1.1c0.2,1.3,0.4,2.6,0.7,3.9c0.4,1.4,0.8,2.7,1.4,4&#10;&#9;&#9;c-1-2.7-2.1-5.3-3.1-7.9c-0.1-0.3-0.3-0.6-0.5-0.8c-0.5-0.3-1.2,0-1.4,0.5c0,0,0,0,0,0c-0.2,0.5-0.2,1.1-0.1,1.7&#10;&#9;&#9;c0.4,2.4,1.1,4.7,1.9,7l-1.5-4c-0.2-0.5-0.5-1.6-1.2-1.7s-1.2,0.6-1.4,1.1c-0.1,0.6-0.1,1.2,0.1,1.8c1.2,5.2,3.4,12.4,7,16.2"/>
	<path class="st2_family-1-49" d="M37.4,277.2c-0.2,0-0.3-0.1-0.4-0.2c-2.9-3.1-5.3-8.6-7.2-16.5c-0.2-0.7-0.3-1.4-0.1-2.2&#10;&#9;&#9;c0.3-0.9,1.1-1.5,2.1-1.5h0.1c0-0.2-0.1-0.4-0.1-0.6c-0.2-0.7-0.1-1.4,0.2-2.1c0.2-0.5,0.7-0.8,1.2-1c0.4-0.1,0.8-0.1,1.2,0.2&#10;&#9;&#9;c0.2,0.2,0.5,0.4,0.6,0.7c0-0.2,0.1-0.4,0.1-0.6c0.2-0.6,0.8-1,1.5-1c0.6,0.1,1.2,0.5,1.4,1.1c0.1,0.1,0.1,0.3,0.2,0.4&#10;&#9;&#9;c-0.1-0.8,0.2-1.7,0.7-2.3c0.4-0.3,0.9-0.3,1.3-0.1c1,0.4,1.4,1.7,1.6,2.5c0.2,0.6,0.3,1,0.5,1.5c0.1,0.3,0.2,0.6,0.3,0.9l0,0&#10;&#9;&#9;c0.5-0.4,1.1-0.5,1.7-0.2c0.9,0.4,1.5,1.1,1.9,2c0.4,0.8,0.7,1.6,1,2.4c0.9,2.7,2.2,8.9,0.6,13.2c-0.1,0.3-0.5,0.5-0.8,0.3&#10;&#9;&#9;c-0.3-0.1-0.4-0.4-0.4-0.7c1.3-3.7,0.3-9.5-0.7-12.5c-0.2-0.8-0.5-1.5-0.9-2.2c-0.3-0.6-0.8-1.1-1.4-1.4c-0.1,0-0.2,0-0.3,0&#10;&#9;&#9;c0,0-0.1,0.2-0.1,0.5c0.1,1.6,0.4,3.2,0.8,4.8c0.1,0.3-0.1,0.6-0.4,0.7c-0.3,0.1-0.6-0.1-0.8-0.4c-0.5-1.3-0.9-2.6-1.1-4&#10;&#9;&#9;c-0.2-1-0.5-2-0.8-3c-0.2-0.5-0.3-1-0.5-1.5c-0.2-0.7-0.5-1.6-0.9-1.8c-0.1,0-0.2-0.1-0.2,0s-0.4,0.5-0.1,3.1v0.3&#10;&#9;&#9;c0.2,1.7,0.5,3.4,1.1,5.1l0.1,0.3c0.1,0.3-0.1,0.7-0.4,0.8c-0.3,0.1-0.6-0.1-0.7-0.3l-0.1-0.3l-1.4-4c-0.2-0.5-0.3-0.9-0.4-1.3&#10;&#9;&#9;c-0.2-0.7-0.4-1.5-0.8-2.1c-0.2-0.4-0.4-0.5-0.4-0.5s-0.2,0.1-0.2,0.2c-0.1,0.3-0.1,0.6,0,0.9c0.1,1.2,0.4,2.4,0.6,3.6v0.2&#10;&#9;&#9;c0.1,0.3,0.2,0.6,0.2,1c0.4,1,0.8,1.9,1.1,2.9l0,0c0.1,0.3,0,0.7-0.4,0.8c-0.3,0.1-0.7,0-0.8-0.4l0,0c-0.1-0.4-0.3-0.8-0.4-1.1&#10;&#9;&#9;c-0.2-0.6-0.5-1.2-0.7-1.8c-0.1-0.2-0.2-0.5-0.3-0.7c-0.6-1.4-1.1-2.9-1.7-4.3c-0.1-0.2-0.2-0.4-0.3-0.5c-0.1,0-0.1,0-0.2,0&#10;&#9;&#9;c-0.2,0-0.3,0.2-0.4,0.3c-0.1,0.4-0.2,0.9,0,1.3c0.4,2.3,1.1,4.6,1.9,6.9c0.1,0.3-0.1,0.7-0.4,0.8c-0.3,0.1-0.7-0.1-0.8-0.4&#10;&#9;&#9;l-1.5-4.1c-0.3-0.8-0.5-1.1-0.7-1.2s-0.6,0.3-0.7,0.6c-0.1,0.5,0,1,0.1,1.5c1.8,7.7,4.1,13,6.9,15.9c0.2,0.2,0.2,0.6,0,0.9&#10;&#9;&#9;C37.7,277.2,37.6,277.2,37.4,277.2z"/>
	<path class="st1_family-1-49" d="M43.7,262.8c0,0-4-0.7-3.9,5.3"/>
	<path class="st2_family-1-49" d="M39.7,268.7c-0.3,0-0.6-0.3-0.6-0.6c0-2.4,0.6-4.1,1.7-5.1c0.8-0.7,1.9-1,2.9-0.8c0.3,0.1,0.5,0.5,0.4,0.8&#10;&#9;&#9;c-0.1,0.3-0.3,0.5-0.6,0.4l0,0c-0.7-0.1-1.4,0.1-1.9,0.6c-0.8,0.7-1.3,2.1-1.3,4.1C40.3,268.4,40.1,268.7,39.7,268.7&#10;&#9;&#9;C39.7,268.7,39.7,268.7,39.7,268.7z"/>
	<path class="st3_family-1-49 targetColor" d="M412.3,301.5c0,0,29.6-0.2,34.8,4.3s-1.2,44-1.2,44l-37.5-2.8C408.4,346.9,404.7,320.9,412.3,301.5z" style="fill: rgb(104, 225, 253);"/>
	<path class="st1_family-1-49" d="M340.5,125c-0.3-0.7-0.7-1.3-1.1-1.9c-2.9-4.2-3.9-2-8-3.3c-7-2.4-10.2-8.3-19-4.6&#10;&#9;&#9;c-8.2,3.5-13.5,9.2-14.7,18.3c-0.8,6.3,0.8,13-1.4,19c-2.5,7-9.6,11.4-12.8,18.2s-1.7,15,2.8,21s11.5,9.5,18.8,10.7&#10;&#9;&#9;s14.8,0.1,21.9-2.1c5.5-1.7,11-4.1,15-8.2c9.4-9.4,10.1-23.5,7.1-35.6l-4.2-17.1C343.9,134.9,342.7,129.3,340.5,125z"/>
	<path class="st2_family-1-49" d="M311.4,203.4c-2.1,0-4.3-0.1-6.4-0.4c-8-1.3-15-5.3-19.3-11c-4.8-6.4-6-14.9-2.8-21.6c1.5-3.3,3.9-6,6.2-8.6&#10;&#9;&#9;c2.7-3,5.2-5.9,6.5-9.5s1.2-7.3,1.1-11.2c-0.1-2.5,0-5.1,0.2-7.6c1.1-8.9,6.1-15,15.1-18.9c6.4-2.7,10-0.5,14,1.8&#10;&#9;&#9;c1.7,1.1,3.6,2,5.5,2.8c1,0.4,2.1,0.5,3.2,0.5c1.9,0,3.2,0.2,5.1,3.1c0.4,0.6,0.8,1.3,1.2,2l0,0c2,3.9,3.2,8.9,4.2,13l4.6,18.6&#10;&#9;&#9;c3.6,14.7,1,27.9-7.3,36.2c-3.6,3.6-8.5,6.3-15.3,8.4C322.1,202.5,316.8,203.3,311.4,203.4z M317.6,114.6c-1.7,0-3.4,0.4-4.9,1.1&#10;&#9;&#9;c-8.5,3.6-13.2,9.4-14.3,17.8c-0.2,2.5-0.3,4.9-0.2,7.4c0.1,3.9,0.1,8-1.2,11.7s-4.1,6.9-6.8,9.9c-2.3,2.6-4.6,5.2-6,8.3&#10;&#9;&#9;c-2.9,6.2-1.8,14.3,2.7,20.3c4.1,5.4,10.8,9.2,18.4,10.4c6.5,1,13.7,0.3,21.6-2.1c6.6-2,11.3-4.6,14.8-8c11.3-11.3,8.6-28.2,7-34.9&#10;&#9;&#9;l-4.6-18.7c-1-4.2-2.1-8.9-4.1-12.6l0,0c-0.3-0.6-0.7-1.3-1.1-1.8c-1.6-2.4-2.5-2.5-4-2.5c-1.2,0-2.5-0.2-3.6-0.6&#10;&#9;&#9;c-2-0.8-3.9-1.7-5.7-2.9C322.9,116,320.6,114.6,317.6,114.6L317.6,114.6z"/>
	<path class="st2_family-1-49" d="M322.4,387.9c0,0,2.3,15.8,1.8,16.6s-5.7,1-5.7,1V402c0,0-2.1,3.8-5.5,4.6s-21.3,1.2-21.1,0.1s4.9-1.8,17.1-9&#10;&#9;&#9;l1.3-15.4"/>
	<path class="st2_family-1-49" d="M299.4,408c-4,0-7.5-0.2-8.1-0.8c-0.2-0.2-0.3-0.4-0.3-0.7c0.1-0.9,1-1.2,3.3-2.2c4.8-2,9.4-4.4,13.8-7.1&#10;&#9;&#9;l1.2-15.1c0.1-0.4,0.4-0.6,0.8-0.6c0.3,0.1,0.6,0.3,0.6,0.7l-1.3,15.4c0,0.2-0.1,0.4-0.3,0.5c-4.6,2.8-9.3,5.3-14.2,7.4&#10;&#9;&#9;c-0.7,0.3-1.4,0.6-1.9,0.9c3.5,0.5,16.6,0.2,19.7-0.5s5-4.2,5.1-4.3c0.2-0.3,0.5-0.4,0.8-0.3c0.3,0.1,0.5,0.3,0.5,0.6v2.7&#10;&#9;&#9;c1.5,0,3-0.3,4.5-0.6c0.1-1.4-0.8-9.2-1.8-16.1c-0.1-0.4,0.2-0.7,0.6-0.8c0.4-0.1,0.7,0.2,0.8,0.6l0,0c2.4,16.1,1.8,16.8,1.6,17.1&#10;&#9;&#9;c-0.6,0.8-3.7,1.1-6.2,1.2c-0.2,0-0.4-0.1-0.5-0.2c-0.1-0.1-0.2-0.3-0.2-0.5v-1.3c-1.2,1.5-2.8,2.6-4.7,3.1&#10;&#9;&#9;C308.6,407.8,304,408,299.4,408z"/>
	<path class="st2_family-1-49" d="M340.3,387.7c0,0-0.2,15.9,0.4,16.7s5.7,0.9,5.7,0.9v-3.4c0,0,2.1,3.8,5.5,4.5s21.3,1.1,21.1-0.1&#10;&#9;&#9;s-5-1.7-17.2-8.9l-1.9-9"/>
	<path class="st2_family-1-49" d="M365.4,407.8c-4.6,0.1-9.1-0.2-13.6-0.7c-1.9-0.5-3.5-1.6-4.7-3.1v1.3c0,0.2-0.1,0.4-0.2,0.5&#10;&#9;&#9;c-0.1,0.1-0.3,0.2-0.5,0.2c-2.5-0.1-5.6-0.4-6.2-1.2c-0.5-0.6-0.7-6.4-0.5-17.1c0-0.4,0.3-0.7,0.7-0.7h0l0,0c0.4,0,0.7,0.3,0.7,0.7&#10;&#9;&#9;c0,0,0,0,0,0c-0.1,7.1,0,15,0.3,16.3c1.5,0.4,3,0.6,4.5,0.6v-2.7c0-0.4,0.3-0.7,0.7-0.7c0.3,0,0.5,0.1,0.6,0.4c0,0,2,3.5,5.1,4.2&#10;&#9;&#9;s16.3,0.9,19.8,0.4c-0.5-0.2-1.2-0.5-2-0.9c-4.9-2.1-9.7-4.5-14.3-7.3c-0.2-0.1-0.3-0.3-0.3-0.4l-1.9-9c-0.1-0.4,0.1-0.7,0.5-0.8&#10;&#9;&#9;c0,0,0,0,0,0c0.4-0.1,0.7,0.2,0.8,0.5l1.8,8.7c4.5,2.6,9.1,5,13.9,7c2.3,1,3.2,1.4,3.3,2.2c0,0.3-0.1,0.5-0.2,0.7&#10;&#9;&#9;C372.9,407.6,369.4,407.8,365.4,407.8z M341.3,404.1L341.3,404.1z"/>
	<path class="st1_family-1-49" d="M322.1,319.9l-21.5,0.1c3.2,28.9,7.6,58.6,8.7,68.5l13.1-0.6C322.4,387.9,322,350.2,322.1,319.9z"/>
	<path class="st2_family-1-49" d="M309.3,389.1c-0.3,0-0.6-0.2-0.6-0.5c-0.4-3.8-1.3-10.4-2.4-18.7c-1.8-13.5-4.3-31.8-6.3-49.8&#10;&#9;&#9;c0-0.2,0-0.3,0.1-0.5c0.1-0.1,0.3-0.2,0.5-0.2l21.5-0.1c0.2,0,0.3,0.1,0.4,0.2c0.1,0.1,0.2,0.3,0.2,0.4c-0.2,30,0.2,67.6,0.2,68&#10;&#9;&#9;c0,0.3-0.2,0.6-0.6,0.6c0,0,0,0,0,0L309.3,389.1L309.3,389.1z M301.3,320.6c2,17.7,4.4,35.8,6.2,49.1c1.1,8,1.9,14.3,2.4,18.2&#10;&#9;&#9;l11.9-0.6c0-4.9-0.4-39-0.2-66.8L301.3,320.6z"/>
	<path class="st1_family-1-49" d="M334.9,319.8c2.4,30.2,5.4,67.9,5.4,67.9l13.8,0.8c0,0,1.2-37.1,2.1-68.7L334.9,319.8z"/>
	<path class="st2_family-1-49" d="M354,389.1L354,389.1l-13.7-0.8c-0.3,0-0.6-0.3-0.6-0.6c0,0-3-37.7-5.4-67.9c0-0.2,0-0.3,0.2-0.5&#10;&#9;&#9;c0.1-0.1,0.3-0.2,0.5-0.2l21.2-0.1c0.2,0,0.3,0.1,0.4,0.2c0.1,0.1,0.2,0.3,0.2,0.5c-1,31.6-2.1,68.7-2.1,68.7&#10;&#9;&#9;c0,0.2-0.1,0.3-0.2,0.4C354.3,389.1,354.2,389.1,354,389.1z M340.8,387.1l12.6,0.7c0.2-5,1.2-38.4,2.1-67.4l-19.9,0.1&#10;&#9;&#9;C337.8,348.4,340.5,382.5,340.8,387.1L340.8,387.1z"/>
	<path class="st3_family-1-49 targetColor" d="M357.8,222.6c0.1-1.6,17.8-6.4,17.8-6.4c-7.3-23.1-8.6-32.1-18.5-43.5c-6-6.9-52.8-15.1-64.1,1.7&#10;&#9;&#9;c-10.2,15.2-17.9,42.7-17.9,42.7l18.8,8.1l3.5-9.4c-0.2,7.8,0.5,15.6,2,23.2c-3.7,40.5-7.3,106.7-7.9,121c0,0,11.3,4,40.7,3.9&#10;&#9;&#9;s43.9-4.3,43.9-4.3s-12.7-80.4-14-93s-8-29.2-8-29.2l3.1-24.1C357.1,213.4,353.2,208,357.8,222.6z" style="fill: rgb(104, 225, 253);"/>
	<path class="st1_family-1-49" d="M317.4,164.6l-0.4,8.9c0,0,1.5,6.8,10,5.9c7.8-0.8,9.1-5.6,9.1-5.6l1.2-24.8c0-0.6-0.2-4.4-0.3-9.4&#10;&#9;&#9;c-5.2,0.4-12.7-3.4-16.8-11.7c-2.5,4.4-5.5,7.3-12.9,10.2c0.2,8.4-1,17.6-0.4,20C308.4,165.1,317.4,164.6,317.4,164.6z"/>
	<path class="st2_family-1-49" d="M325.6,180.1c-7.6,0-9.1-6.4-9.1-6.4c0-0.1,0-0.1,0-0.2l0.3-8.2c-2.2-0.1-9.1-0.7-10.4-6.9&#10;&#9;&#9;c-0.3-1.2-0.1-4,0.1-7.7s0.4-8.1,0.3-12.4c0-0.3,0.1-0.5,0.4-0.6c7.4-2.9,10.2-5.8,12.5-9.9c0.1-0.2,0.3-0.3,0.6-0.3&#10;&#9;&#9;c0.2,0,0.4,0.1,0.5,0.3c3.8,7.8,11.2,11.7,16.2,11.3c0.2,0,0.3,0,0.5,0.2c0.1,0.1,0.2,0.3,0.2,0.4c0,2.1,0.1,5.4,0.3,9.2v0.1&#10;&#9;&#9;c0,0,0,0-1.2,24.8c0,0,0,0.1,0,0.1c-0.1,0.2-1.6,5.2-9.7,6C326.5,180,326,180.1,325.6,180.1z M317.7,173.4c0.2,0.7,1.9,6.1,9.3,5.3&#10;&#9;&#9;c6.8-0.7,8.4-4.5,8.6-5.1c0.1-1.6,1.2-24.5,1.2-24.7c-0.2-3.5-0.3-6.6-0.3-8.7h-0.1c-5.2,0-12.1-3.7-16.1-11&#10;&#9;&#9;c-2.4,3.8-5.4,6.6-12.2,9.4c0.1,4.1-0.1,8.5-0.3,12c-0.2,2.5-0.3,5-0.1,7.4c1.3,6.3,9.5,5.9,9.8,5.9c0.2,0,0.3,0.1,0.5,0.2&#10;&#9;&#9;c0.1,0.1,0.2,0.3,0.2,0.5L317.7,173.4z"/>
	<path class="st1_family-1-49" d="M320,143c0,0-4.7,7.1-3.5,8.3s4.2,0.4,4.2,0.4"/>
	<path class="st2_family-1-49" d="M318.6,152.6c-1,0.1-1.9-0.2-2.7-0.9c-1.3-1.4,1.6-6.3,3.5-9.1c0.2-0.3,0.7-0.3,1-0.1c0.2,0.2,0.3,0.5,0.2,0.8&#10;&#9;&#9;c-2.2,3.3-3.9,6.8-3.6,7.5c0.6,0.7,2.7,0.4,3.6,0.2c0.4-0.1,0.7,0.1,0.8,0.5c0.1,0.4-0.1,0.7-0.5,0.8l0,0&#10;&#9;&#9;C320.1,152.4,319.4,152.5,318.6,152.6z"/>
	
		<ellipse transform="matrix(3.420177e-02 -0.9994 0.9994 3.420177e-02 161.6865 452.0612)" class="st2_family-1-49" cx="314.7" cy="142.4" rx="1.5" ry="0.8"/>
	
		<ellipse transform="matrix(3.420177e-02 -0.9994 0.9994 3.420177e-02 172.0805 463.9279)" class="st2_family-1-49" cx="326.1" cy="142.9" rx="1.5" ry="0.8"/>
	<path class="st1_family-1-49" d="M313.9,156.3c0,0,8.2,6.7,13.1-2.9"/>
	<path class="st2_family-1-49" d="M319.9,159.2c-2.4-0.1-4.6-1-6.5-2.4c-0.3-0.2-0.4-0.7-0.1-1c0,0,0,0,0,0c0.2-0.3,0.7-0.3,1-0.1&#10;&#9;&#9;c0,0,3.4,2.7,6.9,2c2.1-0.4,3.8-2,5.2-4.7c0.2-0.3,0.6-0.5,0.9-0.3c0.3,0.2,0.4,0.6,0.3,0.9c-1.6,3-3.6,4.9-6.1,5.4&#10;&#9;&#9;C320.9,159.2,320.4,159.2,319.9,159.2z"/>
	<path class="st2_family-1-49" d="M317.4,164.6c0,0,7.7-0.8,10.8-4.2c-2.5,5-6.4,9.3-11.2,12.2L317.4,164.6z"/>
	<path class="st2_family-1-49" d="M317.1,173.3c-0.1,0-0.2,0-0.4-0.1c-0.2-0.1-0.3-0.4-0.3-0.6l0.3-8c0-0.3,0.3-0.6,0.6-0.6&#10;&#9;&#9;c0.1,0,7.5-0.8,10.4-4c0.2-0.3,0.7-0.3,0.9-0.1c0.2,0.2,0.3,0.5,0.2,0.8c-2.6,5.2-6.5,9.5-11.4,12.6&#10;&#9;&#9;C317.3,173.3,317.2,173.3,317.1,173.3z M318.1,165.2l-0.2,6.2c3.3-2.3,6.1-5.2,8.3-8.6C323.6,164,320.8,164.9,318.1,165.2&#10;&#9;&#9;L318.1,165.2z"/>
	<path class="st1_family-1-49" d="M333.2,144c0,0,3.5-5.1,6.4-3s3.6,6.5-4.9,11.4"/>
	<path class="st2_family-1-49" d="M334.7,153.2c-0.2,0-0.5-0.1-0.6-0.3c-0.2-0.3-0.1-0.7,0.2-0.9c0,0,0,0,0,0c5.2-3,6.4-5.5,6.5-7.1&#10;&#9;&#9;c0-1.3-0.6-2.5-1.7-3.2c-0.4-0.3-0.9-0.4-1.4-0.4c-1.6,0.3-3.4,2.4-4,3.2c-0.2,0.3-0.6,0.4-0.9,0.2c-0.3-0.2-0.4-0.6-0.2-0.9&#10;&#9;&#9;c0,0,0,0,0,0c0.1-0.1,2.3-3.3,4.9-3.7c0.9-0.2,1.8,0.1,2.5,0.6c1.5,1,2.3,2.7,2.3,4.5c-0.1,1.9-1.5,4.9-7.2,8.1&#10;&#9;&#9;C334.9,153.2,334.8,153.2,334.7,153.2z"/>
	<path class="st2_family-1-49" d="M181.1,198.3c-0.1,0-0.2,0-0.3-0.1l-8.1-4.7c-0.2-0.1-0.3-0.3-0.3-0.6v-14.4c0-0.4,0.3-0.7,0.6-0.7&#10;&#9;&#9;c0,0,0,0,0,0l14.4-0.1c0.4,0,0.7,0.3,0.7,0.7v14.4c0,0.2-0.1,0.4-0.3,0.5l-6.2,4.7C181.4,198.2,181.2,198.3,181.1,198.3z&#10;&#9;&#9; M173.7,192.6l7.4,4.3l5.6-4.2v-13.3h-13V192.6z M187.3,192.9L187.3,192.9z"/>
	<path class="st2_family-1-49" d="M194.9,248.1c-0.4,0-0.7-0.3-0.7-0.6c-1-29.9-2.9-86.8-3.1-88.1c0-0.4,0.3-0.7,0.7-0.7c0.3,0,0.6,0.2,0.7,0.5&#10;&#9;&#9;c0.2,1.1,2.8,79.3,3.1,88.3C195.6,247.7,195.3,248.1,194.9,248.1C194.9,248.1,194.9,248.1,194.9,248.1L194.9,248.1z"/>
	<path class="st2_family-1-49" d="M357.8,223.2c-0.3,0-0.5-0.2-0.6-0.5c-8.3-35.6-7.8-36.1-7.6-36.4c0.2-0.3,0.6-0.3,0.9-0.1c0,0,0,0,0,0&#10;&#9;&#9;c0.2,0.1,0.3,0.4,0.2,0.7c0,1.7,4.6,22.2,7.8,35.6c0.1,0.3-0.1,0.7-0.5,0.7L357.8,223.2z"/>
	<path class="st2_family-1-49" d="M226.1,237.4c-0.3,0-0.6-0.3-0.6-0.6c0,0,0,0,0,0c-0.1-2.3-1.9-55.8-1.9-57.3c0-0.3,0.2-0.7,0.5-0.7&#10;&#9;&#9;c0.3,0,0.7,0.2,0.7,0.5c0,0.1,0,0.1,0,0.2c0,1.5,1.9,56.7,1.9,57.2C226.7,237.1,226.5,237.4,226.1,237.4L226.1,237.4z"/>
	<path class="st1_family-1-49" d="M131,277.3c1,1.6,2.8,2.4,4.7,2c0.6-0.2,1.2-0.5,1.6-1c3.3-3.1,1.9-10.2-2.8-11.2&#10;&#9;&#9;C128.8,266.1,128.8,274,131,277.3z"/>
	<path class="st2_family-1-49" d="M134.7,280.1c-1.7-0.1-3.3-1-4.3-2.5l0,0c-1.6-2.4-2.1-6.9-0.4-9.4c1-1.5,2.8-2.1,4.6-1.6&#10;&#9;&#9;c2.3,0.6,4.2,2.4,4.7,4.7c0.9,2.6,0.2,5.5-1.6,7.5c-0.5,0.5-1.2,0.9-1.9,1.1C135.4,280.1,135.1,280.1,134.7,280.1z M133.4,267.7&#10;&#9;&#9;c-0.9,0-1.8,0.4-2.4,1.2c-1.4,2-0.9,6,0.4,8l0,0c0.8,1.4,2.4,2.1,4,1.8c0.5-0.2,1-0.5,1.4-0.8c1.5-1.7,2-4.1,1.3-6.2&#10;&#9;&#9;c-0.4-1.9-1.9-3.4-3.8-3.9C134.1,267.7,133.7,267.7,133.4,267.7L133.4,267.7z"/>
	<path class="st3_family-1-49 targetColor" d="M72.1,310.3c0,0-11.9,37.6-15.3,48.2c0,0,41.2,13.5,65.1,0.7l-13.6-53.2L72.1,310.3z" style="fill: rgb(104, 225, 253);"/>
	<path class="st2_family-1-49" d="M87.2,312.3c-4.5,0.1-8.9-0.6-13.2-2.1c-0.3-0.1-0.5-0.5-0.3-0.8s0.5-0.5,0.8-0.3l0,0&#10;&#9;&#9;c0.2,0.1,14.6,5.8,31.9-2.4c0.3-0.2,0.7-0.1,0.9,0.2c0.2,0.3,0.1,0.7-0.2,0.9c0,0-0.1,0.1-0.1,0.1C100.8,310.8,94,312.3,87.2,312.3&#10;&#9;&#9;z"/>
	<path class="st2_family-1-49" d="M333.6,242.8c-10.5-0.1-20.9-1.2-31.2-3.1c-0.3-0.1-0.6-0.4-0.5-0.7s0.4-0.6,0.7-0.5l0,0&#10;&#9;&#9;c0.3,0.1,34,6.5,49.5,0.5c0.3-0.1,0.7,0,0.8,0.4c0.1,0.3,0,0.7-0.4,0.8C347.4,242.1,340.6,242.8,333.6,242.8z"/>
	<path class="st2_family-1-49" d="M298.3,234.1c-0.3,0-0.6-0.2-0.6-0.5c-0.2-1.3-5.2-31.2,0.8-47.6c0.1-0.3,0.5-0.5,0.8-0.4&#10;&#9;&#9;c0.3,0.1,0.5,0.5,0.4,0.8c-5.9,16.1-0.8,46.7-0.8,47c0.1,0.3-0.2,0.7-0.5,0.7L298.3,234.1z"/>
	<path class="st1_family-1-49" d="M210,124.5c-0.3-0.5,0.6-13.4-0.7-23c-1.1-8.2-9.5-12.8-17-13.3c-6.1-0.4-12.2,1-17.5,4&#10;&#9;&#9;c-1.6,0.9-5.2,3.2-4.7,5.6c-0.2-0.8-1-1.3-1.9-1.2c-0.8,0.2-1.5,0.7-1.9,1.4c-0.8,1.5-1.1,3.1-1,4.8c0,2.8,0.9,4.8,1.4,7.4l1.4,7.1&#10;&#9;&#9;l1.3,6.6c0.1,0.7,0.1,2.2,0.5,2.8L210,124.5z"/>
	<path class="st2_family-1-49" d="M169.9,127.4c-0.2,0-0.4-0.1-0.6-0.3c-0.4-0.7-0.6-1.5-0.6-2.3c0-0.3-0.1-0.6-0.1-0.7l-2.7-13.8&#10;&#9;&#9;c-0.2-0.8-0.4-1.6-0.6-2.4c-0.5-1.7-0.8-3.4-0.8-5.1c-0.1-1.8,0.2-3.6,1.1-5.2c0.5-0.9,1.4-1.5,2.4-1.7c0.5-0.1,1,0,1.4,0.2&#10;&#9;&#9;c0.7-1.8,2.9-3.4,4.9-4.6c5.4-3.1,11.6-4.5,17.9-4.1c7.7,0.5,16.5,5.1,17.7,13.9c0.7,6.5,0.9,13,0.6,19.5c0,1.6-0.1,3.2,0,3.4&#10;&#9;&#9;c0.1,0.2,0.1,0.4,0,0.6c-0.1,0.2-0.4,0.3-0.6,0.3L169.9,127.4L169.9,127.4z M168.5,97.3h-0.1c-0.6,0.1-1.1,0.5-1.4,1.1&#10;&#9;&#9;c-0.7,1.4-1,2.9-0.9,4.4c0,1.6,0.3,3.2,0.8,4.8c0.2,0.8,0.4,1.6,0.6,2.5l2.7,13.8c0.1,0.3,0.1,0.6,0.1,0.9c0,0.5,0.1,0.9,0.2,1.3&#10;&#9;&#9;l38.9-2.2c0-0.6,0-1.5,0-3c0.2-6.4,0-12.9-0.6-19.3c-1-8-9.2-12.2-16.4-12.7c-6-0.4-11.9,1-17.1,3.9c-3,1.7-4.6,3.5-4.4,4.8l0,0&#10;&#9;&#9;c0.1,0.4-0.2,0.7-0.5,0.8c0,0,0,0,0,0c-0.4,0.1-0.7-0.2-0.8-0.5c0,0,0,0,0,0l0,0C169.3,97.5,168.9,97.3,168.5,97.3z"/>
	<path class="st1_family-1-49" d="M203,123.1c0.8-6.2,10.9-8,10.6-0.7c0,2.5-0.9,4.9-2.5,6.9c-1.7,1.9-4.4,2.6-6.8,1.8"/>
	<path class="st2_family-1-49" d="M206.3,132.1c-0.8,0-1.5-0.1-2.3-0.4c-0.4-0.1-0.6-0.5-0.4-0.9c0.1-0.4,0.5-0.6,0.9-0.4c0,0,0,0,0.1,0&#10;&#9;&#9;c2.1,0.7,4.5,0.1,6-1.6c1.5-1.8,2.3-4.1,2.3-6.4c0.1-2.3-1-3.8-3.1-4c-3-0.2-5.6,1.9-6.2,4.8c-0.1,0.4-0.4,0.6-0.8,0.6&#10;&#9;&#9;c-0.4-0.1-0.6-0.4-0.6-0.8c0.6-3.7,3.9-6.3,7.7-6c2.2,0.2,4.5,1.7,4.4,5.4c0,2.7-1,5.3-2.7,7.3&#10;&#9;&#9;C210.2,131.2,208.3,132.1,206.3,132.1z"/>
	<path class="st1_family-1-49" d="M177.6,123.8c-1.2-6.1-11.4-7.3-10.7-0.1c0.1,2.5,1.2,4.9,2.9,6.7c1.8,1.8,4.5,2.4,6.9,1.4"/>
	<path class="st2_family-1-49" d="M174.5,133c-1.9,0-3.7-0.8-5.1-2.1c-1.8-1.9-2.9-4.5-3.1-7.2c-0.4-3.7,1.9-5.3,4-5.7c3.7-0.5,7.2,1.9,8,5.6&#10;&#9;&#9;c0.1,0.4-0.2,0.7-0.5,0.8c0,0,0,0,0,0c-0.4,0.1-0.7-0.2-0.8-0.6c0,0,0,0,0,0c-0.7-2.9-3.5-4.8-6.4-4.4c-2.1,0.3-3.1,1.8-2.9,4.1&#10;&#9;&#9;c0.1,2.3,1.1,4.6,2.7,6.3c1.6,1.6,4,2.1,6.1,1.3c0.3-0.2,0.8,0,0.9,0.3c0.2,0.3,0,0.8-0.3,0.9C176.2,132.8,175.3,133,174.5,133z"/>
	<path class="st1_family-1-49" d="M180.1,151.7c0,0,3.4,8.6,10.3,8.4s10.9-6.9,10.9-6.9l-0.8-27.4l-21.1-0.5L180.1,151.7z"/>
	<path class="st2_family-1-49" d="M190.2,160.9c-7.2,0-10.6-8.5-10.7-8.9c0-0.1,0-0.2-0.1-0.2l-0.8-26.3c0-0.2,0.1-0.4,0.2-0.5&#10;&#9;&#9;c0.1-0.1,0.3-0.2,0.5-0.2l21.1,0.5c0.4,0,0.7,0.3,0.7,0.7l0.8,27.4c0,0.1,0,0.3-0.1,0.4c-0.2,0.3-4.2,7.1-11.4,7.3L190.2,160.9z&#10;&#9;&#9; M180.8,151.6c0.4,0.9,3.6,7.9,9.4,7.9h0.2c5.9-0.2,9.5-5.4,10.2-6.4l-0.8-26.5l-19.7-0.4L180.8,151.6z"/>
	<path class="st2_family-1-49" d="M180.4,137.8c0.2,1.1,3.3,10.1,20.8,10.9l-0.4-12.7c-2.9,0.6-8.1,4.3-11.3,4c-2.7,0-5.4-0.6-7.9-1.5&#10;&#9;&#9;C181.2,138.2,180.8,138,180.4,137.8z"/>
	<path class="st2_family-1-49" d="M201.2,149.3L201.2,149.3c-19.3-0.8-21.4-11.4-21.4-11.5c0-0.3,0.1-0.5,0.3-0.7c0.2-0.1,0.5-0.1,0.7,0&#10;&#9;&#9;c0.4,0.2,0.8,0.4,1.2,0.6c2.4,0.9,5,1.4,7.7,1.5c1.7,0.1,4.3-1.1,6.6-2.2c1.5-0.8,3-1.4,4.6-1.8c0.4-0.1,0.7,0.2,0.8,0.5&#10;&#9;&#9;c0,0,0,0.1,0,0.1l0.4,12.7c0,0.2-0.1,0.4-0.2,0.5C201.5,149.3,201.4,149.4,201.2,149.3z M181.6,139.2c1.4,2.7,5.9,8,18.8,8.8&#10;&#9;&#9;l-0.3-11.2c-1.2,0.4-2.3,0.9-3.5,1.5c-2.5,1.2-5.2,2.5-7.2,2.3C186.8,140.6,184.2,140.1,181.6,139.2z"/>
	<path class="st1_family-1-49" d="M189.5,142.2l1.6-0.1c7.8-0.2,13.9-6.7,13.7-14.5c0,0,0,0,0,0l-0.6-22.3c-4.7,2.1-9.6,3.4-14.7,3.8&#10;&#9;&#9;c-5.2,0.2-10.3-0.8-15-2.9l0.6,22.2C175.3,136.3,181.8,142.5,189.5,142.2z"/>
	<path class="st2_family-1-49" d="M204.2,105.5l0.6,22.3c0.2,7.8-5.9,14.2-13.6,14.5c0,0,0,0,0,0l-1.6,0.1h-0.4c-7.6,0-13.9-6-14.1-13.7&#10;&#9;&#9;l-0.6-22.2c4.2,1.9,8.8,2.9,13.4,2.9c0.5,0,1.1,0,1.6,0C194.6,108.9,199.5,107.6,204.2,105.5 M204.2,104.1c-0.2,0-0.4,0.1-0.6,0.1&#10;&#9;&#9;c-4.5,2-9.3,3.2-14.2,3.6c-0.5,0-1,0-1.5,0c-4.4-0.1-8.8-1-12.8-2.8c-0.2-0.1-0.4-0.1-0.6-0.1c-0.3,0-0.5,0.1-0.8,0.2&#10;&#9;&#9;c-0.4,0.3-0.7,0.7-0.6,1.2l0.6,22.2c0.2,8.4,7.1,15.1,15.5,15h0.4h1.6c8.5-0.3,15.2-7.4,15-15.9l-0.6-22.3c0-0.5-0.3-0.9-0.7-1.2&#10;&#9;&#9;C204.7,104.2,204.4,104.1,204.2,104.1L204.2,104.1z"/>
	<path class="st2_family-1-49" d="M189.7,128.6c-0.5,0-1,0-1.6-0.1c-0.4,0-0.7-0.3-0.9-0.6c-1.1-1.8,1.2-8.8,1.9-10.9c0.1-0.4,0.5-0.5,0.9-0.4&#10;&#9;&#9;c0,0,0,0,0,0c0.4,0.1,0.6,0.5,0.4,0.9c-1.6,4.6-2.6,9-2.1,9.7c1.3,0.1,2.5,0,3.8-0.2c0.4-0.1,0.7,0.2,0.8,0.6c0,0,0,0,0,0&#10;&#9;&#9;c0.1,0.4-0.2,0.7-0.6,0.8C191.5,128.6,190.6,128.6,189.7,128.6z"/>
	<path class="st2_family-1-49" d="M191,137.7c-2-0.1-4-0.6-5.8-1.5c-0.3-0.2-0.5-0.6-0.3-0.9c0.2-0.3,0.6-0.5,0.9-0.3c2.8,1.4,5.2,1.8,7.1,1.1&#10;&#9;&#9;c1.1-0.4,2-1.1,2.6-2.2c0.2-0.3,0.6-0.5,0.9-0.3c0.3,0.2,0.5,0.6,0.3,0.9c0,0,0,0,0,0c-0.7,1.3-1.9,2.4-3.4,2.9&#10;&#9;&#9;C192.7,137.6,191.8,137.7,191,137.7z"/>
	
		<ellipse transform="matrix(0.996 -8.963770e-02 8.963770e-02 0.996 -9.7134 18.0723)" class="st2_family-1-49" cx="196.4" cy="117.2" rx="0.9" ry="1.9"/>
	
		<ellipse transform="matrix(0.9955 -9.445582e-02 9.445582e-02 0.9955 -10.2362 17.8547)" class="st2_family-1-49" cx="183.5" cy="117.1" rx="0.9" ry="1.9"/>
	<path class="st2_family-1-49" d="M85.3,402.9v5.6c0,0-25,3.1-24.8,1.8s14.3-7.3,14.3-7.3L85.3,402.9z"/>
	<path class="st2_family-1-49" d="M63,411.3c-1.6,0-2.7-0.1-3-0.4c-0.2-0.2-0.2-0.4-0.2-0.7c0.2-1.1,5.1-3.8,14.7-7.9c0.1,0,0.2-0.1,0.3,0h10.5&#10;&#9;&#9;c0.4,0,0.7,0.3,0.7,0.7v5.6c0,0.3-0.2,0.6-0.6,0.7C77.2,410.2,67.7,411.3,63,411.3z M61.8,410c3.2,0.1,13.4-0.9,22.8-2v-4.3h-9.7&#10;&#9;&#9;C70.4,405.5,66,407.6,61.8,410z"/>
	<path class="st2_family-1-49" d="M162,238.7c-0.3,0-0.6-0.2-0.6-0.6l-4-62c0-0.3,0.2-0.6,0.6-0.7s0.6,0.2,0.7,0.6l4,62&#10;&#9;&#9;C162.6,238.4,162.4,238.7,162,238.7L162,238.7z"/>
	<path class="st1_family-1-49" d="M369.5,282.9c0.2,1.5,1.3,2.7,2.8,3c1.3,0,2.5-0.6,3.3-1.6c1.5-1.6,2.5-3.6,2.7-5.8c0.3-2.5-1.2-6.9-4.4-5&#10;&#9;&#9;C371.5,275.1,369.1,280.1,369.5,282.9z"/>
	<path class="st2_family-1-49" d="M372.6,286.6h-0.3c-1.8-0.3-3.2-1.7-3.4-3.5c-0.5-3,2-8.3,4.7-10c0.9-0.7,2.2-0.8,3.2-0.1&#10;&#9;&#9;c1.6,1,2.4,3.8,2.1,5.7c-0.3,2.3-1.3,4.5-2.9,6.1C375.2,285.8,373.9,286.5,372.6,286.6z M375.4,273.7c-0.4,0-0.8,0.2-1.1,0.4&#10;&#9;&#9;c-2.3,1.4-4.5,6.2-4.1,8.8l0,0c0.1,1.2,1,2.2,2.2,2.5c1.1,0,2.1-0.5,2.8-1.4c1.4-1.5,2.3-3.4,2.6-5.5c0.2-1.6-0.4-3.8-1.6-4.5&#10;&#9;&#9;C375.9,273.8,375.7,273.7,375.4,273.7z"/>
	<path class="st1_family-1-49" d="M423,300.9l-0.8,6.2c0,0,1.1,2.7,7.3,1s6.5-5.6,6.5-5.6l0.2-12.2c0-0.7-0.4-8-0.3-14.4&#10;&#9;&#9;c-7.5-0.1-20.6-1.1-21.8-0.7c-0.4,4.3-0.4,17.6,0.1,20.1C415.3,300.1,423,300.9,423,300.9z"/>
	<path class="st2_family-1-49" d="M425.9,309.3c-3.4,0-4.2-1.9-4.3-2c0-0.1,0-0.2,0-0.3l0.7-5.6c-1.9-0.3-7.7-1.7-8.6-6&#10;&#9;&#9;c-0.5-2.6-0.6-16-0.2-20.3c0-0.2,0.2-0.4,0.4-0.5c0.7-0.2,3.6-0.1,10.6,0.2c3.8,0.2,8.2,0.4,11.4,0.4c0.2,0,0.3,0.1,0.4,0.2&#10;&#9;&#9;c0.1,0.1,0.2,0.3,0.2,0.4c-0.1,5.5,0.1,11.8,0.2,14.2c0,0.1,0,0.1-0.1,12.4c0,0.2-0.5,4.3-7,6.2&#10;&#9;&#9;C428.4,309.1,427.2,309.3,425.9,309.3z M422.8,307c0.3,0.4,1.8,1.9,6.5,0.5c5.6-1.6,6-4.9,6.1-5.1s0.1-12,0.1-12.2&#10;&#9;&#9;c-0.1-2.5-0.3-8.4-0.3-13.8c-3.1-0.1-7.2-0.3-10.8-0.4c-4-0.2-8.4-0.4-9.8-0.3c-0.4,4.6-0.3,17,0.2,19.4c0.9,4.3,8.1,5.1,8.2,5.1&#10;&#9;&#9;c0.2,0,0.3,0.1,0.4,0.2c0.1,0.1,0.1,0.3,0.1,0.5L422.8,307z"/>
	<path class="st1_family-1-49" d="M423.4,288c-0.8,1.4-1.6,3.1-1.2,3.6c0.8,0.8,2.9,0.3,2.9,0.3"/>
	<path class="st2_family-1-49" d="M423.8,292.7c-0.7,0.1-1.5-0.2-2-0.7c-0.4-0.5-0.6-1.4,1.1-4.4c0.1-0.3,0.5-0.5,0.9-0.4&#10;&#9;&#9;c0.3,0.1,0.5,0.5,0.4,0.9c0,0,0,0.1-0.1,0.1c-1.3,2.3-1.2,2.9-1.2,2.9c0.7,0.2,1.5,0.2,2.2,0c0.4-0.1,0.7,0.1,0.8,0.5c0,0,0,0,0,0&#10;&#9;&#9;c0.1,0.4-0.1,0.7-0.5,0.8C424.9,292.7,424.3,292.7,423.8,292.7z"/>
	<path class="st2_family-1-49" d="M423.9,296.1h-0.3c-3-0.2-5-2.9-5.1-3c-0.2-0.3-0.1-0.7,0.2-0.9c0.3-0.2,0.7-0.2,0.9,0.1c0,0,0,0,0,0&#10;&#9;&#9;c0,0,1.7,2.3,4.1,2.5c1.4,0.1,2.8-0.6,4.1-2.1c0.3-0.2,0.7-0.2,1,0.1c0.2,0.2,0.2,0.6,0,0.9C427.6,295.1,425.8,296,423.9,296.1z"/>
	<path class="st2_family-1-49" d="M423,300.9c0,0,5,0,6.9-1.7c0,0-1.7,3.4-7,6.6L423,300.9z"/>
	<path class="st2_family-1-49" d="M422.8,306.5c-0.1,0-0.2,0-0.4-0.1c-0.2-0.1-0.3-0.4-0.3-0.6l0.2-4.9c0-0.4,0.3-0.7,0.7-0.6h0.1&#10;&#9;&#9;c1.4,0,5-0.3,6.3-1.5c0.2-0.2,0.6-0.2,0.9,0c0.3,0.2,0.3,0.5,0.2,0.8c-0.1,0.1-1.9,3.6-7.3,6.9C423,306.5,422.9,306.5,422.8,306.5z&#10;&#9;&#9; M423.6,301.6l-0.1,3c1.5-1,3-2.2,4.2-3.6C426.4,301.4,425,301.6,423.6,301.6z"/>
	
		<ellipse transform="matrix(1 -3.316120e-03 3.316120e-03 1 -0.9421 1.3935)" class="st2_family-1-49" cx="419.8" cy="284.8" rx="0.7" ry="1.7"/>
	<ellipse transform="matrix(1 -3.316120e-03 3.316120e-03 1 -0.942 1.4194)" class="st2_family-1-49" cx="427.6" cy="284.8" rx="0.7" ry="1.7"/>
	<path class="st1_family-1-49" d="M436.7,286.5c0,0-4-2-6.9-9c0,0-9.7,3.2-16,5c0,0-7.3-6.5-3.2-11.5s21.6-8.8,27.6-1.3s0.6,19.4,0.6,19.4&#10;&#9;&#9;L436.7,286.5z"/>
	<path class="st2_family-1-49" d="M438.9,289.7c-0.2,0-0.4-0.1-0.5-0.2l-2.2-2.5c-0.7-0.4-4.2-2.6-6.9-8.7c-2.1,0.7-10.1,3.3-15.4,4.8&#10;&#9;&#9;c-0.2,0.1-0.4,0-0.6-0.1c-2.7-2.4-6.8-8-3.2-12.4c2.7-3.3,10.1-5.8,16.9-5.8c3.7,0,8.8,0.8,11.7,4.5c6.2,7.8,0.9,19.6,0.7,20&#10;&#9;&#9;C439.4,289.5,439.2,289.6,438.9,289.7L438.9,289.7z M429.8,276.9c0.3,0,0.5,0.1,0.6,0.4c2.7,6.7,6.5,8.7,6.6,8.7&#10;&#9;&#9;c0.1,0,0.1,0.1,0.2,0.1l1.6,1.8c1.1-2.9,3.9-11.9-0.9-17.9c-2.1-2.6-5.9-4-10.8-4c-6.3,0-13.5,2.4-15.9,5.3&#10;&#9;&#9;c-3.3,4,1.7,9.3,2.9,10.5c6.2-1.8,15.5-4.8,15.6-4.9C429.6,276.9,429.7,276.9,429.8,276.9L429.8,276.9z"/>
	<path class="st1_family-1-49" d="M433.5,285.2c0,0,2.8-4.4,5.9-1.2s0.1,7.7-4.2,8.6"/>
	<path class="st2_family-1-49" d="M435.2,293.3c-0.3,0-0.6-0.3-0.6-0.6c0-0.3,0.2-0.5,0.5-0.6c2.2-0.4,4.1-1.9,4.9-3.9c0.4-1.3,0-2.7-1-3.6&#10;&#9;&#9;c-0.5-0.7-1.3-1-2.2-1c-1.5,0.2-2.8,2-2.8,2c-0.2,0.3-0.6,0.4-0.8,0.2c0,0,0,0,0,0c-0.3-0.2-0.4-0.6-0.2-0.8c0,0,0,0,0,0&#10;&#9;&#9;c0.1-0.1,1.5-2.4,3.7-2.6c1.2-0.1,2.4,0.4,3.2,1.4c1.3,1.2,1.8,3.1,1.2,4.9c-0.9,2.5-3.1,4.3-5.8,4.8L435.2,293.3z"/>
	<path class="st3_family-1-49 targetColor" d="M447.1,305.8c0,0,19.1,19.4,21.1,38.4l-9.5,4.9l-19.3-29.4L447.1,305.8z" style="fill: rgb(104, 225, 253);"/>
	<path class="st2_family-1-49" d="M456.8,346.9c-0.2,0-0.4-0.1-0.5-0.3l-16-24.3c-0.2-0.3-0.1-0.7,0.2-0.9c0,0,0,0,0,0c0.3-0.2,0.7-0.1,0.9,0.2&#10;&#9;&#9;l16,24.3c0.2,0.3,0.1,0.7-0.2,0.8c0,0,0,0,0,0C457,346.9,456.9,346.9,456.8,346.9z"/>
</g>
</svg>