<svg version="1.1" id="Layer_1" xmlns="http://www.w3.org/2000/svg" xmlns:xlink="http://www.w3.org/1999/xlink" x="0px" y="0px" viewBox="0 0 500 500" style="width: 166px;" xml:space="preserve" data-imageid="money-12" imageName="Money" class="illustrations_image">
<style type="text/css">
	.st0_money-12{fill:#68E1FD;}
	.st1_money-12{fill:#093F68;}
	.st2_money-12{fill:#FFFFFF;}
</style>
<g id="bank-note-2_money-12">
	<polygon class="st0_money-12 targetColor" points="64.2,307.4 64.2,194.5 150.2,244.2 150.2,357.1 &#9;" style="fill: rgb(104, 225, 253);"/>
	<path class="st1_money-12" d="M150.2,358.9c-0.3,0-0.6-0.1-0.9-0.2L63.3,309c-0.6-0.3-0.9-0.9-0.9-1.6V194.5c0-1,0.8-1.8,1.9-1.8&#10;&#9;&#9;c0.3,0,0.6,0.1,0.9,0.2l86.1,49.7c0.6,0.3,0.9,0.9,0.9,1.6v112.9c0,0.7-0.3,1.3-0.9,1.6C150.9,358.8,150.6,358.9,150.2,358.9z&#10;&#9;&#9; M66,306.3l82.4,47.6V245.2L66,197.6V306.3z"/>
	<polygon class="st1_money-12" points="150.3,357.1 150.3,244.2 336.4,136.6 336.4,249.6 &#9;"/>
	<path class="st1_money-12" d="M150.3,358.9c-0.3,0-0.6-0.1-0.9-0.2c-0.6-0.3-0.9-0.9-0.9-1.6V244.2c0-0.7,0.3-1.3,0.9-1.6l186.1-107.5&#10;&#9;&#9;c0.9-0.5,2-0.2,2.5,0.7c0.2,0.3,0.2,0.6,0.2,0.9v112.9c0,0.7-0.3,1.3-0.9,1.6L151.2,358.7C150.9,358.8,150.6,358.9,150.3,358.9z&#10;&#9;&#9; M152.1,245.2v108.7l182.5-105.4V139.8L152.1,245.2z"/>
	<path class="st1_money-12" d="M150.2,259.3c-0.3,0-0.6-0.1-0.9-0.2l-86.1-49.7c-0.9-0.5-1.2-1.6-0.7-2.5c0.5-0.9,1.6-1.2,2.5-0.7l85.1,49.2&#10;&#9;&#9;l185.2-106.9c0.9-0.5,2-0.2,2.5,0.7c0.5,0.9,0.2,2-0.7,2.5l0,0L151.2,259C150.9,259.2,150.6,259.3,150.2,259.3z"/>
	<path class="st1_money-12" d="M150.2,276.2c-0.3,0-0.6-0.1-0.9-0.2l-86.1-49.7c-0.9-0.5-1.2-1.6-0.7-2.5c0.5-0.9,1.6-1.2,2.5-0.7l85.1,49.2&#10;&#9;&#9;l185.2-106.9c0.9-0.5,2-0.2,2.5,0.7c0.5,0.9,0.2,2-0.7,2.5L151.2,276C150.9,276.2,150.6,276.2,150.2,276.2z"/>
	<path class="st1_money-12" d="M150.2,293.2c-0.3,0-0.6-0.1-0.9-0.2l-86.1-49.7c-0.9-0.5-1.2-1.6-0.7-2.5c0.5-0.9,1.6-1.2,2.5-0.7l85.1,49.2&#10;&#9;&#9;l185.2-106.9c0.9-0.5,2-0.2,2.5,0.7c0.5,0.9,0.2,2-0.7,2.5L151.2,292.9C150.9,293.1,150.6,293.2,150.2,293.2z"/>
	<path class="st1_money-12" d="M150.2,310.1c-0.3,0-0.6-0.1-0.9-0.2l-86.1-49.7c-0.9-0.5-1.2-1.6-0.7-2.5c0.5-0.9,1.6-1.2,2.5-0.7l85.1,49.2&#10;&#9;&#9;l185.2-106.9c0.9-0.5,2-0.2,2.5,0.7c0.5,0.9,0.2,2-0.7,2.5L151.2,309.9C150.9,310,150.6,310.1,150.2,310.1z"/>
	<path class="st1_money-12" d="M150.2,327c-0.3,0-0.6-0.1-0.9-0.2l-86.1-49.6c-0.9-0.5-1.2-1.6-0.7-2.5c0.5-0.9,1.6-1.2,2.5-0.7l85.1,49.2&#10;&#9;&#9;l185.2-106.9c0.9-0.5,2-0.2,2.5,0.7c0.5,0.9,0.2,2-0.7,2.5L151.2,326.8C150.9,326.9,150.6,327,150.2,327z"/>
	<path class="st1_money-12" d="M150.2,344c-0.3,0-0.6-0.1-0.9-0.2L63.3,294c-0.9-0.5-1.2-1.6-0.7-2.5c0.5-0.9,1.6-1.2,2.5-0.7l85.1,49.2&#10;&#9;&#9;l185.2-106.9c0.9-0.5,2-0.2,2.5,0.7c0.5,0.9,0.2,2-0.7,2.5L151.2,343.7C150.9,343.9,150.6,344,150.2,344z"/>
	<polygon class="st2_money-12" points="260.6,292.9 224,313.9 224,201.7 260.6,180.6 &#9;"/>
	<path class="st1_money-12" d="M224,315.8c-0.3,0-0.6-0.1-0.9-0.2c-0.6-0.3-0.9-0.9-0.9-1.6V201.7c0-0.7,0.4-1.3,0.9-1.6l36.6-21.1&#10;&#9;&#9;c0.6-0.3,1.3-0.3,1.8,0c0.6,0.3,0.9,0.9,0.9,1.6v112.3c0,0.7-0.4,1.3-0.9,1.6L225,315.5C224.7,315.7,224.4,315.8,224,315.8z&#10;&#9;&#9; M225.8,202.8v108l32.9-19v-108L225.8,202.8z M260.5,292.9L260.5,292.9z"/>
	<polygon class="st0_money-12 targetColor" points="64.2,194.5 250.3,87 336.4,136.7 150.2,244.2 &#9;" style="fill: rgb(104, 225, 253);"/>
	<path class="st1_money-12" d="M150.2,246c-0.3,0-0.6-0.1-0.9-0.2l-86.1-49.7c-0.9-0.5-1.2-1.6-0.7-2.5c0.2-0.3,0.4-0.5,0.7-0.7L249.4,85.4&#10;&#9;&#9;c0.6-0.3,1.3-0.3,1.8,0l86,49.7c0.9,0.5,1.2,1.6,0.7,2.5c-0.2,0.3-0.4,0.5-0.7,0.7L151.2,245.8C150.9,245.9,150.6,246,150.2,246z&#10;&#9;&#9; M67.8,194.5l82.4,47.6l182.5-105.3l-82.4-47.6L67.8,194.5z"/>
	<path class="st0_money-12 targetColor" d="M137.1,222.4l-36.3-21l0.5-0.3c8.1-4.7,8.3-12.2,0.4-17l129.7-74.9c8.3,4.5,21.4,4.4,29.5-0.2l0.5-0.3l36.3,21&#10;&#9;&#9;c-0.2,0.1-0.3,0.2-0.5,0.3c-8.1,4.7-8.3,12.2-0.4,17l-129.7,74.8c-8.3-4.5-21.4-4.4-29.5,0.2C137.5,222.2,137.3,222.3,137.1,222.4z&#10;&#9;&#9;" style="fill: rgb(104, 225, 253);"/>
	<path class="st1_money-12" d="M137.1,224.3c-0.3,0-0.6-0.1-0.9-0.2l-36.3-21c-0.9-0.5-1.2-1.6-0.7-2.5c0.2-0.3,0.5-0.6,0.8-0.7&#10;&#9;&#9;c0.1-0.1,0.3-0.1,0.4-0.2c3.4-2,5.3-4.4,5.3-7s-1.7-5-4.9-6.9c-0.9-0.5-1.2-1.6-0.6-2.5c0.2-0.3,0.4-0.5,0.6-0.6l129.7-74.8&#10;&#9;&#9;c0.6-0.3,1.2-0.3,1.8,0c7.8,4.2,20.2,4.1,27.7-0.2l0.4-0.2c0.6-0.4,1.3-0.4,2-0.1l36.3,21c0.6,0.3,0.9,1,0.9,1.7&#10;&#9;&#9;c0,0.7-0.4,1.3-1,1.6c-0.1,0.1-0.3,0.1-0.4,0.2c-3.4,1.9-5.3,4.4-5.3,7s1.7,4.9,4.9,6.9c0.9,0.5,1.2,1.6,0.6,2.5&#10;&#9;&#9;c-0.2,0.3-0.4,0.5-0.6,0.6L168,223.5c-0.6,0.3-1.2,0.3-1.8,0c-7.8-4.2-20.2-4.1-27.7,0.2l-0.4,0.2&#10;&#9;&#9;C137.8,224.1,137.5,224.2,137.1,224.3z M104.3,201.4l32.8,18.9c8.4-4.6,21.2-4.8,29.9-0.5l126.4-72.9c-2.8-2.4-4.3-5.3-4.2-8.3&#10;&#9;&#9;c0-3.2,1.8-6.3,5-8.7l-32.8-18.9c-8.4,4.6-21.2,4.8-30,0.5l-126.3,72.9c2.8,2.4,4.3,5.3,4.2,8.3C109.3,195.9,107.6,199,104.3,201.4&#10;&#9;&#9;z"/>
	<polygon class="st2_money-12" points="138,151.9 174.5,130.8 260.6,180.5 224,201.6 &#9;"/>
	<path class="st1_money-12" d="M224,203.4c-0.3,0-0.6-0.1-0.9-0.2L137,153.5c-0.9-0.5-1.2-1.6-0.7-2.5c0.2-0.3,0.4-0.5,0.7-0.7l36.5-21.1&#10;&#9;&#9;c0.6-0.3,1.3-0.3,1.8,0l86.1,49.7c0.9,0.5,1.2,1.6,0.7,2.5c-0.2,0.3-0.4,0.5-0.7,0.7L225,203.1C224.7,203.3,224.4,203.4,224,203.4z&#10;&#9;&#9; M141.6,151.9l82.4,47.6l32.9-19l-82.4-47.6L141.6,151.9z"/>
</g>
<g id="bank-note-1_money-12">
	<polygon class="st0_money-12 targetColor" points="163.6,363.3 163.6,250.4 249.7,300 249.7,413 &#9;" style="fill: rgb(104, 225, 253);"/>
	<path class="st1_money-12" d="M249.7,414.8c-0.3,0-0.6-0.1-0.9-0.2l-86.1-49.7c-0.6-0.3-0.9-0.9-0.9-1.6V250.4c0-0.7,0.3-1.3,0.9-1.6&#10;&#9;&#9;c0.6-0.3,1.3-0.3,1.8,0l86.1,49.7c0.6,0.3,0.9,0.9,0.9,1.6v113C251.5,414,250.7,414.8,249.7,414.8&#10;&#9;&#9;C249.7,414.8,249.7,414.8,249.7,414.8L249.7,414.8z M165.5,362.2l82.4,47.6V301.1l-82.4-47.6V362.2z"/>
	<polygon class="st0_money-12 targetColor" points="249.7,413 249.7,300.1 435.8,192.5 435.8,305.4 &#9;" style="fill: rgb(104, 225, 253);"/>
	<path class="st1_money-12" d="M249.7,414.8c-0.3,0-0.6-0.1-0.9-0.2c-0.6-0.3-0.9-0.9-0.9-1.6V300.1c0-0.7,0.3-1.3,0.9-1.6L434.9,191&#10;&#9;&#9;c0.9-0.5,2-0.2,2.5,0.7c0.2,0.3,0.2,0.6,0.2,0.9v112.9c0,0.7-0.4,1.3-0.9,1.6L250.6,414.6C250.3,414.7,250,414.8,249.7,414.8z&#10;&#9;&#9; M251.5,301.1v108.7L434,304.4V195.7L251.5,301.1z"/>
	<path class="st1_money-12" d="M249.7,315.2c-0.3,0-0.6-0.1-0.9-0.2l-86.1-49.7c-0.9-0.5-1.2-1.6-0.7-2.5c0.5-0.9,1.6-1.2,2.5-0.7l85.1,49.2&#10;&#9;&#9;l185.2-106.9c0.9-0.5,2-0.2,2.5,0.7c0.5,0.9,0.2,2-0.7,2.5l0,0L250.6,314.9C250.3,315.1,250,315.2,249.7,315.2z"/>
	<path class="st1_money-12" d="M249.7,332.1c-0.3,0-0.6-0.1-0.9-0.2l-86.1-49.7c-0.9-0.5-1.2-1.6-0.7-2.5c0.5-0.9,1.6-1.2,2.5-0.7l85.1,49.1&#10;&#9;&#9;l185.2-106.9c0.9-0.5,2-0.2,2.5,0.7c0.5,0.9,0.2,2-0.7,2.5L250.6,331.9C250.3,332,250,332.1,249.7,332.1z"/>
	<path class="st1_money-12" d="M249.7,349c-0.3,0-0.6-0.1-0.9-0.2l-86.1-49.7c-0.9-0.5-1.2-1.6-0.7-2.5c0.5-0.9,1.6-1.2,2.5-0.7l85.1,49.2&#10;&#9;&#9;l185.2-106.9c0.9-0.5,2-0.2,2.5,0.7c0.5,0.9,0.2,2-0.7,2.5c0,0,0,0,0,0L250.6,348.8C250.3,349,250,349.1,249.7,349z"/>
	<path class="st1_money-12" d="M249.7,366c-0.3,0-0.6-0.1-0.9-0.2l-86.1-49.7c-0.9-0.5-1.2-1.6-0.7-2.5c0.5-0.9,1.6-1.2,2.5-0.7l0,0&#10;&#9;&#9;l85.1,49.1l185.2-106.9c0.9-0.5,2-0.2,2.5,0.7s0.2,2-0.7,2.5L250.6,365.7C250.3,365.9,250,366,249.7,366z"/>
	<path class="st1_money-12" d="M249.7,382.9c-0.3,0-0.6-0.1-0.9-0.2L162.7,333c-0.9-0.5-1.2-1.6-0.7-2.5c0.5-0.9,1.6-1.2,2.5-0.7l85.1,49.2&#10;&#9;&#9;l185.2-107c0.9-0.5,2-0.2,2.5,0.7c0.5,0.9,0.2,2-0.7,2.5c0,0,0,0,0,0L250.6,382.7C250.3,382.8,250,382.9,249.7,382.9z"/>
	<path class="st1_money-12" d="M249.7,399.9c-0.3,0-0.6-0.1-0.9-0.2l-86.1-49.7c-0.9-0.5-1.2-1.6-0.7-2.5c0.5-0.9,1.6-1.2,2.5-0.7l0,0&#10;&#9;&#9;l85.1,49.2L434.9,289c0.9-0.5,2-0.2,2.5,0.7s0.2,2-0.7,2.5l0,0L250.6,399.6C250.3,399.8,250,399.9,249.7,399.9z"/>
	<polygon class="st2_money-12" points="360,348.7 323.5,369.8 323.5,257.6 360,236.5 &#9;"/>
	<path class="st1_money-12" d="M323.5,371.6c-0.3,0-0.6-0.1-0.9-0.2c-0.6-0.3-0.9-0.9-0.9-1.6V257.6c0-0.7,0.3-1.3,0.9-1.6l36.5-21.1&#10;&#9;&#9;c0.9-0.5,2-0.2,2.5,0.7c0.2,0.3,0.2,0.6,0.2,0.9v112.2c0,0.7-0.3,1.3-0.9,1.6l-36.5,21.1C324.1,371.6,323.8,371.7,323.5,371.6z&#10;&#9;&#9; M325.3,258.6v108l32.9-19v-108L325.3,258.6z M360,348.7L360,348.7z"/>
	<polygon class="st0_money-12 targetColor" points="163.6,250.4 349.8,142.9 435.8,192.6 249.7,300 &#9;" style="fill: rgb(104, 225, 253);"/>
	<path class="st1_money-12" d="M249.7,301.9c-0.3,0-0.6-0.1-0.9-0.2L162.7,252c-0.9-0.5-1.2-1.6-0.7-2.5c0.2-0.3,0.4-0.5,0.7-0.7l186.1-107.5&#10;&#9;&#9;c0.6-0.3,1.3-0.3,1.8,0l86.1,49.7c0.9,0.5,1.2,1.6,0.7,2.5c-0.2,0.3-0.4,0.5-0.7,0.7L250.6,301.6&#10;&#9;&#9;C250.3,301.8,250,301.9,249.7,301.9z M167.3,250.4l82.4,47.6l182.5-105.4L349.8,145L167.3,250.4z"/>
	<path class="st0_money-12 targetColor" d="M236.6,278.3l-36.3-21l0.5-0.3c8.1-4.7,8.3-12.2,0.4-17l129.6-74.9c8.3,4.5,21.4,4.4,29.5-0.3&#10;&#9;&#9;c0.2-0.1,0.3-0.2,0.5-0.3l36.3,21l-0.5,0.3c-8.1,4.7-8.3,12.2-0.4,17l-129.6,74.9c-8.3-4.5-21.4-4.5-29.5,0.2L236.6,278.3z" style="fill: rgb(104, 225, 253);"/>
	<path class="st1_money-12" d="M236.6,280.1c-0.3,0-0.6-0.1-0.9-0.2l-36.3-21c-0.6-0.3-0.9-1-0.9-1.6c0-0.7,0.4-1.3,1-1.6l0.4-0.2&#10;&#9;&#9;c3.4-2,5.3-4.4,5.3-7s-1.7-4.9-4.9-6.9c-0.9-0.5-1.2-1.6-0.6-2.5c0.2-0.3,0.4-0.5,0.6-0.6L330,163.6c0.6-0.3,1.2-0.3,1.8,0&#10;&#9;&#9;c7.8,4.2,20.2,4.1,27.7-0.2l0.4-0.2c0.6-0.4,1.3-0.4,2-0.1l36.3,21c0.9,0.5,1.2,1.6,0.7,2.5c-0.2,0.3-0.5,0.6-0.8,0.7l-0.4,0.2&#10;&#9;&#9;c-3.4,2-5.3,4.5-5.3,7s1.7,4.9,4.9,6.9c0.6,0.3,0.9,0.9,0.9,1.6c0,0.6-0.4,1.2-0.9,1.6l-129.7,74.8c-0.6,0.3-1.2,0.3-1.8,0&#10;&#9;&#9;c-7.7-4.2-20.2-4.1-27.7,0.2c-0.2,0.1-0.3,0.1-0.4,0.2C237.3,280,237,280.1,236.6,280.1z M203.8,257.3l32.8,18.9&#10;&#9;&#9;c8.4-4.6,21.2-4.8,29.9-0.5l126.3-72.9c-2.8-2.4-4.3-5.3-4.2-8.3c0-3.2,1.8-6.3,5-8.7l-32.8-18.9c-8.4,4.6-21.2,4.8-30,0.5&#10;&#9;&#9;l-126.3,72.9c2.8,2.4,4.3,5.3,4.2,8.3C208.8,251.8,207,254.8,203.8,257.3z"/>
	<polygon class="st2_money-12" points="237.4,207.8 274,186.7 360,236.4 323.5,257.4 &#9;"/>
	<path class="st1_money-12" d="M323.5,259.3c-0.3,0-0.6-0.1-0.9-0.2l-86-49.7c-0.9-0.5-1.2-1.6-0.7-2.5c0.2-0.3,0.4-0.5,0.7-0.7l36.4-21.1&#10;&#9;&#9;c0.6-0.3,1.3-0.3,1.8,0l86.1,49.7c0.9,0.5,1.2,1.6,0.7,2.5c-0.2,0.3-0.4,0.5-0.7,0.7L324.4,259&#10;&#9;&#9;C324.1,259.2,323.8,259.3,323.5,259.3z M241.1,207.8l82.4,47.6l32.9-19L274,188.8L241.1,207.8z"/>
</g>
</svg>