<svg version="1.1" id="Layer_1" xmlns="http://www.w3.org/2000/svg" xmlns:xlink="http://www.w3.org/1999/xlink" x="0px" y="0px" viewBox="0 0 500 500" style="width: 166px;" xml:space="preserve" data-imageid="seo-1-13" imageName="SEO 1" class="illustrations_image">
<style type="text/css">
	.st0_seo-1-13{fill:#F56132;}
	.st1_seo-1-13{fill:#093F68;}
	.st2_seo-1-13{fill:#70CC40;}
	.st3_seo-1-13{fill:#68E1FD;}
	.st4_seo-1-13{fill:#FFFFFF;}
	.st5_seo-1-13{fill:#DFEAEF;}
	.st6_seo-1-13{fill:#FFBC0E;}
</style>
<g id="gears_seo-1-13">
	<path class="st0_seo-1-13" d="M154.4,289.3c1.1-2.8,0.3-5.9-2.1-7.7c-2-1.5-4.1-2.9-6.2-4.3c-0.6-0.3-1-1-0.8-1.7c0.1-2.1,0.2-4.2,0.2-6.4&#10;&#9;&#9;c-0.1-0.5,0.2-1.1,0.7-1.3c2.2-1.2,4.5-2.5,6.6-3.9c2.5-1.6,3.7-4.7,2.8-7.5c-1-3.2-2.3-6.4-3.5-9.5c-1.1-3.5-4.7-5.6-8.3-4.7&#10;&#9;&#9;c-2.2,0.4-4.5,0.8-6.7,1.3c-0.5,0.2-1.1,0-1.4-0.5c-1.5-1.7-3.1-3.4-4.7-5c-0.4-0.3-0.6-0.9-0.4-1.4c0.6-2.2,1.2-4.4,1.8-6.7&#10;&#9;&#9;c0.9-3.2-0.5-6.6-3.5-8.1c-3.2-1.5-6.4-3-9.6-4.4c-2.8-1.2-6.1-0.4-8,2.1c-1.6,2.1-3,4.3-4.4,6.4c-0.3,0.5-0.8,0.7-1.3,0.7&#10;&#9;&#9;c-2.2-0.1-4.4-0.2-6.6-0.2c-0.5,0.1-1-0.2-1.2-0.7c-1.2-2.2-2.4-4.4-3.8-6.5c-1.6-2.6-4.7-3.7-7.5-2.9c-3.4,1.1-6.8,2.4-10.2,3.7&#10;&#9;&#9;s-4.8,4.4-4.1,8c0.4,2.4,0.9,4.7,1.3,7c0,0.4-0.1,0.7-0.3,1c-1.7,1.7-3.4,3.3-5.1,4.9c-0.3,0.2-0.6,0.3-1,0.3&#10;&#9;&#9;c-2.2-0.6-4.5-1.2-6.7-1.8c-3.2-1-6.6,0.4-8.2,3.3c-1.6,3.3-3.1,6.6-4.5,10c-1.1,2.7-0.3,5.8,2.1,7.6c2.1,1.6,4.4,3.1,6.6,4.5&#10;&#9;&#9;c0.4,0.3,0.7,0.8,0.6,1.3c-0.1,2.2-0.2,4.5-0.2,6.7c0,0.5-0.2,0.9-0.6,1.1c-2,1.1-4.1,2.3-6.1,3.5c-3.1,1.7-4.5,5.5-3.1,8.7&#10;&#9;&#9;c1.1,2.9,2.2,5.9,3.3,8.8c1.1,3.5,4.8,5.5,8.3,4.6c2.3-0.4,4.6-0.9,6.9-1.3c0.4-0.1,0.9,0,1.2,0.4c1.4,1.6,2.8,3.1,4.3,4.6&#10;&#9;&#9;c0.5,0.4,0.7,1.1,0.4,1.7c-0.6,2.2-1.2,4.4-1.8,6.6c-0.9,3.1,0.4,6.4,3.3,8c3.3,1.6,6.7,3.2,10.1,4.6c2.8,1.1,5.9,0.2,7.7-2.1&#10;&#9;&#9;c1.5-2,2.9-4.2,4.3-6.3c0.3-0.5,0.9-0.8,1.5-0.8c2.2,0.1,4.4,0.2,6.6,0.2c0.5,0,0.9,0.2,1.2,0.7c1.1,2,2.3,4,3.5,6.1&#10;&#9;&#9;c0.8,1.4,2.1,2.5,3.6,3.2c1.4,0.6,3,0.7,4.4,0.2c3.1-1.1,6.2-2.2,9.3-3.4c3.6-1.1,5.7-4.8,4.8-8.4c-0.4-2.2-0.9-4.5-1.3-6.7&#10;&#9;&#9;c-0.1-0.5,0-1,0.4-1.2c1.7-1.5,3.3-3,4.9-4.6c0.4-0.4,1-0.6,1.5-0.4c2.2,0.6,4.4,1.2,6.7,1.8c3.2,1,6.6-0.5,8.1-3.5&#10;&#9;&#9;C151.5,295.9,153,292.6,154.4,289.3z M91,293c-12.2-5.6-17.5-20-11.9-32.1s20-17.5,32.1-11.9c12.2,5.6,17.5,19.9,11.9,32.1&#10;&#9;&#9;C117.6,293.3,103.2,298.6,91,293z"/>
	<path class="st1_seo-1-13" d="M113.6,327.7c-1.1,0-2.2-0.2-3.2-0.6c-1.9-0.8-3.4-2.2-4.4-3.9l-1.5-2.6c-0.6-1.1-1.2-2.1-1.8-3.2&#10;&#9;&#9;c-2.4,0-4.4-0.1-6.3-0.2l-0.8,1.1c-1.1,1.7-2.3,3.5-3.6,5.2c-2.3,3-6.3,4.2-9.9,2.7c-3.7-1.5-7-3-10.2-4.6c-3.6-1.9-5.4-6.1-4.2-10&#10;&#9;&#9;c0.6-2.2,1.2-4.4,1.8-6.6c-1.5-1.5-2.8-3-4.2-4.4c-2.2,0.5-4.4,0.9-6.5,1.3c-4.4,1.1-9-1.4-10.4-5.7c-1.1-2.9-2.2-5.9-3.3-8.8&#10;&#9;&#9;c-1.7-4.1,0-8.8,3.9-11c1.9-1.1,3.9-2.2,5.8-3.4c0-2.4,0.1-4.5,0.2-6.3l-1.1-0.7c-1.8-1.2-3.6-2.4-5.4-3.8c-3-2.3-4.1-6.3-2.6-9.8&#10;&#9;&#9;c1.5-3.6,3-6.9,4.6-10.1c2-3.7,6.3-5.5,10.3-4.3c2.1,0.6,4.2,1.1,6.2,1.7c1.5-1.4,3-2.8,4.6-4.3c-0.2-1.1-0.4-2.2-0.6-3.4&#10;&#9;&#9;s-0.4-2.2-0.6-3.3c-0.8-4.5,1.1-8.3,5.2-10c3.3-1.4,6.8-2.6,10.3-3.8c3.7-1.2,7.6,0.3,9.6,3.6c1.3,2,2.4,4.1,3.6,6.1l0.1,0.2&#10;&#9;&#9;c2.4,0,4.4,0.1,6.3,0.2l0.7-1c1.2-1.8,2.4-3.6,3.7-5.3c2.4-3.1,6.5-4.2,10.1-2.7c3.6,1.5,6.7,3,9.6,4.4c3.8,1.9,5.7,6.2,4.5,10.2&#10;&#9;&#9;c-0.6,2.2-1.1,4.3-1.8,6.5c1.8,1.8,3.2,3.4,4.5,4.8c2.2-0.5,4.4-0.9,6.5-1.3c4.5-1,8.9,1.6,10.3,5.9l0.9,2.4&#10;&#9;&#9;c0.9,2.3,1.8,4.7,2.6,7.2c1.1,3.6-0.3,7.6-3.5,9.6c-1.9,1.2-4,2.4-6,3.5l-0.5,0.3c0,2.5-0.1,4.5-0.2,6.3l0,0&#10;&#9;&#9;c2.2,1.5,4.3,2.9,6.3,4.4c3,2.3,4.1,6.4,2.7,9.9l0,0c-1.6,3.6-3,6.9-4.5,9.9c-1.9,3.7-6.2,5.6-10.2,4.4c-2.2-0.6-4.4-1.2-6.5-1.8&#10;&#9;&#9;c-1.7,1.6-3.3,3.1-4.6,4.3c0.4,2.1,0.9,4.3,1.3,6.4c1.1,4.5-1.6,9.1-6,10.5l-0.7,0.3c-2.9,1.1-5.8,2.2-8.7,3.2&#10;&#9;&#9;C115.3,327.5,114.4,327.7,113.6,327.7z M96.1,313.4h0.3c2,0.1,4,0.2,6.5,0.2c1.1,0,2.2,0.6,2.7,1.6c0.7,1.1,1.3,2.3,1.9,3.4&#10;&#9;&#9;l1.5,2.7c0.6,1.1,1.6,1.9,2.7,2.4c1,0.4,2.1,0.5,3.1,0.1c2.9-1,5.7-2,8.6-3.1l0.7-0.3c3-1.1,4.2-3.3,3.6-6.4&#10;&#9;&#9;c-0.4-2.2-0.8-4.4-1.3-6.6c-0.3-1.1,0.1-2.3,1-3c1.3-1.2,3.1-2.8,4.8-4.5c0.8-0.9,2.1-1.2,3.2-0.8c2.2,0.6,4.4,1.2,6.6,1.8&#10;&#9;&#9;c2.3,0.8,4.9-0.3,6-2.5c1.5-3,2.9-6.2,4.4-9.7l0,0c0.8-2,0.2-4.2-1.5-5.5c-1.9-1.4-4-2.8-6.1-4.2c-1.2-0.7-1.8-2-1.7-3.4&#10;&#9;&#9;c0.1-1.8,0.2-3.8,0.2-6.2c-0.1-1.2,0.6-2.3,1.7-2.9l0.7-0.4c1.9-1.1,3.9-2.2,5.8-3.4c1.8-1.1,2.6-3.3,2-5.4c-0.8-2.3-1.6-4.7-2.5-7&#10;&#9;&#9;l-0.9-2.5c-0.8-2.7-3.5-4.3-6.2-3.6c-2.2,0.4-4.4,0.8-6.6,1.3c-1.2,0.3-2.4-0.1-3.2-1c-1.3-1.5-2.9-3.1-4.6-5&#10;&#9;&#9;c-0.9-0.8-1.2-2.1-0.9-3.2c0.6-2.2,1.2-4.4,1.8-6.6c0.7-2.4-0.3-4.9-2.6-6c-2.9-1.4-6-2.8-9.5-4.3c-2-0.9-4.4-0.2-5.8,1.5&#10;&#9;&#9;c-1.2,1.6-2.4,3.4-3.6,5.1l-0.8,1.2c-0.6,1-1.8,1.6-3,1.5c-2-0.1-4-0.2-6.5-0.2l0,0c-1.2,0-2.3-0.6-2.8-1.6l-0.3-0.5&#10;&#9;&#9;c-1.1-2-2.2-4-3.5-6c-1.1-1.8-3.3-2.7-5.4-2c-3.5,1.1-6.8,2.4-10.1,3.7s-3.4,4-3,5.9c0.2,1.1,0.4,2.2,0.6,3.2&#10;&#9;&#9;c0.2,1.3,0.5,2.6,0.7,3.8c0.1,0.9-0.2,1.9-0.8,2.6c-1.8,1.8-3.5,3.4-5.2,4.9c-0.7,0.7-1.8,0.9-2.7,0.7c-2.2-0.6-4.5-1.2-6.7-1.8&#10;&#9;&#9;c-2.3-0.8-4.9,0.2-6.1,2.3c-1.5,3.1-3,6.3-4.5,9.9c-0.8,2-0.2,4.2,1.5,5.5c1.7,1.3,3.5,2.5,5.2,3.6l1.3,0.9c1,0.6,1.5,1.7,1.4,2.9&#10;&#9;&#9;c-0.1,2-0.2,4.1-0.2,6.6c0.1,1.1-0.6,2.2-1.6,2.7c-2,1.1-4.1,2.3-6,3.5c-2.4,1.2-3.4,4.1-2.3,6.5c1.1,2.9,2.1,5.8,3.3,8.8&#10;&#9;&#9;c0.8,2.7,3.6,4.2,6.3,3.4c2.3-0.4,4.5-0.8,6.8-1.3c1.1-0.2,2.2,0.1,2.9,1c1.4,1.5,2.8,3.1,4.3,4.6c1,0.9,1.3,2.3,0.9,3.5&#10;&#9;&#9;c-0.6,2.2-1.2,4.3-1.8,6.5c-0.7,2.3,0.3,4.7,2.3,5.9c3.1,1.5,6.3,3,10,4.5c2,0.7,4.2,0.1,5.4-1.6c1.2-1.6,2.4-3.3,3.5-5l0.8-1.2&#10;&#9;&#9;C93.9,314,95,313.3,96.1,313.4z M154.4,289.4L154.4,289.4z M66.8,239.8L66.8,239.8L66.8,239.8z M67.4,239.7L67.4,239.7z M101,297.1&#10;&#9;&#9;c-3.7,0-7.4-0.8-10.8-2.4l0,0c-6.4-2.9-11.3-8.3-13.7-14.9c-2.4-6.4-2.1-13.5,0.8-19.7c6-13.1,21.5-18.8,34.6-12.8&#10;&#9;&#9;c6.3,2.9,11.2,8.2,13.6,14.7c2.4,6.5,2.2,13.6-0.7,19.9C120.5,291.1,111.2,297.1,101,297.1z M101,248.5c-8.8,0-16.7,5.2-20.3,13.1&#10;&#9;&#9;c-2.5,5.3-2.7,11.4-0.7,16.9c2.1,5.7,6.3,10.3,11.8,12.8l0,0c5.3,2.5,11.5,2.7,17,0.7c5.7-2,10.2-6.3,12.8-11.7&#10;&#9;&#9;c2.5-5.4,2.7-11.5,0.6-17.1c-2.1-5.6-6.3-10.2-11.7-12.6C107.5,249.3,104.3,248.6,101,248.5L101,248.5z"/>
	<path class="st2_seo-1-13" d="M146,174.8c-0.1-2-1.5-3.7-3.5-4.2c-1.7-0.4-3.4-0.6-5-0.9c-0.5,0-0.9-0.4-1-0.8c-0.5-1.4-1.1-2.7-1.6-4&#10;&#9;&#9;c-0.2-0.3-0.2-0.7,0.1-1c1-1.4,2.1-2.8,3-4.2c1.1-1.7,1-3.9-0.4-5.4c-1.5-1.7-3.2-3.3-4.8-4.9c-1.7-1.9-4.5-2.1-6.4-0.6&#10;&#9;&#9;c-1.3,0.9-2.5,1.8-3.8,2.7c-0.3,0.2-0.7,0.3-1,0.1c-1.4-0.6-2.9-1.2-4.3-1.8c-0.4-0.1-0.6-0.4-0.7-0.8c-0.2-1.6-0.5-3.1-0.8-4.6&#10;&#9;&#9;c-0.3-2.2-2.2-3.9-4.5-4c-2.4-0.1-4.8-0.1-7.1,0c-2.1,0-3.9,1.5-4.3,3.5c-0.4,1.7-0.7,3.5-0.9,5.2c0,0.4-0.3,0.7-0.6,0.8&#10;&#9;&#9;c-1.4,0.5-2.8,1.1-4.1,1.8c-0.3,0.2-0.7,0.1-0.9-0.1c-1.4-1-2.8-2-4.2-3c-1.7-1.1-3.9-1-5.4,0.4c-1.8,1.6-3.6,3.4-5.2,5.2&#10;&#9;&#9;c-1.6,1.7-1.8,4.3-0.3,6.1c0.9,1.3,1.9,2.6,2.8,4c0.1,0.2,0.2,0.5,0.1,0.7c-0.6,1.5-1.2,3-1.8,4.4c-0.1,0.2-0.3,0.4-0.6,0.5&#10;&#9;&#9;c-1.5,0.3-3.1,0.5-4.6,0.8c-2.3,0.2-4,2.1-4.2,4.4c-0.1,2.5-0.1,4.9,0,7.4c0.1,2,1.5,3.7,3.4,4.1c1.8,0.4,3.6,0.7,5.3,1&#10;&#9;&#9;c0.4,0,0.7,0.3,0.8,0.6c0.6,1.4,1.2,2.8,1.8,4.2c0.2,0.3,0.1,0.6-0.1,0.9c-0.9,1.3-1.9,2.6-2.8,3.9c-1.5,1.9-1.2,4.6,0.5,6.3&#10;&#9;&#9;c1.5,1.5,3,3,4.5,4.5c1.7,1.8,4.5,2.1,6.4,0.5c1.3-0.9,2.6-1.8,3.9-2.8c0.2-0.2,0.6-0.2,0.8-0.1c1.3,0.6,2.6,1.1,4,1.6&#10;&#9;&#9;c0.4,0.1,0.7,0.5,0.7,0.9c0.2,1.5,0.5,3,0.8,4.6c0.3,2.2,2.1,3.9,4.3,4c2.5,0.1,5,0.1,7.5,0c2-0.1,3.7-1.5,4.2-3.5&#10;&#9;&#9;c0.4-1.7,0.6-3.4,0.9-5.1c0-0.4,0.3-0.8,0.7-0.9c1.4-0.5,2.8-1.1,4.1-1.7c0.3-0.2,0.6-0.1,0.9,0.1c1.3,0.9,2.6,1.8,3.9,2.8&#10;&#9;&#9;c0.9,0.7,2,1,3.1,0.9c1,0,2-0.4,2.8-1.1c1.6-1.5,3.2-3.1,4.8-4.7c1.9-1.7,2.2-4.6,0.6-6.6c-0.9-1.3-1.8-2.5-2.7-3.8&#10;&#9;&#9;c-0.2-0.3-0.3-0.6-0.1-0.9c0.6-1.4,1.2-2.8,1.7-4.2c0.1-0.4,0.4-0.6,0.8-0.6c1.6-0.2,3.1-0.5,4.6-0.8c2.2-0.3,3.9-2.2,4-4.4&#10;&#9;&#9;C146.1,179.7,146.1,177.2,146,174.8z M107.9,194.9c-9.1,0-16.4-7.4-16.4-16.5S98.9,162,108,162c9.1,0,16.4,7.4,16.4,16.5&#10;&#9;&#9;C124.4,187.6,117,195,107.9,194.9z"/>
	<path class="st1_seo-1-13" d="M107.8,218.5c-1.3,0-2.5,0-3.7-0.1c-3-0.2-5.6-2.5-6-5.5c-0.2-1.4-0.5-2.8-0.7-4.2c-1.1-0.4-2.2-0.9-3.2-1.3&#10;&#9;&#9;c-1.1,0.8-2.3,1.6-3.4,2.4c-2.6,2.1-6.4,1.8-8.7-0.7c-1.5-1.5-3-3-4.5-4.5c-2.4-2.3-2.7-5.9-0.7-8.6c0.8-1.2,1.6-2.3,2.5-3.4&#10;&#9;&#9;c-0.5-1.1-1-2.2-1.4-3.3l-0.5-0.1c-1.5-0.2-3-0.5-4.4-0.8c-2.8-0.6-4.8-3-4.9-5.9c-0.1-2.7-0.1-5.2,0-7.5c0.2-3.1,2.6-5.7,5.7-6.1&#10;&#9;&#9;c1.3-0.2,2.7-0.4,4-0.7c0.5-1.1,0.9-2.2,1.4-3.4l-1.2-1.6l-1.3-1.9c-1.9-2.5-1.7-6.1,0.5-8.4c1.7-1.8,3.5-3.6,5.4-5.3&#10;&#9;&#9;c2.1-1.9,5.3-2.1,7.7-0.5c1.3,0.9,2.6,1.8,3.8,2.7c1.1-0.5,2.2-1,3.3-1.4l0.1-0.5c0.2-1.4,0.5-2.9,0.8-4.3c0.6-2.9,3.1-4.9,6.1-5&#10;&#9;&#9;c2.6,0,5,0,7.2,0c3.1,0.1,5.7,2.4,6.2,5.5c0.2,1.4,0.5,2.8,0.7,4.2c1.3,0.5,2.5,1,3.6,1.5c1.1-0.8,2.3-1.6,3.4-2.4&#10;&#9;&#9;c2.7-2.1,6.5-1.7,8.8,0.8l1.3,1.3c1.2,1.2,2.4,2.4,3.6,3.7c1.9,2.1,2.1,5.2,0.6,7.6c-0.9,1.3-1.8,2.6-2.7,3.8l-0.1,0.1&#10;&#9;&#9;c0.6,1.2,1,2.3,1.4,3.4c1.7,0.3,3.2,0.5,4.8,0.9c2.8,0.6,4.8,3.1,4.9,5.9l0,0c0.1,2.7,0.1,5.1,0,7.4c-0.1,3.1-2.5,5.7-5.6,6.2&#10;&#9;&#9;c-1.4,0.3-2.8,0.5-4.2,0.7c-0.4,1.1-0.9,2.2-1.4,3.4c0.8,1.1,1.6,2.2,2.4,3.4c2.1,2.7,1.8,6.6-0.8,8.9l-0.4,0.4&#10;&#9;&#9;c-1.4,1.4-2.9,2.9-4.4,4.3c-1.1,1-2.5,1.6-4,1.6c-1.5,0-3-0.4-4.2-1.3l-1.7-1.2l-1.7-1.2c-1.2,0.5-2.3,1-3.4,1.4l-0.1,0.6&#10;&#9;&#9;c-0.2,1.4-0.5,2.8-0.8,4.2c-0.6,2.8-3,4.8-5.9,4.9C110.3,218.5,109.1,218.5,107.8,218.5z M94,203.5c0.4,0,0.8,0.1,1.1,0.2&#10;&#9;&#9;c1.3,0.6,2.6,1.1,3.9,1.6c1,0.3,1.8,1.3,1.9,2.4c0.2,1.5,0.5,3,0.7,4.5c0.1,1.3,1.2,2.4,2.5,2.5c2.3,0.1,4.8,0.1,7.4,0&#10;&#9;&#9;c1.2-0.1,2.1-0.9,2.4-2c0.3-1.4,0.5-2.7,0.7-4l0.2-1c0.1-1.1,0.8-1.9,1.8-2.3c1.2-0.5,2.5-1,4.1-1.7c0.9-0.4,2-0.3,2.7,0.3l2.1,1.5&#10;&#9;&#9;l1.7,1.2c0.6,0.4,1.3,0.6,2,0.6c0.6,0,1.1-0.2,1.5-0.6c1.5-1.4,2.9-2.8,4.3-4.2l0.4-0.4c1.3-1.1,1.4-2.9,0.4-4.2&#10;&#9;&#9;c-0.9-1.2-1.8-2.5-2.7-3.7c-0.6-0.8-0.7-1.8-0.3-2.7c0.6-1.4,1.2-2.7,1.7-4.1c0.3-1,1.2-1.7,2.2-1.8c1.6-0.2,3.1-0.5,4.6-0.8&#10;&#9;&#9;c1.4-0.1,2.4-1.3,2.5-2.7c0.1-2.2,0.1-4.6,0-7.2c-0.1-1.2-0.9-2.1-2-2.4c-1.6-0.3-3.2-0.6-4.9-0.9c-1.1-0.1-2.1-0.9-2.4-2&#10;&#9;&#9;c-0.4-1.1-0.9-2.4-1.6-3.9c-0.5-0.9-0.3-2,0.3-2.8l0.4-0.5c0.9-1.2,1.8-2.4,2.6-3.6c0.7-1,0.6-2.3-0.2-3.2&#10;&#9;&#9;c-1.1-1.2-2.3-2.4-3.5-3.6l-1.3-1.3c-1-1.2-2.8-1.4-4.1-0.4c0,0,0,0,0,0c-1.2,0.9-2.5,1.8-3.7,2.6c-0.8,0.6-1.9,0.8-2.8,0.3&#10;&#9;&#9;c-1.4-0.6-2.8-1.2-4.2-1.8c-1-0.3-1.7-1.2-1.8-2.2c-0.2-1.5-0.5-3.1-0.8-4.6c-0.2-1.4-1.3-2.4-2.7-2.5c-2.2,0-4.5,0-7,0&#10;&#9;&#9;c-1.2,0-2.3,0.9-2.6,2.1c-0.3,1.3-0.5,2.7-0.8,4.1l-0.2,1c-0.2,1-0.8,1.8-1.8,2.1c-1.4,0.5-2.7,1.1-4.1,1.7c-0.9,0.5-2,0.3-2.8-0.3&#10;&#9;&#9;l-0.3-0.2c-1.2-0.9-2.5-1.9-3.8-2.7c-1-0.7-2.3-0.6-3.2,0.2c-1.8,1.6-3.5,3.4-5.1,5.1c-1,1-1.1,2.7-0.1,3.8&#10;&#9;&#9;c0.4,0.6,0.9,1.2,1.3,1.8s1,1.4,1.5,2.2c0.5,0.7,0.6,1.6,0.3,2.4c-0.6,1.6-1.2,3.1-1.8,4.6c-0.3,0.8-1.1,1.4-1.9,1.6&#10;&#9;&#9;c-1.5,0.3-3.1,0.5-4.7,0.8c-1.4,0.1-2.5,1.2-2.6,2.6c-0.1,2.3-0.1,4.7,0,7.3c0.1,1.2,0.9,2.1,2,2.4c1.4,0.3,2.8,0.5,4.2,0.8l1,0.2&#10;&#9;&#9;c1,0.2,1.8,0.8,2.1,1.7c0.6,1.4,1.1,2.8,1.7,4.1c0.4,0.9,0.3,1.9-0.3,2.7c-1,1.3-1.9,2.6-2.8,3.8c-1,1.2-0.8,2.9,0.3,3.9&#10;&#9;&#9;c1.5,1.5,3,3,4.5,4.5c1,1.2,2.8,1.4,4,0.3c0,0,0,0,0,0c1.3-0.9,2.6-1.8,3.8-2.7C92.9,203.7,93.5,203.6,94,203.5z M121.4,207&#10;&#9;&#9;L121.4,207z M136.5,192.9L136.5,192.9z M77.5,168.7L77.5,168.7L77.5,168.7z M78.3,168.1L78.3,168.1z M94.3,150.2L94.3,150.2z&#10;&#9;&#9; M97.1,148.9L97.1,148.9z M117.8,148.1L117.8,148.1z M108,196.8h-0.2c-4.9,0-9.6-2-13-5.5c-3.4-3.4-5.3-8-5.2-12.8&#10;&#9;&#9;c0.1-10,8.2-18.1,18.3-18.2l0,0c10.1,0,18.3,8.2,18.3,18.2c0,4.9-2,9.6-5.5,13.1C117.3,194.9,112.8,196.8,108,196.8L108,196.8z&#10;&#9;&#9; M107.9,163.9c-8,0-14.6,6.5-14.6,14.5c0,0,0,0.1,0,0.1c0,3.8,1.5,7.5,4.2,10.2c2.7,2.8,6.5,4.4,10.4,4.4c0,0,0.1,0,0.1,0&#10;&#9;&#9;c3.8,0,7.4-1.5,10.1-4.2c2.8-2.7,4.4-6.5,4.4-10.4c0-3.9-1.5-7.6-4.2-10.3C115.6,165.5,111.8,163.9,107.9,163.9L107.9,163.9z"/>
</g>
<g id="device_seo-1-13">
	<path class="st3_seo-1-13 targetColor" d="M116.5,147.1h299.4c3,0,5.5,2.5,5.5,5.5l0,0v186.5l0,0H111l0,0V152.6C111,149.6,113.5,147.1,116.5,147.1&#10;&#9;&#9;C116.5,147.1,116.5,147.1,116.5,147.1z" style="fill: rgb(104, 225, 253);"/>
	<path class="st1_seo-1-13" d="M421.4,341H111c-1,0-1.8-0.8-1.8-1.8v-182c0-6.6,5.3-11.9,11.9-11.9h290.2c6.6,0,11.9,5.3,11.9,11.9v181.9&#10;&#9;&#9;C423.2,340.2,422.4,341,421.4,341C421.4,341,421.4,341,421.4,341z M112.9,337.3h306.7V157.2c0-4.6-3.7-8.3-8.3-8.3H121.1&#10;&#9;&#9;c-4.6,0-8.3,3.7-8.3,8.3L112.9,337.3z"/>
	<path class="st3_seo-1-13 targetColor" d="M78.8,339.1h374.9l0,0v16.1c0,3-2.4,5.4-5.4,5.4l0,0H84.2c-3,0-5.4-2.4-5.4-5.4l0,0V339.1L78.8,339.1z" style="fill: rgb(104, 225, 253);"/>
	<path class="st1_seo-1-13" d="M443.8,362.5H88.7c-6.5,0-11.7-5.3-11.7-11.7v-11.6c0-1,0.8-1.8,1.8-1.8h374.9c1,0,1.8,0.8,1.8,1.8v11.6&#10;&#9;&#9;C455.5,357.2,450.3,362.5,443.8,362.5z M80.6,341v9.8c0,4.5,3.6,8.1,8.1,8.1h355.1c4.5,0,8.1-3.6,8.1-8.1V341H80.6z"/>
	<rect x="233.6" y="339.1" class="st4_seo-1-13" width="65.2" height="10.8"/>
	<path class="st1_seo-1-13" d="M298.8,351.7h-65.2c-1,0-1.8-0.8-1.8-1.8v-10.8c0-1,0.8-1.8,1.8-1.8h65.2c1,0,1.8,0.8,1.8,1.8v10.8&#10;&#9;&#9;C300.6,350.9,299.8,351.7,298.8,351.7L298.8,351.7z M235.5,348.1H297V341h-61.5L235.5,348.1z"/>
	<rect x="125.6" y="161.9" class="st4_seo-1-13" width="281.2" height="161.9"/>
	<path class="st1_seo-1-13" d="M406.8,325.7H125.6c-1,0-1.8-0.8-1.8-1.8V161.9c0-1,0.8-1.8,1.8-1.8c0,0,0,0,0,0h281.2c1,0,1.8,0.8,1.8,1.8&#10;&#9;&#9;c0,0,0,0,0,0v161.9C408.6,324.8,407.8,325.7,406.8,325.7L406.8,325.7z M127.4,322H405V163.7H127.4V322z"/>
	<rect x="141.7" y="178.5" class="st1_seo-1-13" width="63.9" height="14.9"/>
	<path class="st1_seo-1-13" d="M205.6,195.2h-63.9c-1,0-1.8-0.8-1.8-1.8l0,0v-14.9c0-1,0.8-1.8,1.8-1.8c0,0,0,0,0,0h63.9c1,0,1.8,0.8,1.8,1.8&#10;&#9;&#9;c0,0,0,0,0,0v14.9C207.4,194.4,206.6,195.2,205.6,195.2L205.6,195.2z M143.5,191.6h60.3v-11.2h-60.3V191.6z"/>
	<path class="st5_seo-1-13" d="M323.4,185.6h-66.5c-1,0-1.8-0.8-1.8-1.8s0.8-1.8,1.8-1.8h66.5c1,0,1.8,0.8,1.8,1.8S324.4,185.6,323.4,185.6z"/>
	<path class="st5_seo-1-13" d="M354,185.6h-17.4c-1,0-1.8-0.8-1.8-1.8s0.8-1.8,1.8-1.8H354c1,0,1.8,0.8,1.8,1.8S355,185.6,354,185.6z"/>
	<path class="st5_seo-1-13" d="M390.4,185.6h-20.7c-1,0-1.8-0.8-1.8-1.8s0.8-1.8,1.8-1.8h20.7c1,0,1.8,0.8,1.8,1.8S391.4,185.6,390.4,185.6z"/>
</g>
<g id="search_seo-1-13">
	<path class="st3_seo-1-13 targetColor" d="M174.8,230.7h182.8c12.1,0,21.9,9.8,21.9,21.9v1.5c0,12.1-9.8,21.9-21.9,21.9H174.8&#10;&#9;&#9;c-12.1,0-21.9-9.8-21.9-21.9v-1.5C152.9,240.5,162.7,230.7,174.8,230.7z" style="fill: rgb(104, 225, 253);"/>
	<path class="st1_seo-1-13" d="M356.9,277.9H175.6c-13.5,0-24.5-11-24.5-24.5s11-24.5,24.5-24.5h181.3c13.5,0,24.5,11,24.5,24.5&#10;&#9;&#9;S370.4,277.9,356.9,277.9z M175.6,232.5c-11.5,0-20.8,9.3-20.8,20.8c0,11.5,9.3,20.8,20.8,20.8h181.3c11.5,0,20.8-9.3,20.8-20.8&#10;&#9;&#9;c0-11.5-9.3-20.8-20.8-20.8L175.6,232.5z"/>
	
		<rect x="346.8" y="276.7" transform="matrix(0.7071 -0.7071 0.7071 0.7071 -105.897 335.4391)" class="st1_seo-1-13" width="10.4" height="37.7"/>
	<path class="st1_seo-1-13" d="M361.6,314.4c-0.5,0-1-0.2-1.3-0.5l-26.6-26.6c-0.7-0.7-0.7-1.9,0-2.6c0,0,0,0,0,0l7.4-7.4&#10;&#9;&#9;c0.7-0.7,1.9-0.7,2.6,0c0,0,0,0,0,0l26.6,26.6c0.7,0.7,0.7,1.9,0,2.6c0,0,0,0,0,0l-7.4,7.4C362.6,314.2,362.1,314.4,361.6,314.4z&#10;&#9;&#9; M337.6,285.9l24,24.1l4.8-4.8l-24-24L337.6,285.9z"/>
	<circle class="st6_seo-1-13" cx="311.7" cy="255.3" r="48"/>
	<path class="st1_seo-1-13" d="M311.7,305.1c-27.5,0-49.8-22.3-49.8-49.8s22.3-49.8,49.8-49.8c13.2,0,25.9,5.3,35.2,14.6l0,0&#10;&#9;&#9;c19.5,19.5,19.5,51,0,70.5C337.6,299.9,324.9,305.1,311.7,305.1z M311.7,209.1c-25.5,0-46.2,20.7-46.2,46.2&#10;&#9;&#9;c0,25.5,20.7,46.2,46.2,46.2c25.5,0,46.2-20.7,46.2-46.2c0-12.3-4.9-24-13.5-32.7l0,0C335.7,214,324,209.1,311.7,209.1L311.7,209.1&#10;&#9;&#9;z"/>
	<circle class="st4_seo-1-13" cx="311.7" cy="255.3" r="33.9"/>
	<path class="st1_seo-1-13" d="M311.7,291.1c-19.8,0-35.8-16-35.8-35.8s16-35.8,35.8-35.8c9.5,0,18.6,3.8,25.3,10.5l0,0c14,14,14,36.6,0,50.6&#10;&#9;&#9;C330.3,287.3,321.2,291.1,311.7,291.1z M311.7,223.2c-17.7,0-32.1,14.4-32.1,32.1c0,17.7,14.4,32.1,32.1,32.1&#10;&#9;&#9;c17.7,0,32.1-14.4,32.1-32.1c0-8.5-3.4-16.7-9.4-22.7l0,0C328.4,226.5,320.2,223.2,311.7,223.2L311.7,223.2z"/>
	<path class="st6_seo-1-13" d="M354.1,306.5l8.8-8.8c1.1-1.1,2.9-1.1,4.1,0l50.2,50.2c1.1,1.1,1.1,2.9,0,4.1l-8.8,8.8c-1.1,1.1-2.9,1.1-4.1,0&#10;&#9;&#9;l-50.2-50.2C353,309.5,353,307.6,354.1,306.5z"/>
	<path class="st1_seo-1-13" d="M406.4,362.5c-1.9,0-3.7-0.8-5-2.1l-46.8-46.8c-2.8-2.8-2.8-7.3,0-10.1l5.4-5.4c2.8-2.8,7.3-2.8,10.1,0&#10;&#9;&#9;l46.8,46.8c2.8,2.8,2.8,7.3,0,10.1l0,0l-5.4,5.4C410.1,361.8,408.3,362.5,406.4,362.5z M365,299.7c-0.9,0-1.8,0.4-2.4,1l-5.4,5.4&#10;&#9;&#9;c-1.3,1.3-1.3,3.5,0,4.9l46.8,46.8c1.3,1.3,3.5,1.3,4.9,0l5.4-5.4c1.3-1.3,1.3-3.5,0-4.9l-46.8-46.8&#10;&#9;&#9;C366.8,300.1,365.9,299.7,365,299.7z M415.5,353.7L415.5,353.7z"/>
	<path class="st1_seo-1-13" d="M192.2,246.4c-0.4-0.5-1-0.9-1.6-1.1c-0.6-0.2-1.2-0.3-1.9-0.4c-0.4,0-0.7,0-1.1,0.1c-0.4,0.1-0.7,0.2-1,0.4&#10;&#9;&#9;c-0.3,0.2-0.6,0.4-0.8,0.7c-0.2,0.3-0.3,0.6-0.3,1c0,0.6,0.3,1.2,0.7,1.5c0.6,0.4,1.2,0.7,1.9,0.9c0.7,0.2,1.5,0.5,2.4,0.7&#10;&#9;&#9;c0.8,0.2,1.6,0.6,2.4,1c0.7,0.5,1.4,1.1,1.9,1.8c0.5,0.9,0.8,2,0.7,3c0,1.1-0.2,2.2-0.7,3.1c-0.4,0.9-1.1,1.6-1.8,2.2&#10;&#9;&#9;c-0.8,0.6-1.7,1-2.7,1.3c-2.3,0.6-4.8,0.6-7.1-0.2c-1.2-0.5-2.4-1.2-3.4-2.1l3.4-3.7c0.5,0.6,1.1,1.2,1.9,1.5&#10;&#9;&#9;c1.1,0.5,2.3,0.7,3.5,0.4c0.4-0.1,0.7-0.2,1.1-0.4c0.3-0.2,0.6-0.4,0.8-0.7c0.2-0.3,0.3-0.6,0.3-1c0-0.6-0.3-1.2-0.8-1.6&#10;&#9;&#9;c-0.6-0.4-1.2-0.8-1.9-1c-0.8-0.3-1.6-0.5-2.4-0.8c-0.9-0.3-1.7-0.6-2.4-1.1c-0.7-0.4-1.4-1.1-1.9-1.8c-0.5-0.9-0.8-1.9-0.8-2.9&#10;&#9;&#9;c0-1.1,0.2-2.1,0.7-3.1c0.4-0.9,1.1-1.6,1.8-2.2c0.8-0.6,1.7-1.1,2.6-1.3c1-0.3,2-0.4,3.1-0.4c1.2,0,2.4,0.2,3.5,0.5&#10;&#9;&#9;c1.1,0.4,2.2,0.9,3.1,1.7L192.2,246.4z"/>
	<path class="st1_seo-1-13" d="M199.2,241.1h14.7v4.4H204v4h9.4v4.4H204v4.4h10.5v4.4h-15.2V241.1z"/>
	<path class="st1_seo-1-13" d="M217.1,251.9c0-1.6,0.3-3.2,0.9-4.7c0.5-1.4,1.4-2.6,2.4-3.6c1.1-1,2.3-1.8,3.7-2.3c3-1.1,6.3-1.1,9.4,0&#10;&#9;&#9;c1.4,0.5,2.6,1.3,3.7,2.3c1.1,1,1.9,2.2,2.4,3.6c1.2,3,1.2,6.4,0,9.4c-0.5,1.4-1.4,2.6-2.4,3.6c-1.1,1-2.3,1.8-3.7,2.3&#10;&#9;&#9;c-3,1.1-6.3,1.1-9.4,0c-1.4-0.5-2.6-1.3-3.7-2.3c-1.1-1-1.9-2.2-2.4-3.6C217.4,255.1,217.1,253.5,217.1,251.9z M222.1,251.9&#10;&#9;&#9;c0,1,0.1,1.9,0.5,2.8c0.3,0.8,0.8,1.6,1.4,2.2c0.6,0.6,1.3,1.1,2.1,1.5c0.9,0.4,1.8,0.5,2.8,0.5c0.9,0,1.9-0.2,2.8-0.5&#10;&#9;&#9;c0.8-0.3,1.5-0.8,2.1-1.5c0.6-0.6,1.1-1.4,1.4-2.2c0.6-1.8,0.6-3.8,0-5.6c-0.3-0.8-0.8-1.6-1.4-2.2c-0.6-0.6-1.3-1.1-2.1-1.4&#10;&#9;&#9;c-0.9-0.4-1.8-0.5-2.8-0.5c-0.9,0-1.9,0.2-2.8,0.5c-0.8,0.3-1.5,0.8-2.1,1.4c-0.6,0.6-1.1,1.4-1.4,2.2&#10;&#9;&#9;C222.3,250,222.1,251,222.1,251.9L222.1,251.9z"/>
	<path class="st1_seo-1-13" d="M281.4,265.6c-1,0-1.8-0.8-1.8-1.8c0-0.5,0.2-1,0.6-1.4l23.6-20.9c0.8-0.7,1.9-0.6,2.6,0.1l13.8,15.4&#10;&#9;&#9;l62.4-41.1c0.9-0.5,2-0.2,2.5,0.7c0.5,0.8,0.3,1.9-0.5,2.4l-63.7,42c-0.8,0.5-1.8,0.4-2.4-0.3l-13.7-15.2l-22.2,19.7&#10;&#9;&#9;C282.3,265.5,281.9,265.7,281.4,265.6z"/>
	<circle class="st0_seo-1-13" cx="385.2" cy="216.6" r="5.2"/>
	<path class="st1_seo-1-13" d="M385.2,223.6c-3.9,0-7-3.1-7-7s3.1-7,7-7s7,3.1,7,7S389.1,223.6,385.2,223.6z M385.2,213.3&#10;&#9;&#9;c-1.8,0-3.3,1.5-3.3,3.3s1.5,3.3,3.4,3.3c1.8,0,3.3-1.5,3.3-3.3C388.6,214.8,387.1,213.3,385.2,213.3L385.2,213.3z"/>
	<circle class="st0_seo-1-13" cx="321.6" cy="259.4" r="5.2"/>
	<path class="st1_seo-1-13" d="M321.6,266.4c-3.9,0-7-3.1-7-7s3.1-7,7-7s7,3.1,7,7S325.4,266.4,321.6,266.4z M321.6,256.1&#10;&#9;&#9;c-1.9,0-3.4,1.5-3.4,3.3c0,1.9,1.5,3.4,3.3,3.4c1.9,0,3.4-1.5,3.4-3.3c0,0,0,0,0,0C324.9,257.6,323.4,256.1,321.6,256.1z"/>
	<circle class="st0_seo-1-13" cx="304.6" cy="241.7" r="5.2"/>
	<path class="st1_seo-1-13" d="M304.6,248.7c-3.9,0-7-3.1-7-7s3.1-7,7-7s7,3.1,7,7S308.5,248.7,304.6,248.7z M304.6,238.3&#10;&#9;&#9;c-1.8,0-3.3,1.5-3.3,3.3s1.5,3.3,3.3,3.3c1.8,0,3.3-1.5,3.3-3.3l0,0C307.9,239.8,306.4,238.3,304.6,238.3z"/>
</g>
</svg>