<svg version="1.1" id="Layer_1" xmlns="http://www.w3.org/2000/svg" xmlns:xlink="http://www.w3.org/1999/xlink" x="0px" y="0px" viewBox="0 0 500 500" style="width: 166px;" xml:space="preserve" data-imageid="settings-64" imageName="Settings" class="illustrations_image">
<style type="text/css">
	.st0_settings-64{fill:#FFFFFF;}
	.st1_settings-64{fill:#093F68;}
	.st2_settings-64{fill:#68E1FD;}
	.st3_settings-64{fill:#F56132;}
	.st4_settings-64{fill:#FFBC0E;}
	.st5_settings-64{fill:#70CC40;}
	.st6_settings-64{fill:#DFEAEF;}
</style>
<g id="screen_settings-64">
	<rect x="59.3" y="117.4" class="st0_settings-64" width="345" height="235.8"/>
	<path class="st1_settings-64" d="M404.3,355h-345c-1,0-1.8-0.8-1.8-1.8l0,0V117.4c0-1,0.8-1.8,1.8-1.8c0,0,0,0,0,0h345c1,0,1.8,0.8,1.8,1.8&#10;&#9;&#9;v235.8C406.1,354.2,405.3,355,404.3,355z M61.1,351.4h341.4V119.2H61.1V351.4z"/>
	<rect x="59.3" y="117.4" class="st2_settings-64 targetColor" width="345" height="31" style="fill: rgb(104, 225, 253);"/>
	<path class="st1_settings-64" d="M404.3,150.2h-345c-1,0-1.8-0.8-1.8-1.8l0,0v-31c0-1,0.8-1.8,1.8-1.8c0,0,0,0,0,0h345c1,0,1.8,0.8,1.8,1.8v31&#10;&#9;&#9;C406.1,149.4,405.3,150.2,404.3,150.2z M61.1,146.6h341.4v-27.3H61.1V146.6z"/>
	<circle class="st3_settings-64" cx="87.5" cy="132.9" r="5.1"/>
	<path class="st1_settings-64" d="M87.5,139.8c-3.8,0-6.9-3.1-6.9-6.9c0-3.8,3.1-6.9,6.9-6.9c3.8,0,6.9,3.1,6.9,6.9&#10;&#9;&#9;C94.4,136.7,91.3,139.8,87.5,139.8z M87.5,129.6c-1.8,0-3.3,1.5-3.3,3.3c0,1.8,1.5,3.3,3.3,3.3c1.8,0,3.3-1.5,3.3-3.3c0,0,0,0,0,0&#10;&#9;&#9;C90.8,131.1,89.3,129.6,87.5,129.6L87.5,129.6z"/>
	<circle class="st4_settings-64" cx="106.9" cy="132.9" r="5.1"/>
	<path class="st1_settings-64" d="M106.9,139.8c-3.8,0-6.9-3.1-6.9-6.9c0-3.8,3.1-6.9,6.9-6.9c3.8,0,6.9,3.1,6.9,6.9S110.7,139.8,106.9,139.8&#10;&#9;&#9;C106.9,139.8,106.9,139.8,106.9,139.8z M106.9,129.6c-1.8,0-3.3,1.5-3.3,3.3s1.5,3.3,3.3,3.3c1.8,0,3.3-1.5,3.3-3.3c0,0,0,0,0,0&#10;&#9;&#9;C110.2,131.1,108.7,129.6,106.9,129.6C106.9,129.6,106.9,129.6,106.9,129.6z"/>
	<circle class="st5_settings-64" cx="126.3" cy="132.9" r="5.1"/>
	<path class="st1_settings-64" d="M126.3,139.8c-3.8,0-6.9-3.1-6.9-6.9c0-3.8,3.1-6.9,6.9-6.9c3.8,0,6.9,3.1,6.9,6.9c0,0,0,0,0,0&#10;&#9;&#9;C133.2,136.7,130.1,139.8,126.3,139.8z M126.3,129.6c-1.8,0-3.3,1.5-3.3,3.3c0,1.8,1.5,3.3,3.3,3.3c1.8,0,3.3-1.5,3.3-3.3&#10;&#9;&#9;c0,0,0,0,0,0C129.6,131.1,128.1,129.6,126.3,129.6z"/>
	<rect x="87.5" y="170.8" class="st1_settings-64" width="131.2" height="11.9"/>
	<path class="st1_settings-64" d="M218.6,184.6H87.5c-1,0-1.8-0.8-1.8-1.8l0,0v-11.9c0-1,0.8-1.8,1.8-1.8h131.2c1,0,1.8,0.8,1.8,1.8v11.9&#10;&#9;&#9;C220.4,183.8,219.6,184.6,218.6,184.6L218.6,184.6z M89.3,180.9h127.5v-8.3H89.3V180.9z"/>
	<rect x="87.5" y="199.7" class="st1_settings-64" width="131.2" height="11.9"/>
	<path class="st1_settings-64" d="M218.6,213.4H87.5c-1,0-1.8-0.8-1.8-1.8l0,0v-11.9c0-1,0.8-1.8,1.8-1.8h131.2c1,0,1.8,0.8,1.8,1.8v11.9&#10;&#9;&#9;C220.4,212.6,219.6,213.4,218.6,213.4z M89.3,209.8h127.5v-8.3H89.3V209.8z"/>
	<rect x="87.5" y="228.5" class="st1_settings-64" width="55" height="11.9"/>
	<path class="st1_settings-64" d="M142.5,242.3h-55c-1,0-1.8-0.8-1.8-1.8v-11.9c0-1,0.8-1.8,1.8-1.8h55c1,0,1.8,0.8,1.8,1.8v0v11.9&#10;&#9;&#9;C144.3,241.5,143.5,242.3,142.5,242.3z M89.3,238.6h51.4v-8.3H89.3L89.3,238.6z"/>
	<path class="st6_settings-64" d="M376,191.6H242.5c-1,0-1.8-0.8-1.8-1.8c0,0,0,0,0,0v-18.9c0-1,0.8-1.8,1.8-1.8c0,0,0,0,0,0H376&#10;&#9;&#9;c1,0,1.8,0.8,1.8,1.8c0,0,0,0,0,0v18.9C377.8,190.7,377,191.6,376,191.6C376,191.6,376,191.6,376,191.6z M244.3,187.9h129.9v-15.3&#10;&#9;&#9;H244.4L244.3,187.9z"/>
</g>
<g id="setting_settings-64">
	<path class="st2_settings-64 targetColor" d="M260.2,317.2c0.8-3.4-0.9-6.9-4-8.5c-2.6-1.3-5.4-2.5-8.1-3.7c-0.8-0.3-1.3-1-1.3-1.8c-0.3-2.5-0.6-5-1-7.4&#10;&#9;&#9;c-0.2-0.6,0-1.3,0.6-1.7c2.3-1.9,4.7-3.8,6.9-5.9c2.6-2.4,3.3-6.2,1.7-9.3c-1.9-3.5-4-6.9-6-10.4c-2-3.9-6.6-5.5-10.6-3.8&#10;&#9;&#9;c-2.5,0.9-5,1.9-7.5,2.9c-0.6,0.3-1.3,0.2-1.8-0.3c-2.1-1.7-4.3-3.3-6.5-4.9c-0.6-0.3-0.9-1-0.8-1.6c0.3-2.7,0.5-5.4,0.7-8.1&#10;&#9;&#9;c0.4-3.9-2-7.6-5.8-8.7c-4-1.1-8-2.2-12-3.1c-3.5-0.8-7.1,0.9-8.7,4.1c-1.4,2.7-2.6,5.6-3.9,8.4c-0.2,0.6-0.8,1-1.4,1&#10;&#9;&#9;c-2.6,0.3-5.2,0.7-7.7,1.1c-0.6,0.2-1.3,0-1.6-0.6c-1.9-2.3-3.8-4.6-5.7-6.8c-2.3-2.7-6.2-3.4-9.4-1.8c-3.8,2-7.5,4.2-11.1,6.5&#10;&#9;&#9;s-4.7,6.1-3.2,10.1c1,2.7,2,5.3,3,8c0.1,0.4,0,0.8-0.2,1.2c-1.6,2.3-3.3,4.5-5,6.7c-0.3,0.3-0.7,0.5-1.1,0.5&#10;&#9;&#9;c-2.7-0.2-5.4-0.4-8.1-0.7c-4.1-0.4-7.8,1.8-8.9,5.5c-1.2,4.1-2.3,8.3-3.2,12.5c-0.7,3.4,0.9,6.9,4,8.5c2.8,1.4,5.7,2.7,8.6,4&#10;&#9;&#9;c0.6,0.2,1,0.8,1,1.4c0.3,2.6,0.7,5.2,1.2,7.9c0.2,0.6,0,1.2-0.5,1.5c-2.1,1.7-4.3,3.5-6.4,5.3c-3.3,2.6-4.1,7.3-1.8,10.8&#10;&#9;&#9;c1.9,3.2,3.7,6.4,5.6,9.6c2.4,4,6.2,5.2,10.6,3.6c2.6-1,5.2-2,7.7-3c0.5-0.2,1-0.1,1.4,0.2c2,1.5,4,3.1,6,4.5&#10;&#9;&#9;c0.7,0.4,1,1.2,0.8,1.9c-0.3,2.7-0.5,5.4-0.7,8c-0.4,3.8,1.8,7.4,5.4,8.6c4.2,1.2,8.4,2.3,12.7,3.3c3.4,0.7,6.9-1,8.5-4.1&#10;&#9;&#9;c1.4-2.7,2.5-5.5,3.8-8.2c0.2-0.7,0.9-1.2,1.6-1.2c2.6-0.3,5.2-0.7,7.8-1.1c0.6-0.2,1.2,0,1.5,0.5c1.8,2.1,3.6,4.2,5.3,6.4&#10;&#9;&#9;c1.2,1.5,2.9,2.5,4.8,3c1.8,0.4,3.6,0.2,5.2-0.7c3.4-1.9,6.8-3.9,10.2-5.9c4.1-2.4,5.5-6.3,3.9-10.8c-0.9-2.5-1.9-5-2.9-7.5&#10;&#9;&#9;c-0.3-0.5-0.2-1.2,0.2-1.6l4.8-6.3c0.3-0.6,1-0.8,1.6-0.7c2.7,0.3,5.4,0.5,8.1,0.7c3.9,0.5,7.6-1.9,8.8-5.7&#10;&#9;&#9;C258.3,325.5,259.2,321.4,260.2,317.2z M187.1,334.6c-15.3-4-24.5-19.7-20.5-35c4-15.3,19.7-24.5,35-20.5c15.3,4,24.5,19.7,20.5,35&#10;&#9;&#9;C218,329.4,202.4,338.6,187.1,334.6z" style="fill: rgb(104, 225, 253);"/>
	<path class="st1_settings-64" d="M185.6,374.9c-0.7,0-1.3-0.1-1.9-0.2c-4.2-1-8.4-2.1-12.8-3.3c-4.5-1.5-7.3-6-6.8-10.7v-0.5&#10;&#9;&#9;c0.2-2.5,0.4-5,0.7-7.5c0,0,0,0,0-0.1c-1.4-1-2.7-2-4-3l-1.8-1.3c-2.4,1-4.9,1.9-7.4,2.9c-5.4,2-10.2,0.4-13-4.4&#10;&#9;&#9;c-1-1.6-1.9-3.2-2.8-4.8s-1.9-3.2-2.8-4.8c-2.8-4.4-1.8-10.2,2.3-13.4c2.1-1.8,4.2-3.6,6.1-5.1c-0.5-2.7-0.9-5.2-1.2-7.7&#10;&#9;&#9;c-2.9-1.3-5.8-2.6-8.5-4c-3.9-2-6-6.4-5.1-10.7c0.8-4,1.9-8.1,3.2-12.7s5.9-7.4,11-6.9c2.6,0.3,5.2,0.5,7.7,0.7&#10;&#9;&#9;c1.5-2,3.1-4,4.5-6.1l-1.4-3.6c-0.5-1.3-1-2.7-1.5-4c-1.9-4.9-0.3-9.7,4-12.5c4-2.6,7.7-4.7,11.2-6.6c4-2.1,8.9-1.1,11.9,2.3&#10;&#9;&#9;c1.9,2.2,3.8,4.5,5.6,6.7c2.3-0.4,4.9-0.8,7.5-1.1c0.4-0.9,0.8-1.8,1.2-2.7c0.8-1.9,1.7-3.8,2.7-5.7c2-4.1,6.6-6.2,11-5.1&#10;&#9;&#9;c4,0.9,8.1,2,12.1,3.1c4.7,1.4,7.8,5.9,7.3,10.8c-0.2,2.6-0.4,5.2-0.7,7.9c2.1,1.6,4.4,3.2,6.5,4.9c2.4-1,4.9-2,7.4-2.9&#10;&#9;&#9;c4.9-2.1,10.7-0.1,13.1,4.8c0.7,1.2,1.5,2.5,2.2,3.9c1.2,2.1,2.5,4.3,3.7,6.5c2,3.9,1.2,8.8-2.1,11.8c-1.8,1.7-3.8,3.3-5.7,4.9&#10;&#9;&#9;l-1.2,1c0.4,2.4,0.7,4.9,1,7.4c0,0.1,0,0.2,0,0.3c0,0,0.1,0,0.1,0l0,0l1.5,0.7c2.2,1,4.5,2,6.6,3c4,2,6,6.4,5,10.8l0,0&#10;&#9;&#9;c-1,4.2-2,8.3-3,12.3c0,0,0,0.1,0,0.1c-1.4,4.7-6,7.7-10.9,7.1c-2.6-0.2-5.3-0.4-8-0.7l-4.6,6c1,2.4,2,4.9,2.9,7.4&#10;&#9;&#9;c1.9,5.4,0.1,10.3-4.8,13.2c-3.4,2-6.8,4-10.2,5.9c-2,1.1-4.4,1.4-6.6,0.9c-2.3-0.6-4.4-1.9-5.9-3.7c-1.6-2.1-3.4-4.2-5.1-6.1&#10;&#9;&#9;c-2.6,0.4-5.2,0.8-7.7,1.1c0,0,0,0.1,0,0.1c-0.5,1.1-1,2.2-1.5,3.3c-0.7,1.6-1.4,3.3-2.3,4.9C192.7,372.8,189.3,374.9,185.6,374.9z&#10;&#9;&#9; M168.6,353.1c-0.3,2.5-0.5,4.9-0.6,7.3v0.5c-0.4,2.9,1.3,5.6,4,6.5c4.3,1.2,8.4,2.3,12.6,3.3c2.5,0.5,5.1-0.8,6.3-3.1&#10;&#9;&#9;c0.8-1.5,1.5-3.1,2.2-4.7c0.5-1.1,1-2.2,1.5-3.3c0.5-1.4,1.8-2.4,3.3-2.5c2.5-0.3,5-0.7,7.5-1.1c1.3-0.3,2.7,0.2,3.5,1.2&#10;&#9;&#9;c1.8,2.1,3.6,4.2,5.3,6.4c1,1.1,2.3,1.9,3.7,2.3c1.3,0.3,2.6,0.1,3.7-0.5c3.4-1.9,6.8-3.9,10.2-5.9s4.3-4.8,3-8.4&#10;&#9;&#9;c-0.9-2.4-1.9-4.9-2.8-7.3c-0.6-1.2-0.4-2.7,0.4-3.7l4.7-6.1c0.7-1.2,2.1-1.8,3.5-1.6c2.6,0.3,5.4,0.5,8,0.7h0.1&#10;&#9;&#9;c2.9,0.3,5.7-1.4,6.6-4.3c1-4,2-8.1,3-12.2c0.6-2.5-0.7-5.1-3-6.3c-2-1-4.3-2-6.4-3l-1.5-0.7c-1.5-0.6-2.5-1.9-2.5-3.5&#10;&#9;&#9;c-0.3-2.4-0.6-4.8-1-7.1c-0.4-1.4,0.2-2.9,1.4-3.7l1.2-1c1.9-1.5,3.8-3.1,5.5-4.8c2-1.7,2.5-4.6,1.3-6.9c-1.1-2.1-2.4-4.3-3.6-6.4&#10;&#9;&#9;c-0.8-1.3-1.6-2.6-2.3-4c-1.5-3-5-4.3-8.1-3H239c-2.4,0.9-5,1.9-7.4,2.9c-1.3,0.6-2.9,0.4-3.9-0.6c-2-1.6-4.2-3.2-6.2-4.7&#10;&#9;&#9;c-1.2-0.7-1.9-2.1-1.7-3.5c0.3-2.7,0.5-5.4,0.7-8c0.3-3-1.5-5.8-4.4-6.6c-3.9-1.1-7.9-2.2-11.9-3.1c-2.6-0.7-5.3,0.6-6.6,3&#10;&#9;&#9;c-0.9,1.8-1.8,3.7-2.6,5.5c-0.4,0.9-0.8,1.9-1.2,2.8c-0.5,1.3-1.7,2.2-3.1,2.2c-2.6,0.3-5.2,0.7-7.4,1c-1.4,0.4-2.8-0.2-3.6-1.3&#10;&#9;&#9;c-1.8-2.2-3.8-4.5-5.6-6.7c-1.7-2-4.6-2.6-7-1.3c-3.4,1.8-7,3.9-10.9,6.4c-2.8,1.8-3.6,4.5-2.4,7.7c0.5,1.4,1,2.7,1.5,4&#10;&#9;&#9;s1,2.7,1.5,4c0,0.1,0.1,0.1,0.1,0.2c0.2,1,0.1,2-0.5,2.8c-1.7,2.4-3.4,4.6-5.1,6.8c-0.1,0.1-0.1,0.1-0.2,0.2&#10;&#9;&#9;c-0.7,0.7-1.7,1.1-2.7,1.1c-2.7-0.2-5.4-0.4-8.2-0.7c-2.9-0.4-5.8,1.3-6.8,4.1c-1.3,4.4-2.3,8.5-3.2,12.4c-0.5,2.5,0.7,5.1,3,6.3&#10;&#9;&#9;c2.7,1.4,5.6,2.7,8.4,3.9c1.3,0.5,2.2,1.7,2.2,3.1c0.3,2.4,0.7,4.9,1.1,7.6c0.3,1.3-0.1,2.7-1.2,3.6c-1.9,1.5-4.1,3.4-6.3,5.2&#10;&#9;&#9;c-2.5,1.9-3.1,5.5-1.4,8.2c1,1.7,1.9,3.3,2.9,4.9s1.8,3.2,2.8,4.8c1.9,3.1,4.6,4,8.2,2.7c2.6-1,5.1-2,7.6-3&#10;&#9;&#9;c1.1-0.5,2.5-0.3,3.4,0.5c0.6,0.5,1.3,1,1.9,1.5c1.3,1,2.6,2,3.9,2.9C168.3,349.8,169.1,351.5,168.6,353.1L168.6,353.1z M198,361.2&#10;&#9;&#9;L198,361.2z M141.5,318.4L141.5,318.4z M260.3,317.2L260.3,317.2z M247.6,295.8L247.6,295.8z M194.3,337.6c-2.6,0-5.2-0.3-7.8-1&#10;&#9;&#9;l0,0c-16.4-4.3-26.2-21-21.9-37.4s21-26.2,37.4-21.9c16.4,4.3,26.2,21,21.9,37.4C220.5,328.2,208.3,337.6,194.3,337.6z&#10;&#9;&#9; M187.6,332.7c14.3,3.7,28.8-4.8,32.5-19.1c3.7-14.3-4.8-28.8-19.1-32.5c-14.2-3.7-28.8,4.8-32.5,19.1&#10;&#9;&#9;C164.8,314.4,173.3,329,187.6,332.7L187.6,332.7z"/>
	<path class="st2_settings-64 targetColor" d="M444.1,286.5c-0.2-4.7-3.5-8.7-8.1-9.8c-3.9-0.9-7.9-1.5-11.8-2.1c-1.1-0.1-2-0.8-2.3-1.9&#10;&#9;&#9;c-1.2-3.1-2.5-6.2-3.9-9.3c-0.5-0.8-0.4-1.7,0.2-2.4c2.4-3.3,4.8-6.5,7-9.9c2.6-3.9,2.2-9.1-0.9-12.6c-3.6-4-7.5-7.7-11.3-11.5&#10;&#9;&#9;c-4.4-4.4-10-4.9-15.1-1.4c-3,2.1-5.9,4.2-8.8,6.3c-0.7,0.6-1.7,0.7-2.4,0.2c-3.3-1.5-6.7-2.9-10.1-4.2c-0.9-0.2-1.5-0.9-1.5-1.8&#10;&#9;&#9;l-1.8-10.8c-0.8-5.3-5.2-9.2-10.5-9.4c-5.6-0.1-11.1-0.1-16.7,0c-4.9,0.1-9.1,3.5-10.1,8.3c-0.9,4-1.5,8.1-2.2,12.2&#10;&#9;&#9;c-0.1,0.9-0.7,1.6-1.5,1.8c-3.3,1.3-6.5,2.7-9.7,4.1c-0.7,0.4-1.6,0.4-2.2-0.2c-3.2-2.4-6.4-4.8-9.8-7c-4-2.7-9.2-2.3-12.8,0.8&#10;&#9;&#9;c-4.2,3.9-8.4,7.9-12.3,12.1s-4,9.5-0.7,14.2l6.6,9.3c0.3,0.5,0.4,1.1,0.2,1.7c-1.3,3.5-2.7,7-4.2,10.4c-0.3,0.5-0.7,0.9-1.3,1.1&#10;&#9;&#9;c-3.6,0.7-7.2,1.3-10.8,1.8c-5.4,0.9-9.5,5-9.7,10.2c-0.2,5.8-0.2,11.6,0,17.4c0.2,4.7,3.5,8.6,8,9.7c4.1,0.9,8.3,1.6,12.5,2.3&#10;&#9;&#9;c0.8,0.1,1.5,0.6,1.7,1.4c1.3,3.3,2.7,6.6,4.2,9.8c0.4,0.7,0.3,1.5-0.2,2.1c-2.2,3-4.4,6-6.5,9c-3.4,4.9-2.9,10.4,1.3,14.6&#10;&#9;&#9;c3.5,3.6,7,7.1,10.6,10.6c4.5,4.4,9.9,4.7,15,1.1c3-2.1,6.1-4.3,9-6.5c0.6-0.5,1.4-0.5,2-0.2c3.1,1.3,6.2,2.7,9.3,3.8&#10;&#9;&#9;c1,0.3,1.7,1.2,1.7,2.2c0.5,3.6,1.1,7.1,1.8,10.7c0.9,5.2,4.9,9.2,10,9.3c5.9,0.2,11.7,0.2,17.6,0c4.7-0.2,8.7-3.6,9.7-8.2&#10;&#9;&#9;c0.9-4,1.5-8,2.1-12c0.1-1,0.7-1.8,1.7-2.1c3.3-1.2,6.5-2.6,9.7-4c0.7-0.4,1.5-0.3,2.1,0.2c3,2.2,6,4.3,9,6.5&#10;&#9;&#9;c2.1,1.5,4.7,2.3,7.3,2.2c2.4,0,4.7-1,6.5-2.6c3.8-3.6,7.5-7.4,11.3-11.1c4.6-4.5,5-10.1,1.4-15.4c-2.1-3-4.2-5.9-6.3-8.8&#10;&#9;&#9;c-0.5-0.6-0.6-1.4-0.2-2.1c1.4-3.3,2.8-6.5,4.1-9.9c0.3-0.8,1-1.4,1.9-1.5c3.6-0.5,7.2-1.1,10.8-1.8c5.3-0.7,9.3-5.1,9.5-10.4&#10;&#9;&#9;C444.4,298,444.4,292.2,444.1,286.5z M354.8,333.7c-21.4-0.2-38.7-17.5-38.4-38.6c0.1-21.3,17.3-38.5,38.6-38.4&#10;&#9;&#9;c21.3,0.1,38.5,17.3,38.4,38.6C393.4,316.6,376.1,333.8,354.8,333.7z" style="fill: rgb(104, 225, 253);"/>
	<path class="st1_settings-64" d="M354.8,386.2c-2.9,0-5.9,0-8.9-0.1c-5.9-0.1-10.8-4.6-11.9-11c-0.7-3.8-1.3-7.3-1.8-10.8c0-0.1,0-0.2,0-0.3&#10;&#9;&#9;c0-0.1-0.1-0.3-0.3-0.3c-2.5-0.9-4.9-1.9-7.2-2.9l-2.3-1h0c-3.1,2.3-6.3,4.6-9,6.5c-6,4.2-12.4,3.8-17.5-1.3&#10;&#9;&#9;c-3.6-3.5-7.1-7-10.6-10.6c-4.9-4.9-5.5-11.4-1.5-17.1c2.1-3,4.3-6,6.5-9l0.1-0.1l0,0l0,0c-1.4-3-2.9-6.4-4.2-9.9c0,0,0-0.1,0-0.1&#10;&#9;&#9;h-0.1c-4.2-0.7-8.5-1.4-12.6-2.3c-5.4-1.3-9.3-6-9.6-11.6c-0.2-5.8-0.2-11.7,0-17.6c0.2-6,4.9-11,11.4-12.1&#10;&#9;&#9;c3.5-0.5,7.1-1.1,10.5-1.8c0,0,0.1,0,0.1-0.1c1.4-3.1,2.7-6.5,4.1-10.1l-6.5-9.2c-3.9-5.6-3.6-12,0.9-16.7&#10;&#9;&#9;c4.1-4.4,8.4-8.4,12.4-12.2c4.3-3.8,10.6-4.2,15.3-1c3.4,2.2,6.7,4.7,9.9,7h0l0.1-0.1c3.2-1.4,6.4-2.8,9.8-4.1l0.2-0.1l0,0&#10;&#9;&#9;c0,0,0,0,0-0.1s0-0.1,0-0.1c0.2-1,0.3-2,0.5-2.9c0.5-3.1,1-6.3,1.7-9.4c1.3-5.6,6.2-9.7,12-9.9c5.6-0.1,11.1-0.1,16.8,0&#10;&#9;&#9;c6.3,0.2,11.5,4.9,12.5,11.1l1.8,10.7c0,0.1,0,0.1,0,0.2l0.2,0.1c3.6,1.4,7.1,2.8,10.2,4.2l0.2,0.1l0,0l0.2-0.1&#10;&#9;&#9;c2.9-2.1,5.8-4.2,8.8-6.3c6-4.1,12.6-3.5,17.7,1.6l2.9,2.8c2.8,2.8,5.8,5.7,8.5,8.7c3.7,4.2,4.2,10.4,1.1,15.1&#10;&#9;&#9;c-1.8,2.8-3.9,5.6-5.8,8.3l-1.2,1.7l-0.1,0.1l0,0c0.1,0.1,0.1,0.2,0.1,0.3c1.4,3.1,2.7,6.3,3.9,9.4c0,0.1,0.1,0.2,0.1,0.3&#10;&#9;&#9;c0.1,0.2,0.3,0.3,0.5,0.3h0.1l0.5,0.1c3.7,0.6,7.6,1.2,11.4,2c5.5,1.3,9.4,6.1,9.6,11.7l0,0c0.2,6.5,0.2,12.6,0.1,16.6&#10;&#9;&#9;c-0.3,6.3-5,11.5-11.2,12.3c-3.6,0.7-7.2,1.3-10.9,1.8c-0.1,0-0.2,0-0.3,0.1c0,0,0,0.1,0,0.1c-1.1,2.8-2.2,5.5-3.3,8.1l-0.8,1.9&#10;&#9;&#9;l0,0.1l0,0l0.1,0.1c2,2.8,4.2,5.8,6.3,8.7c4.2,6.2,3.6,12.9-1.6,18c-1.5,1.5-3,3-4.5,4.5c-2.2,2.2-4.5,4.5-6.8,6.7&#10;&#9;&#9;c-2.1,2-4.9,3.1-7.9,3.1c-3,0.1-6-0.8-8.5-2.6c-1.5-1.1-3-2.2-4.5-3.2s-3-2.2-4.5-3.3l0,0h-0.1c-3.2,1.4-6.4,2.8-9.8,4h-0.1&#10;&#9;&#9;c-0.1,0-0.3,0.1-0.3,0.4c0,0,0,0.1,0,0.1c-0.6,4-1.2,8-2.1,12.1c-1.1,5.6-5.9,9.8-11.7,10C360.7,386.1,357.8,386.2,354.8,386.2z&#10;&#9;&#9; M336.2,363.9c0.5,3.3,1,6.8,1.8,10.5c0.8,4.5,4.1,7.6,8.1,7.7c5.9,0.2,11.6,0.2,17.5,0c3.8-0.2,7-2.9,7.8-6.6&#10;&#9;&#9;c0.9-3.9,1.5-8,2.1-11.8c0.2-1.7,1.4-3.2,3-3.7c3.2-1.2,6.4-2.5,9.5-3.9c1.4-0.7,3-0.6,4.2,0.4c1.5,1.1,3,2.1,4.4,3.2&#10;&#9;&#9;s3,2.2,4.5,3.3c1.8,1.2,3.9,1.9,6,1.8c1.9,0,3.8-0.8,5.2-2.1c2.2-2.1,4.5-4.4,6.7-6.6c1.5-1.5,3-3,4.5-4.5&#10;&#9;&#9;c3.8-3.7,4.2-8.3,1.1-12.9c-2-2.9-4.2-5.8-6.2-8.7l0,0c-1-1.2-1.1-2.8-0.4-4.2l0.8-1.8c1.1-2.6,2.2-5.2,3.2-7.8&#10;&#9;&#9;c0.5-1.6,1.9-2.7,3.6-2.9c3.5-0.5,7.1-1.1,10.6-1.8c4.4-0.5,7.7-4.1,7.9-8.5c0.1-3.9,0.1-10-0.1-16.4c-0.2-3.8-2.9-7-6.6-7.9&#10;&#9;&#9;c-3.6-0.8-7.4-1.4-11.1-2l-0.5-0.1c-1.9-0.2-3.5-1.5-4-3.3c-1.1-3-2.4-6-3.7-8.9c-0.9-1.5-0.7-3.3,0.4-4.6l1.2-1.6&#10;&#9;&#9;c2-2.8,3.9-5.3,5.7-8.1c2.1-3.2,1.8-7.3-0.7-10.2c-2.6-2.9-5.5-5.8-8.3-8.6l-2.9-2.9c-3.7-3.7-8.3-4.1-12.5-1.2&#10;&#9;&#9;c-3,2.1-5.9,4.2-8.7,6.2c-1.3,1.1-3.1,1.3-4.6,0.4c-3-1.4-6.3-2.7-9.8-4.1c-1.6-0.4-2.8-1.8-2.9-3.5l-1.8-10.7&#10;&#9;&#9;c-0.6-4.3-4.2-7.6-8.6-7.7c-5.5-0.1-11-0.1-16.6,0c-4,0.1-7.4,2.9-8.2,6.8c-0.7,3-1.2,6.1-1.7,9.1l-0.5,2.9c-0.2,1.6-1.3,3-2.9,3.4&#10;&#9;&#9;c-3.2,1.3-6.4,2.6-9.5,4c-1.4,0.8-3.2,0.6-4.4-0.5c-3.1-2.3-6.3-4.7-9.6-6.9c-3.2-2.2-7.5-1.9-10.4,0.6c-3.9,3.6-8.2,7.7-12.1,11.9&#10;&#9;&#9;c-3.2,3.4-3.4,7.7-0.5,11.7l6.6,9.3l0.1,0.1c0.6,1,0.8,2.2,0.4,3.4c-1.4,3.8-2.8,7.3-4.3,10.6l-0.1,0.2c-0.5,0.9-1.4,1.6-2.4,2&#10;&#9;&#9;c-0.1,0-0.2,0-0.2,0.1c-3.6,0.7-7.3,1.3-10.9,1.8c-4.5,0.8-7.8,4.2-8,8.3c-0.2,5.7-0.2,11.5,0,17.2c0.2,3.8,2.8,7,6.5,7.8&#10;&#9;&#9;c4,0.9,8.2,1.6,12.4,2.3c1.5,0.2,2.8,1.3,3.3,2.7c1.3,3.4,2.7,6.6,4.1,9.5c0.7,1.4,0.6,3-0.4,4.2v0c-2.1,2.9-4.3,5.9-6.4,8.9&#10;&#9;&#9;c-2.9,4.1-2.5,8.5,1.1,12s7,7.1,10.6,10.6c3.8,3.7,8.1,4,12.5,0.9c2.8-1.9,6-4.2,9-6.5c1.1-0.9,2.7-1.1,4-0.4l2.3,1&#10;&#9;&#9;c2.3,1,4.6,2,6.9,2.8C334.9,360.5,336.1,362,336.2,363.9z M322.5,359.8L322.5,359.8z M355.2,335.7h-0.4c-10.9-0.1-21.4-4.5-29-12.3&#10;&#9;&#9;c-7.4-7.5-11.5-17.7-11.4-28.3c0-22.4,18.2-40.5,40.6-40.4c22.4,0,40.5,18.2,40.4,40.6c0,10.9-4.4,21.2-12.1,28.8&#10;&#9;&#9;C375.9,331.5,365.8,335.7,355.2,335.7z M354.9,259.3c-19.9,0-36.1,16-36.5,35.9c-0.1,9.5,3.5,18.7,10.2,25.4&#10;&#9;&#9;c6.9,7.1,16.3,11.1,26.2,11.1l0,0c9.6,0.1,18.8-3.7,25.6-10.4c14.3-13.8,14.7-36.7,0.9-51c-6.7-7-16-10.9-25.7-11L354.9,259.3z"/>
</g>
</svg>