<svg id="_0578_team_presentation_7" xmlns="http://www.w3.org/2000/svg" xmlns:xlink="http://www.w3.org/1999/xlink" viewBox="0 0 500 500" data-imageid="team-presentation-7-18" imageName="Team Presentation 7" class="illustrations_image" style="width: 166px;"><defs><style>.cls-1_team-presentation-7-18{fill:#020202;opacity:.1;}.cls-1_team-presentation-7-18,.cls-2_team-presentation-7-18,.cls-3_team-presentation-7-18,.cls-4_team-presentation-7-18,.cls-5_team-presentation-7-18,.cls-6_team-presentation-7-18,.cls-7_team-presentation-7-18,.cls-8_team-presentation-7-18,.cls-9_team-presentation-7-18,.cls-10_team-presentation-7-18,.cls-11_team-presentation-7-18,.cls-12_team-presentation-7-18,.cls-13_team-presentation-7-18,.cls-14_team-presentation-7-18{stroke-width:0px;}.cls-1_team-presentation-7-18,.cls-3_team-presentation-7-18{isolation:isolate;}.cls-2_team-presentation-7-18{fill:url(#linear-gradient);}.cls-3_team-presentation-7-18{opacity:.18;}.cls-3_team-presentation-7-18,.cls-14_team-presentation-7-18{fill:#68e2fd;}.cls-4_team-presentation-7-18{fill:url(#linear-gradient-4-team-presentation-7-18);}.cls-5_team-presentation-7-18{fill:url(#linear-gradient-2-team-presentation-7-18);}.cls-6_team-presentation-7-18{fill:url(#linear-gradient-3-team-presentation-7-18);}.cls-7_team-presentation-7-18{fill:url(#linear-gradient-5-team-presentation-7-18);}.cls-8_team-presentation-7-18{fill:url(#linear-gradient-6-team-presentation-7-18);}.cls-9_team-presentation-7-18{fill:#473f47;}.cls-10_team-presentation-7-18{fill:#231f20;}.cls-11_team-presentation-7-18{fill:#c14834;}.cls-12_team-presentation-7-18{fill:#fff;}.cls-13_team-presentation-7-18{fill:#ffb4a3;}</style><linearGradient id="linear-gradient-team-presentation-7-18" x1="-1546.41" y1="4794.26" x2="-1561.37" y2="4592.26" gradientTransform="translate(1770.67 5029.39) scale(1 -1)" gradientUnits="userSpaceOnUse"><stop offset="0" stop-color="#231f20"/><stop offset=".08" stop-color="#231f20" stop-opacity=".69"/><stop offset=".21" stop-color="#231f20" stop-opacity=".32"/><stop offset="1" stop-color="#231f20" stop-opacity="0"/></linearGradient><linearGradient id="linear-gradient-2-team-presentation-7-18" x1="187.76" y1="320.6" x2="187.76" y2="426.57" gradientTransform="matrix(1,0,0,1,0,0)" xlink:href="#linear-gradient-team-presentation-7-18"/><linearGradient id="linear-gradient-3-team-presentation-7-18" x1="356.5" y1="313.61" x2="367.9" y2="406.16" gradientTransform="matrix(1,0,0,1,0,0)" xlink:href="#linear-gradient-team-presentation-7-18"/><linearGradient id="linear-gradient-4-team-presentation-7-18" x1="80.42" y1="302.12" x2="91.82" y2="394.67" gradientTransform="matrix(1,0,0,1,0,0)" xlink:href="#linear-gradient-team-presentation-7-18"/><linearGradient id="linear-gradient-5-team-presentation-7-18" x1="149.23" y1="265.23" x2="263.25" y2="424.86" gradientTransform="matrix(1,0,0,1,0,0)" xlink:href="#linear-gradient-team-presentation-7-18"/><linearGradient id="linear-gradient-6-team-presentation-7-18" x1="67.95" y1="264.63" x2="128.98" y2="260.27" gradientTransform="matrix(1,0,0,1,0,0)" xlink:href="#linear-gradient-team-presentation-7-18"/></defs><g id="background_team-presentation-7-18"><path class="cls-3_team-presentation-7-18" d="M306.13,85.24c19.74,10.25,36.13,25.74,51.47,42.08,20.79,22.15,47.28,37.65,71.5,55.6,27.45,20.34,53.76,46.48,59.94,80.08,2.63,14.31,1.38,29.13-1.81,43.33-3.73,16.62-10.14,32.69-19.37,47-18.81,29.16-49.04,50.12-82.14,60.53-33.11,10.41-68.91,10.69-102.95,3.95-17.78-3.52-35.36-8.93-53.48-9.4-13.73-.35-27.35,2.15-40.96,3.96-41.78,5.57-86.29,4.21-123.26-16.04-23.18-12.7-43.29-34.49-45.97-60.79-3.07-30.14,16.35-56.1,36.04-76.64,16.52-17.23,29.76-34.85,41.73-55.27,5.15-8.78,10.44-15.73,13.6-25.7,3.02-9.53,4.9-19.41,8.45-28.77,4.04-10.63,10.32-20.39,18.32-28.47,13.02-13.15,30.03-21.45,46.69-29.51,9.76-4.72,19.55-9.45,29.84-12.83,23.58-7.74,49.53-8.05,73.29-.88,6.71,2.03,13.04,4.66,19.06,7.79Z"/><path class="cls-2_team-presentation-7-18" d="M176.93,318.32c-7.27,1.31-14.72,2.75-20.98,6.65-2.16,1.34-4.26,3.2-4.57,5.7-.35,2.77,1.76,5.37,4.3,6.54,2.54,1.16,5.43,1.21,8.22,1.21,10.9.07,21.81.13,32.71.2,8.07.05,16.14.1,24.21.15,2.93.02,6.3-.43,9.19.05,5.27.88,9.85,3.46,15.47,3.72,7.25.34,14.49-1,21.57-2.38,4.44-.87,8.97-1.77,12.84-4.11,1.55-.94,3.12-2.41,3-4.22-.07-1.1-.77-2.06-1.53-2.85-5.52-5.69-14.55-5.22-22.28-6.98-8.23-1.87-15.64-6.61-23.97-7.98-3.8-.63-7.68-.53-11.53-.44-6.87.17-13.82-.74-20.59.31-8.71,1.35-17.36,2.98-26.05,4.43Z"/><path class="cls-5_team-presentation-7-18" d="M254.22,379.66c1.79.58,3.63,1.25,4.99,2.55,3.76,3.6,1.92,10.41-2.25,13.52-4.17,3.12-9.67,3.59-14.85,4.03-17.22,1.48-34.37,3.89-51.33,7.24-16.49,3.25-33.22,7.37-50.15,6.75-5.95-.22-20.61-.5-24.91-5.33-5.53-6.22,6.28-13.42,11.19-16.83,20.26-14.06,43.99-10.87,67.4-14.41,19.89-3.01,40.53-3.74,59.9,2.49Z"/><path class="cls-6_team-presentation-7-18" d="M337.94,345.79c-2.75.86-5.55,2.24-7.04,4.71-.84,1.39-1.19,3.02-1.72,4.56-1.9,5.49-6.39,10.01-11.85,11.97-1.57.56-3.33,1.01-4.31,2.35-1.03,1.41-.82,3.45.12,4.92s2.48,2.45,4.06,3.19c5.8,2.72,12.56,2.72,18.84,1.49,6.29-1.24,12.28-3.63,18.39-5.56,7.89-2.5,16.02-4.24,24.24-5.19,6.51-.75,13.15-1.02,19.4-3.02,6.24-2,12.22-6.07,14.62-12.17-7.79-7.99-20.22-8.95-31.34-8.09-14.25,1.1-29.52-3.52-43.41.84Z"/><path class="cls-4_team-presentation-7-18" d="M61.86,334.3c-2.75.86-5.55,2.24-7.04,4.71-.84,1.39-1.19,3.02-1.72,4.56-1.9,5.49-6.39,10.01-11.85,11.97-1.57.56-3.33,1.01-4.31,2.35-1.03,1.41-.82,3.45.12,4.92s2.48,2.45,4.06,3.19c5.8,2.72,12.56,2.72,18.84,1.49,6.29-1.24,12.28-3.63,18.39-5.56,7.89-2.5,16.02-4.24,24.24-5.19,6.51-.75,13.15-1.02,19.4-3.02,6.24-2,12.22-6.07,14.62-12.17-7.79-7.99-20.22-8.95-31.34-8.09-14.25,1.1-29.52-3.52-43.41.84Z"/></g><g id="character_4_team-presentation-7-18"><path class="cls-13_team-presentation-7-18" d="M221.3,307.02c-6.1-1.38-4.91,7.27-6.51,10.48-.85,1.72-2.39,2.97-3.77,4.32s-2.67,2.99-2.75,4.91c-.03.36.04.72.22,1.04.3.38.73.64,1.21.73,3.48,1.01,7.22.65,10.44-1.03,1.5-.72,2.75-1.88,3.58-3.32.67-1.55.98-3.23.92-4.92.14-3.61,1.73-11.07-3.35-12.2Z"/><path class="cls-14_team-presentation-7-18" d="M215.9,324.82s-17.35.74-10,6.19c7.35,5.45,18.32-1.33,19.39-2.58,1.07-1.24.2-3.37.2-3.37l-9.59-.24Z"/><path class="cls-12_team-presentation-7-18" d="M224.53,327.21c-1.55,1.89-9.7,4.42-13.3,4.16-3.61-.26-6.85-1.94-6.5-4.27.35-2.33,6.73-7.76,7.92-7.75s2.15,2.79,4.56,3.36c2.19.36,4.41-.44,5.87-2.1.45-.62,1.28-.84,1.98-.51.83,1.2,1.02,5.23-.53,7.11Z"/><path class="cls-13_team-presentation-7-18" d="M242.21,310.43c-6.1-1.41-4.91,7.23-6.51,10.44-.84,1.73-2.39,2.98-3.77,4.33-1.37,1.35-2.67,2.99-2.74,4.91-.04.36.04.72.21,1.04.3.38.73.64,1.21.73,3.48,1.01,7.22.64,10.44-1.03,1.5-.72,2.75-1.88,3.58-3.32.67-1.55.98-3.23.92-4.92.14-3.65,1.73-11.09-3.35-12.17Z"/><path class="cls-14_team-presentation-7-18" d="M236.82,328.15s-17.35.73-10,6.19c7.35,5.46,18.32-1.32,19.39-2.57,1.07-1.24.2-3.38.2-3.38l-9.59-.24Z"/><path class="cls-12_team-presentation-7-18" d="M245.45,330.51c-1.55,1.89-9.7,4.42-13.3,4.17s-6.85-1.94-6.5-4.27,6.73-7.76,7.92-7.75,2.15,2.79,4.56,3.36c2.19.36,4.41-.44,5.87-2.1.45-.62,1.28-.83,1.98-.51.83,1.22,1.02,5.21-.53,7.11Z"/><path class="cls-9_team-presentation-7-18" d="M226.49,231.73l8.15,85.79,11.75-1.45c4.64-20.93,3.5-83.56,3.5-83.56l-23.41-.78Z"/><path class="cls-9_team-presentation-7-18" d="M234.64,229.41l-8.15,85.79-11.78-1.45c-6.72-54.29-1.18-88.08-1.18-88.08l21.11,3.74Z"/><path class="cls-12_team-presentation-7-18" d="M214.57,198.38c-.14-1.57-.56-3.13-.73-4.74-.38-3.24-.32-6.51.18-9.73.55-3.43,1.58-6.77,3.07-9.91,1.36-2.72,3.81-3.88,6.56-5.24,2.31-1.25,4.81-2.1,7.39-2.51,1.83-.17,3.67-.06,5.47.31,5.54,1.05,12.84,3.91,16.62,8.28,2.84,3.28,3.18,7.98,3.27,12.32.12,6,0,11.98-.37,17.97-.05.87-.1,1.73-.18,2.6-.51,6.57-1.04,13.38-2.91,19.73-.59,1.99-1.21,3.99-3.05,5.06-4.33,2.52-10.96,1.13-15.64.48-6.21-.88-12.59-1.81-18.1-4.82-1.15-.5-2.08-1.39-2.62-2.52-.48-1.35.1-2.81.52-4.18,1.86-6.13.42-12.57.42-18.83,0-1.13.14-2.29.14-3.42,0-.28-.05-.57-.05-.85Z"/><path class="cls-1_team-presentation-7-18" d="M229.64,174.16c.64-1.17,1.34-2.29,2.2-3.3.11-.13.24-.27.4-.32.14-.04.29-.02.44,0,1.77.28,3.54.57,5.3.85.25.04.5.08.7.24.18.14.28.34.36.55.45,1.23.04,2.6-.5,3.79-1.38,3.06-3.53,5.69-5.47,8.42-1.15,1.62-2.25,3.32-3.03,5.15-.4.93-.52,1.96-.91,2.87-.35.82-1.14.44-1.87.29-2.73-.57-5.46-1.15-8.19-1.72-1.37-.29-2.73-.57-4.1-.86-.59-.12-1.07-.12-.76-.82.18-.42.63-.73,1.05-.87.63-.22,1.31-.2,1.97-.31,1.38-.23,2.59-1.02,3.75-1.8.86-.58,1.71-1.18,2.48-1.88,2.96-2.72,4.25-6.72,6.18-10.26Z"/><path class="cls-12_team-presentation-7-18" d="M220.72,168.92c.61-.7,1.28-1.42,2.16-1.71,1.95-.66,3.87.97,5.88,1.43,1.5.34,3.37.15,4.27,1.41.69.98.38,2.32.03,3.46-1.67,5.38-3.74,10.64-6.19,15.72-.98,2.04-2.25,3.86-3.29,5.81-1.14,2.15-1.44,4.43-3.12,6.35-1.78,2.04-4.73,3.29-7.25,2.3-1.26-.49-2.28-1.49-3.05-2.6-3.11-4.48-.93-9.27.78-13.78,1.2-3.16,9.17-17.69,9.78-18.39Z"/><path class="cls-1_team-presentation-7-18" d="M247.51,233.27c-2.08.38-4.57,1.88-6.72,1.48-2.61-1.3-4.82-1.71-7.62-2.04-3.63-.42-7.29-2.04-10.78-3.14-1.41-.44-2.88-.92-3.9-1.98-2.09-2.17-1.47-5.65-1.04-8.63.63-4.36.53-8.82-.27-13.15-.37-1.97-.79-4.09-1.59-5.94-.65-1.5-1.68-2.48-1.43-4.27.22-1.57,1.3-3.41,3.06-3.54.93-.07,1.8.38,2.64.8,2.27,1.14,4.64,2.13,7.15,2.52,6.05.94,12.39-2.26,15.64-7.38,1.63-2.58,3.25-14.45,7.81-12.8,2.99,1.08,5.15,3.88,6.21,6.9,1.05,3.02,1.1,6.27,1.1,9.48-.1,8.28-1.75,16.86-2.82,25.14-.41,3.13-.9,14.77-5.04,15.79-.8.21-1.61.62-2.41.76Z"/><path class="cls-13_team-presentation-7-18" d="M217.93,186.86c-1.51-.96-3.53-1.11-5.13-.32s-2.73,2.52-2.71,4.31c.01,1.21.5,2.37,1.14,3.4.4.64.88,1.26,1.51,1.69.94.63,2.13.76,3.26.68,1.01-.07,2.03-.3,2.92-.8,1.33-.75,3.06-2.9,2.62-4.57-.4-1.5-2.31-3.58-3.59-4.39Z"/><path class="cls-12_team-presentation-7-18" d="M254.68,176.55c5.03,8.32,6.78,18.14,8.43,27.72.2,1.18.41,2.4.15,3.57-.47,2.14-2.43,3.7-4.53,4.32s-4.34.49-6.53.35c-4.69-.31-10.23-.71-14.2-3.42-1.37-.93-2.58-2.09-3.97-2.98-1.33-.85-2.79-1.45-4.22-2.11-2.77-1.29-5.42-2.84-7.91-4.62-.81-.58-1.64-1.23-2.08-2.12-.81-1.62-.18-3.55.46-5.24.16-.42.34-.86.73-1.09.46-.27,1.04-.12,1.55.03,6.7,1.99,13.53,3.52,20.44,4.57,1.9.29,1.06-1.78.82-2.87-.35-1.53-.81-3.04-1-4.61-.53-4.46,1.33-9.13,4.78-12,.92-.76,2-1.43,3.19-1.5s3.27.98,3.89,2Z"/><path class="cls-13_team-presentation-7-18" d="M229.26,157.05c-.18-.83-.29-1.69-.38-2.52-.4-3.51-.74-7.29,1.01-10.36,1.46-2.54,4.33-4.21,7.26-4.22s5.81,1.65,7.27,4.19c1.08,1.88,1.4,4.12,1.27,6.28-.13,2.16-.67,4.28-1.21,6.38-.57,2.22-2.02,3.59-2.86,5.61-.35.84-.35,1.81-.39,2.71-.03.49.24,3.96-.02,4.14-1.36.9-2.91,1.45-4.53,1.61-.76,0-1.51-.14-2.22-.38-.4-.08-.76-.31-1-.65-.11-.3-.14-.62-.08-.93.03-.3.08-.59.08-.88,0-1.43.31-3.06-.08-4.47-.35-1.28-1.39-2.01-2.3-2.87-1.01-.96-1.52-2.26-1.82-3.64Z"/><path class="cls-10_team-presentation-7-18" d="M227.12,141.06c-.11-.89-.13-1.88.41-2.6.36-.47.91-.76,1.47-.97.59-.23,1.21-.39,1.83-.48.31-.05.64-.08.9-.26.24-.17.39-.43.57-.67.83-1.09,2.33-1.46,3.7-1.42s2.72.41,4.09.47c1.45.06,3.03-.19,4.26.58.99.62,1.52,1.77,1.83,2.9.48,0,1.01,0,1.37.32.75.69.05,2.09.66,2.91.3.4.85.56,1.13.98.25.37.22.86.18,1.3-.04.48-.09.97-.21,1.44-.33,1.3-1.21,2.41-1.59,3.7-.2.69-.25,1.41-.42,2.11-.37,1.55-1.3,2.9-2.21,4.22.68-3.11.76-6.36.23-9.5-.05-.28-.14-.61-.41-.71-.19-.06-.39.01-.57.09-3.13,1.25-6.7,1.4-9.92.39-.97-.3-1.97-.71-2.96-.48-.42.1-.81.31-1.23.44-.42.13-.85.13-1.25-.05-.08.17-.13.36-.13.55-.78-.18-.73-1.3-.94-1.91-.37-1.09-.63-2.22-.78-3.36Z"/><path class="cls-1_team-presentation-7-18" d="M230.14,158.66c1.61-.19,3.2-.51,4.76-.96.54-.15,1.19-.29,1.6.09.2.19.28.47.36.74.16.54.32,1.11.25,1.67-.05.48-.26.92-.39,1.39s-.15,1,.13,1.39c.38.53,1.23.69,1.37,1.32.11.5-.29.88-.43,1.32-.16.5-.26,1.09-.32,1.62-.07.63-.05,1.29-.29,1.88-.26.62-.82,1.11-1.47,1.28s-1.38.01-1.91-.41c-.79-.63-1.04-1.71-1.24-2.7-.22-1.07-.43-2.13-.65-3.2-.22-1.11-.45-2.22-.87-3.28-.29-.74-.9-1.43-1.33-2.11.14-.01.27-.03.41-.05Z"/><path class="cls-13_team-presentation-7-18" d="M236.33,159.53c.46,1.17-1.06,2.38-.7,3.58.07.2.19.39.21.61.06.5-.32.93-.38,1.41-.05.51.04,1.07-.04,1.61-.08.67-.21,1.37-.64,1.88s-1.1.76-1.73.96c-1.36.44-2.78.82-4.19.76-.6-.02-1.18-.12-1.77-.23-.94-.15-3.37-.07-3.53-1.35-.08-.66.38-1.43.57-2.04.11-.35.2-.69.3-1.04.12-.43.23-.86.32-1.29.45-2.05.76-4.34,2.33-5.73.4-.37,1.08-.63,1.44-.23.3.33.25.99.68,1.1.14.04.3-.01.43-.07,1.64-.57,3.37-1.19,5.09-.94.66.1,1.36.38,1.61.99Z"/><path class="cls-13_team-presentation-7-18" d="M247.69,152.41c.08.12.12.26.15.4.18.81,0,1.67-.42,2.38-.42.71-1.09,1.26-1.83,1.61-.41.19-.9.32-1.3.12-.45-.22-.62-.77-.7-1.26-.16-1.02-.05-2.12.65-2.94.45-.53,1.4-.88,2.07-.84.47.03,1.11.09,1.39.52Z"/><path class="cls-12_team-presentation-7-18" d="M232.32,209.51c-.32-.32-.67-.61-1.05-.85.25,4.42.98,9.03,3.68,12.53.65.84,1.41,1.61,1.96,2.53,1.19,2,1.29,4.6,2.82,6.36,1.21,1.39,3.09,1.98,4.88,2.4,1.63.38,3.46.65,4.91-.2,1.32-.77,2-2.28,2.6-3.69,1.04-2.46,2.94-6.03,1.37-8.7-1.11-1.89-4.65-3.39-6.79-3.39-2.96-.66-5.79-1.81-8.6-2.96-1.36-.55-2.74-1.12-3.86-2.08-.69-.59-1.27-1.32-1.92-1.95Z"/></g><g id="character_3_team-presentation-7-18"><path class="cls-12_team-presentation-7-18" d="M328.74,205.27c-1.12.82-2.32,1.63-3.7,1.78-1.24.14-2.47-.26-3.66-.65-5.91-1.97-11.82-3.93-17.73-5.9-2.75,1.98-3.44,6.28-1.46,9.02,1.51,2.09,4.09,3.07,6.51,3.94,4.05,1.46,8.1,2.91,12.15,4.37,2.43.87,4.89,1.75,7.46,1.92,3.57.24,7.07-.91,10.46-2.04,3.63-1.21,7.61-2.71,9.34-6.12,1.82-3.59.48-7.92,1-11.91.34-2.6,1.49-5.09,1.43-7.71-.05-2.24-1.84-5.61-4.51-5.14-2.3.4-3.83,4.4-5.05,6.08-3.42,4.71-7.56,8.9-12.25,12.35Z"/><path class="cls-13_team-presentation-7-18" d="M301.43,199.49c-.22-.46-.45-.94-.83-1.28s-.95-.52-1.41-.3c-.49.24-.7.85-.68,1.4,0,.19.02.41-.12.54-.14.13-.36.1-.55.07-2.02-.39-4.05-.69-6.09-.89-.17-.02-.34-.03-.51,0-.7.12-1.03,1-.88,1.69.15.69.62,1.26.99,1.87,1.04,1.71,1.43,3.95,3.1,5.06.97.64,2.2.76,3.36.7s2.32-.28,3.49-.22c.79.04,1.66.19,2.32-.25.56-.37.81-1.08.79-1.75-.03-1.12-.6-1.99-1.1-2.94-.65-1.22-1.27-2.45-1.87-3.69Z"/><path class="cls-13_team-presentation-7-18" d="M350.87,332.92c-6.79-1.54-5.46,8.09-7.25,11.67-.95,1.91-2.66,3.31-4.19,4.81-1.53,1.5-2.97,3.33-3.06,5.47-.04.4.05.8.24,1.15.34.42.82.71,1.35.81,3.88,1.13,8.04.72,11.62-1.14,1.67-.8,3.06-2.09,3.99-3.7.74-1.73,1.09-3.6,1.03-5.48.15-4.01,1.93-12.33-3.73-13.59Z"/><path class="cls-14_team-presentation-7-18" d="M344.86,352.74s-19.32.82-11.14,6.89c8.18,6.07,20.4-1.48,21.59-2.87,1.19-1.39.22-3.75.22-3.75l-10.67-.27Z"/><path class="cls-12_team-presentation-7-18" d="M354.47,355.4c-1.73,2.1-10.8,4.92-14.81,4.63-4.01-.29-7.62-2.16-7.23-4.76s7.49-8.64,8.82-8.63,2.4,3.1,5.08,3.75c2.44.4,4.91-.49,6.53-2.34.5-.69,1.42-.93,2.2-.57.92,1.33,1.14,5.82-.59,7.92Z"/><path class="cls-13_team-presentation-7-18" d="M374.15,336.72c-6.79-1.57-5.46,8.05-7.25,11.62-.94,1.92-2.66,3.32-4.19,4.82-1.53,1.5-2.97,3.33-3.05,5.47-.04.4.04.8.23,1.15.34.42.82.71,1.35.81,3.88,1.13,8.04.72,11.62-1.14,1.67-.8,3.06-2.09,3.99-3.7.74-1.73,1.09-3.6,1.03-5.48.15-4.06,1.93-12.34-3.73-13.55Z"/><path class="cls-14_team-presentation-7-18" d="M368.15,356.45s-19.32.81-11.14,6.89c8.18,6.08,20.4-1.47,21.59-2.86,1.19-1.39.22-3.76.22-3.76l-10.67-.27Z"/><path class="cls-12_team-presentation-7-18" d="M377.76,359.08c-1.73,2.11-10.8,4.93-14.81,4.64s-7.62-2.15-7.23-4.76,7.49-8.64,8.82-8.63,2.4,3.1,5.08,3.74c2.44.4,4.91-.49,6.53-2.34.5-.69,1.43-.92,2.2-.56.92,1.36,1.14,5.8-.59,7.91Z"/><path class="cls-9_team-presentation-7-18" d="M356.65,249.1l9.07,95.51,13.09-1.62c5.17-23.3,3.9-93.03,3.9-93.03l-26.06-.87Z"/><path class="cls-9_team-presentation-7-18" d="M365.73,246.52l-9.07,95.51-13.11-1.62c-7.48-60.44-1.31-98.06-1.31-98.06l23.5,4.17Z"/><path class="cls-12_team-presentation-7-18" d="M343.38,211.98c-.16-1.75-.63-3.49-.81-5.27-.43-3.6-.36-7.25.21-10.83.61-3.82,1.76-7.53,3.41-11.03,1.51-3.03,4.24-4.32,7.3-5.83,2.57-1.39,5.35-2.34,8.23-2.8,2.03-.19,4.09-.07,6.09.34,6.17,1.17,14.29,4.35,18.5,9.22,3.16,3.66,3.54,8.89,3.64,13.72.13,6.67,0,13.34-.41,20.01-.05.97-.12,1.93-.2,2.9-.56,7.31-1.16,14.9-3.24,21.96-.65,2.22-1.35,4.44-3.4,5.63-4.82,2.81-12.2,1.26-17.41.54-6.92-.98-14.02-2.01-20.15-5.36-1.28-.55-2.31-1.55-2.91-2.81-.54-1.5.12-3.13.58-4.66,2.07-6.82.46-14,.46-20.96,0-1.26.16-2.55.16-3.81,0-.31-.05-.63-.05-.95Z"/><path class="cls-1_team-presentation-7-18" d="M362.71,244.05c.03-.73.06-1.52.52-2.09.78-.97,2.28-.76,3.48-.46,2.59.64,5.19,1.29,7.78,1.93,2.93.73,7.46,3.62,8.21,6.54,2.99-2.11,3.77-5.62,4.32-9.24.55-3.62.58-10.64,1.23-14.25-3.39,2.68-8.69,4.33-13.02,4.44-4.42.11-9.97.04-11.58-4.83-1.84-5.57-2.48-11.42-3.72-17.13-.06-.27-.13-.56-.36-.72-.19-.14-.45-.14-.69-.14-5.6.06-11.2.12-16.8.18-.26,0-.53,0-.76.14-.49.29-.49.99-.4,1.55.61,3.76,2.55,7.29,5.39,9.82,1.37,1.22,2.26,1.98,2.52,3.75.32,2.1.24,4.33.46,6.46.46,4.46,1.25,8.92,2.91,13.11,2.38,6,10.04,10.68,10.49.94Z"/><polygon class="cls-14_team-presentation-7-18" points="358.14 248.89 333.13 248.89 330.02 210.01 355.03 210.01 358.14 248.89"/><path class="cls-13_team-presentation-7-18" d="M356.68,166.62c.03-1.83.14-3.69.34-5.48.17-1.59.42-3.19.73-4.76.21-1.02.32-1.8,1.22-2.41,2.45-1.51,5.28-2.28,8.16-2.23,2.17,0,4.51.52,5.94,2.14.98,1.25,1.55,2.77,1.64,4.35.44,4.01-.61,8.01-1.19,12.01-.45,3.09-.62,6.22-.49,9.34-1.51,1-3.24,1.61-5.04,1.79-.84,0-1.68-.15-2.48-.42-.45-.09-.85-.35-1.11-.72-.12-.33-.16-.69-.09-1.04.04-.33.09-.65.09-.98h0c.13-1.83.09-3.66-.11-5.48,0-.15-.05-.3-.16-.41-.11-.06-.25-.08-.38-.06h-.51c-.91.07-1.83.05-2.74-.04-1.09-.12-2.1-.62-2.84-1.42-.96-1.06-1.05-2.69-1-4.15Z"/><path class="cls-11_team-presentation-7-18" d="M360.38,154.86c-.72.13-1.2.36-1.98-.03-.67-.34-1.18-.92-1.58-1.56-.29-.45-.52-.94-.67-1.46-.57-2.02.38-4.29,2.05-5.57s3.91-1.64,5.99-1.31c.51-.39,1.16-.54,1.79-.68,2.5-.55,5.11-1.1,7.59-.46,1.44.37,2.76,1.13,3.97,2,1.12.8,2.2,1.73,2.89,2.92.83,1.42,1.06,3.1,1.34,4.72.31,1.78.69,3.57.64,5.38-.02.79-.13,1.58-.43,2.31-.34.82-.9,1.53-1.52,2.17-.93.96-2,1.78-3.17,2.43-.81.45-1.76.92-2.03,1.81-.12.41-.08.84-.12,1.26-.06.63-.29,1.21-.72,1.68-.27.3-.76,1.05-1.17,1.12-.46.08-.77-.39-.89-.81-.5-1.81-.37-3.74.37-5.46.52-.84.83-1.79.89-2.78-.1-.97-1.42-1.74-2.06-1.17s-.75,1.98-1.53,1.7c.89-2.78-.27-6.28-2.95-7.38-1.4-.57-2.95-.5-4.42-.61-.69-.05-1.51-.34-2.16-.24-.04,0-.08.01-.12.02Z"/><path class="cls-13_team-presentation-7-18" d="M363.27,172.24c2.12-.4,4.19-1.01,6.18-1.83.18,6.45-5.06,7.78-5.06,7.78h0c.13-1.83.09-3.66-.11-5.48,0-.15-.05-.3-.16-.41-.11-.06-.25-.08-.38-.06h-.51.04Z"/><path class="cls-12_team-presentation-7-18" d="M394.23,208.67c.99,4.34,1.99,8.69,2.98,13.03.25,1.1.5,2.22.39,3.34-.21,2.1-1.66,3.84-3.04,5.44-1.84,2.13-3.75,4.31-6.27,5.54-1.66.81-3.51,1.16-5.33,1.44-4.86.74-9.8,1.01-14.72.81-.39-.02-.79-.04-1.13-.22-.37-.2-.62-.56-.85-.91-1.72-2.59-3.2-5.35-4.42-8.21,3.93-2.65,8.28-4.69,12.83-6.02.9-.26,1.85-.53,2.49-1.21.5-.54.73-1.28.9-2,1.93-8.34-2.54-17.63,1.04-25.4,2.04-4.43,6.39-9.19,9.58-3.26,2.91,5.41,4.2,11.7,5.56,17.63Z"/><path class="cls-13_team-presentation-7-18" d="M358.42,229.02c-.57-.36-1.09-.81-1.71-1.07s-1.39-.32-1.93.08c-.27.2-.47.5-.79.61-.21.07-.43.05-.65.03-1.33-.13-2.65-.26-3.98-.4-.64-.06-1.4-.09-1.82.4-.51.59-.2,1.5.15,2.2,1.02,2.07,2.16,4.08,3.4,6.03.25.39.5.78.85,1.07.44.37.99.56,1.55.7,2.03.51,4.19.36,6.19-.26s3.84-1.68,5.48-2.97c.23-.18.46-.37.61-.62.18-.28.24-.62.28-.95.19-1.53-.3-4.01-2.3-3.9-1.97.11-3.58.17-5.34-.96Z"/></g><g id="character_2_team-presentation-7-18"><path class="cls-13_team-presentation-7-18" d="M270.31,216.99c.4-.35,1.03-.61,1.44-.26.29.24.31.66.32,1.04.01.71.02,1.42.03,2.13,3.63-1.1,6.37-4.01,9.04-6.72.56-.57,1.38-1.17,2.07-.78.53.3.62,1.04.49,1.63-.13.59-.41,1.16-.41,1.77,0,.97.7,1.82.8,2.79.11,1.18-.7,2.27-.81,3.45-.03.39.01.8-.05,1.19-.11.73-.58,1.36-1.04,1.94-1.32,1.71-2.71,3.48-4.65,4.44-1.25.62-2.64.85-4.01,1.09-1.44.24-2.89.49-4.33.73-.43.07-.88.14-1.29,0-1.29-.44-1.7-2.56-1.66-3.73.04-1.16.71-2.02,1.14-3.06,1.03-2.45.75-5.79,2.91-7.65Z"/><path class="cls-13_team-presentation-7-18" d="M142.36,203.87c-.28-.45-.81-.89-1.3-.68-.34.15-.5.54-.61.89-.22.67-.44,1.35-.67,2.02-3.14-2.13-4.89-5.73-6.63-9.1-.37-.71-.97-1.53-1.75-1.36-.59.13-.9.8-.96,1.41s.05,1.23-.13,1.81c-.28.93-1.21,1.53-1.59,2.42-.46,1.1,0,2.37-.26,3.53-.08.39-.25.76-.3,1.15-.11.73.15,1.47.41,2.16.75,2.03,1.55,4.13,3.12,5.62,1.01.96,2.27,1.6,3.51,2.23,1.31.66,2.61,1.32,3.92,1.99.39.2.79.4,1.23.39,1.36-.03,2.38-1.94,2.69-3.07s-.07-2.14-.18-3.26c-.25-2.64,1-5.75-.5-8.17Z"/><path class="cls-10_team-presentation-7-18" d="M179.58,397.64c.02.09.05.19.09.28.54,1.39,2.25,1.85,3.73,2.02,1.37.16,2.76.22,4.14.2.65-.01,1.32-.05,1.93-.27.6-.22,1.12-.61,1.64-.99,1.32-.98,2.65-1.97,3.97-2.95,1.09-.81,2.19-1.63,3.04-2.69.85-1.06,1.43-2.39,1.32-3.74s-1.06-2.67-2.38-2.96c-.82-.18-1.66.04-2.5.08-1.71.08-4.08-.63-4.73-2.35-.27-.71-.5-1.52-1.15-1.91-.54-.33-1.22-.28-1.84-.22-1.38.13-2.78.27-4.06.8s-2.44,1.53-2.81,2.87c-.17.6-.17,1.24-.17,1.86,0,1.34.11,2.54-.05,3.88-.19,1.62-.28,3.25-.27,4.88,0,.41.01.83.12,1.23Z"/><path class="cls-10_team-presentation-7-18" d="M218.18,398.15c-2.68,1.23-5.44,2.28-8.26,3.15-1.15.36-2.43.68-3.54.2-.95-.41-1.59-1.35-1.89-2.34-.3-.99-.3-2.04-.31-3.08,0-1.73.71-3.06.99-4.71.24-1.43.45-2.87.65-4.3.29-2.05.56-4.1.81-6.15,0,0,7.15,1.53,7.15,1.53.75.16,1.47,3.05,1.91,3.66.65.9,1.76,1.47,2.87,1.52,1.24.05,2.47-.5,3.7-.3,1.6.27,2.76,1.88,2.83,3.5.07,1.62-.76,3.18-1.92,4.31s-2.62,1.9-4.09,2.59c-.3.14-.6.28-.9.42Z"/><path class="cls-14_team-presentation-7-18" d="M218.3,390.16s-2.6,1.52-5.84,2.8c-.07.03-.13.05-.2.08-3.32,1.29-7.02-3.91-7.02-3.91,0,0-4.68-28.92-4.46-40.9.15-8.22-1.8-19.95-4.73-41.24-.75,21.74-4.42,31.28-3.48,39.08,1.43,11.85-.28,41.28-.28,41.28,0,0-3.13,5.73-6.57,4.96l-.2-.04c-3.35-.76-6.08-1.87-6.08-1.87,0,0-4-40.52-4-51.22s.44-20.25.44-20.25l-2.09-33.85,8.93-12.95.72-.31.69-.68,9.89-7.25s-.07,1.69-.19,4.58l7.68,4.12.75.56.75.19,12.86,2.29s3.37,51.91,4.46,62.53c1.09,10.61-2.03,52-2.03,52Z"/><path class="cls-7_team-presentation-7-18" d="M218.3,390.16s-2.6,1.52-5.84,2.8c-.07.03-.13.05-.2.08-3.32,1.29-7.02-3.91-7.02-3.91,0,0-4.68-28.92-4.46-40.9.15-8.22-1.8-19.95-4.73-41.24-.75,21.74-4.42,31.28-3.48,39.08,1.43,11.85-.28,41.28-.28,41.28,0,0-3.13,5.73-6.57,4.96l-.2-.04c-3.35-.76-6.08-1.87-6.08-1.87,0,0-4-40.52-4-51.22s.44-20.25.44-20.25l-2.09-33.85,8.93-12.95.72-.31.69-.68,9.89-7.25s-.07,1.69-.19,4.58l7.68,4.12.75.56.75.19,12.86,2.29s3.37,51.91,4.46,62.53c1.09,10.61-2.03,52-2.03,52Z"/><path class="cls-13_team-presentation-7-18" d="M207.62,185.3c.8.81,2.03,1.64,1.69,2.71-.19.58-.79.91-1.25,1.32-1.13,1.2-1.74,2.79-1.69,4.43.04,1.62-.19,3.24-.68,4.79-.62,1.5-2.26,2.75-3.86,2.32-.95-.26-1.88-1.07-2.78-.69-.69.29-.91,1.14-1.27,1.79-1.03,1.55-2.87,2.38-4.74,2.14-1.83-.26-3.58-.87-5.18-1.78-.69-.27-1.28-.73-1.7-1.32-.27-.58-.34-1.23-.18-1.84.33-1.89,1.65-3.45,2.7-5.09,1.96-3.03,3.14-6.49,3.43-10.07.19-2.49.03-5.25,1.61-7.18,2.17-2.63,7.44-2.61,10.15-.68,3.02,2.04,1.24,6.57,3.75,9.15Z"/><path class="cls-10_team-presentation-7-18" d="M204.4,173.97c-.33.62-.79,1.16-1.39,1.52-1.2.7-2.22,1.53-3.37,2.3-1.08.73-1.9,1.87-2.15,3.14-.48,2.33.8,4.87.07,7.17-.28.46-1.04.18-1.34-.27s-.46-1.03-.93-1.3c-.78-.45-1.75.32-2.09,1.15-.74,2.03.28,4.27,2.31,5.11-.11.73-1.06,1.03-1.81.93-.73-.21-1.48-.3-2.24-.29-1.7.31-2.35,2.75-4.06,2.99-1.15.11-2.17-.82-2.94-1.7-.69-.79-1.37-1.58-2.07-2.36-.35-.39-.68-.93-1.09-1.25-.47-.37-1.24-.39-1.62-.83-.46-.53.04-1.46-.41-2-.18-.22-.47-.31-.72-.44-1.21-.59-1.88-2.07-1.5-3.34.05-.16.11-.33.06-.49-.07-.23-.33-.33-.55-.43-1.35-.67-1.7-2.51-1.16-3.9.31-.8.85-1.49,1.44-2.11.75-.78,1.01-.95,2.07-.92.11-.99.22-1.98.33-2.98.07-.6.14-1.22.43-1.75.68-1.2,2.24-1.51,3.61-1.66-.23-.82-.46-1.65-.69-2.47-.09-.32-.17-.69,0-.97.15-.24.45-.34.72-.42.8-.22,1.62-.35,2.44-.4-.3-.69-.54-1.41-.7-2.15-.03-.14-.06-.29-.02-.42.09-.29.45-.4.75-.4s.62.08.91-.02c-.04.01-.45-2.08-.47-2.27-.09-.69-.07-1.31.35-1.91.43-.61,1.26-.84,2.01-.75s1.44.43,2.11.77c-.06-.8.96-1.21,1.78-1.27,3.07-.2,6.19,1.3,7.91,3.79.15.22.29.44.49.61.33.28.78.36,1.19.52,1.33.5,2.23,1.76,2.65,3.09.42,1.33.42,2.75.41,4.14,0,1.07,0,2.15-.29,3.18-.1.36-.24.72-.41,1.06Z"/><path class="cls-12_team-presentation-7-18" d="M193.09,199.75c1.89.8,3.73,1.72,5.51,2.76.55.3,1.03.71,1.39,1.21.39.56.47,1.28.19,1.9-.5.86-1.62.54-2.49.24-4.01-1.59-8.33-1.73-12.45-1.72-.58.09-1.17-.16-1.51-.63-.2-.56-.14-1.18.17-1.69,2.15-4.35,5.68-3.66,9.19-2.06Z"/><path class="cls-12_team-presentation-7-18" d="M270.94,233.27c-.7,2.08-2.12,3.84-3.57,5.49-1.46,1.66-2.99,3.25-4.57,4.79-3.7,3.64-7.69,6.99-11.8,10.17-2.94,2.27-6.09,4.51-9.75,5.23-1.45.29-3.01.3-4.39-.27-1.19-.51-2.16-1.45-3.07-2.36-1.06-1.05-13.21-15.03-13.41-15.03-.73.29-1.14,1.01-1.49,1.7-1.76,3.62-2.85,7.56-3.2,11.56-.17,1.81-.17,3.61-.04,5.41.48,6.11,2.62,12.41.5,18.17-.44,1.2-1.08,2.36-2.04,3.24-.87.81-1.94,1.33-3.04,1.79-1.95.8-4,1.39-6.09,1.74-1.19.21-2.41.35-3.62.39-4.44.17-8.87-.7-13.32-.48-3.79.19-7.53,1.17-11.31,1.04-1.41-.04-2.95-.32-3.79-1.43-.48-.62-.63-1.42-.77-2.19-1.5-8.08-2.22-16.32-2.27-24.53-.02-3.8-.62-17.69-1.89-20.29-.15-.31-.32-.46-.49-.42-4.24,1.16-13.34,3.55-17.65,4.34-.63.11-1.29.23-1.91.1-.66-.13-1.24-.5-1.79-.91-5.34-3.92-8.29-9.75-10.23-15.9-.37-1.17-.7-2.35-1.01-3.53-.19-.76-.39-1.6-.06-2.32.27-.64.89-1.05,1.49-1.43,2.67-1.72,5.32-3.43,7.99-5.15,2,2.54,4,5.06,6,7.6,1.16,1.48,2.55,3.07,4.44,3.29,2.6.26,4.55-2.1,6.15-4.11,5.12-6.46,11.8-11.68,19.37-15.14,1.11-.51,2.27-1,3.48-1.24.1-.02.2-.06.3-.07.18-.06.35-.08.52-.11,1.55-.14,3.12-.05,4.64.27,10.15,1.72,20.18,4.01,30.05,6.9,1.32.29,2.55.83,3.64,1.6.77.7,1.44,1.49,1.97,2.38,2.78,4.18,5.48,8.41,8.27,12.59,2.42,3.61,4.79,8.1,8.33,10.73,7.72-3.13,15.03-7.25,21.7-12.23.94-.7,2.13-1.46,3.22-1,.36.15.64.42.92.69,2.6,2.55,4.91,5.05,3.62,8.93Z"/><path class="cls-1_team-presentation-7-18" d="M262.79,243.55c-3.7,3.64-7.69,6.99-11.8,10.17-2.94,2.27-6.09,4.51-9.75,5.23-1.45.29-3.01.3-4.39-.27-1.19-.51-2.16-1.45-3.07-2.36-1.06-1.05-13.21-15.03-13.41-15.03-.73.29-1.14,1.01-1.49,1.7-1.76,3.62-2.85,7.56-3.2,11.56-.17,1.81-.17,3.61-.04,5.41.48,6.11,2.62,12.41.5,18.17-.44,1.2-1.08,2.36-2.04,3.24-.87.81-1.94,1.33-3.04,1.79-2.32.95-4.94,1.79-7.32,2.44-1.23.34-2.45.47-3.71.23-.72-.14-2.51-1.42-3.01-1.35,3.63-.47,6.87-3.19,7.96-6.69.85-2.75.43-5.71.45-8.59.01-3.34.62-6.66,1.22-9.95.85-4.65,1.7-9.29,2.55-13.94.86-4.72,2.6-11.54,7.56-13.68.99-.43,2.07.27,2.93.94,5.74,4.5,11.59,9.11,15.71,15.15,1.14,1.68,2.27,3.56,4.16,4.34,2.04.82,4.35.08,6.38-.74,3.04-1.23,6-2.64,8.85-4.25,2.14-1.2,4.98-3.89,7.65-3.6.14.01.27.04.39.07Z"/><path class="cls-1_team-presentation-7-18" d="M169.18,227.76c-.95,2.8-1.07,5.47-1.06,8.37,0,.48-.05.89-.13,1.27-.15-.31-.32-.46-.49-.42-4.24,1.16-13.34,3.55-17.65,4.34-.63.11-1.29.23-1.91.1-.66-.13-1.24-.5-1.79-.91-5.34-3.92-8.29-9.75-10.23-15.9.13-1.06.37-2.11.7-3.13,2.54,1.37,3.86,4.18,5.44,6.6,1.52,2.35,3.41,4.45,5.57,6.23.45.37.94.74,1.5.88.65.18,1.33.05,1.99-.08,6.48-1.26,13.34-2.74,18.04-7.35Z"/></g><g id="character_1_team-presentation-7-18"><path class="cls-10_team-presentation-7-18" d="M128.75,220.13s.75,2.99-6.35,5.23c-7.09,2.24-9.71-5.23-9.71-5.23,0,0,13.44-5.23,16.05,0Z"/><path class="cls-13_team-presentation-7-18" d="M92.31,295.67c.27-1.05.54-2.1.82-3.15.71-2.71,1.43-5.43,2.14-8.14.1-.37.21-.77.5-1.03.32-.28,1.33,2.8,1.75,2.78,2.34-.14,4.69.03,6.98.5.61.13-1.89,35.09-2.11,38.53-.51,7.85-.09,23.4,1.07,23.31-2.3.19-7,.45-7.99-.59-1.79-1.79,1.27-13.3-2.06-26.82-.82-3.32-1.27-6.73-1.36-10.15-.13-4.97-.95-10.4.27-15.24Z"/><path class="cls-10_team-presentation-7-18" d="M107.5,337.48c.09-.12.2-.25.35-.3.33-.11.63.2.86.46,2.06,2.38,5.15,3.55,8.1,4.64.18.07.4.13.55,0,.11-.09.13-.25.2-.38.18-.32.64-.38.98-.24s.6.42.87.67c1.22,1.09,2.89,1.53,4.21,2.5.33.24.64.54.75.94.11.43-.05.89-.36,1.21s-.72.51-1.14.62c-.81.21-1.66.15-2.49.09-4.12-.31-8.23-.75-12.32-1.32-.31-.04-.63-.09-.91-.24-.7-.4-.87-1.33-.88-2.14-.01-1.11.24-2.1.38-3.18.16-1.23.04-2.28.85-3.35Z"/><path class="cls-10_team-presentation-7-18" d="M95.82,344.89c.45.31,1,.42,1.53.52.95.18,1.92.33,2.86.11s1.83-.91,1.98-1.86c.05-.28.21-.69.46-.56.06.03.1.09.14.15.74,1.22.9,2.7,1.03,4.12.07.77.13,1.58-.19,2.28-.37.82-1.21,1.36-2.09,1.56s-1.8.12-2.69-.02c-.76-.12-1.51-.27-2.25-.45-.32-.08-.65-.17-.9-.38-.24-.2-.38-.48-.5-.77-.61-1.41-.83-2.98-.66-4.5.04-.32.09-.64.16-.96.03-.14.1-.77.31-.71.17.05.15.16.15.3,0,.15.03.3.09.44.11.29.33.54.58.71Z"/><path class="cls-13_team-presentation-7-18" d="M108.75,334.57c.25-.48.48-.96.64-1.48.54-1.75.13-3.57.25-5.33.07-.95.06-1.84,0-2.8-.18-2.4-.49-4.79-.79-7.18-.51-4.02-1.46-8.2-1.46-12.26,0-3.13,2.53-12.97,2.53-12.97l-2.53-12.82h12.82s1.64,10.73,1.19,11.93c-.45,1.19-1.64,4.77-1.64,7.6,0,4.61-.62,9.28-.98,13.87-.4,5.03-.8,10.06-1.22,15.08-.15,1.81-.3,3.61-.45,5.42-.22,2.68.5,5.23,1.44,7.75.42,1.11.86,2.48.09,3.39-.85.99-2.47.59-3.61-.04-1.67-.91-3.19-2.13-4.99-2.73-.67-.22-1.39-.37-1.95-.8-1.18-.91-1.18-2.72-.64-4.1.35-.88.86-1.69,1.3-2.53Z"/><path class="cls-10_team-presentation-7-18" d="M116.99,184.51s-1.45-3.84,1.84,0c3.29,3.84,8.61,26.51,8.61,26.51,0,0-7.43,6.81-9.54,5.46-2.11-1.35-.91-31.98-.91-31.98Z"/><path class="cls-11_team-presentation-7-18" d="M113.81,148.35c4.15,1.71,5.17,7.86,4.87,11.76-.37,4.87-4.45,9.75-3.05,14.64.74,2.56,1.54,5.19,1.27,7.84-.27,2.65-1.91,5.37-4.5,6-.6.15-1.25.18-1.8.48-.8.43-1.22,1.31-1.64,2.11-2.48,4.76-6.65,8.78-11.79,10.34-5.14,1.56-11.2.35-14.84-3.6-3.64-3.95-4.2-10.61-.74-14.72.99-1.17,2.32-2.27,2.41-3.8.04-.7-.19-1.39-.31-2.08-.44-2.63,1.03-5.46,3.43-6.6,1.93-.92,4.38-.88,5.87-2.41,1.66-1.72,1.27-4.47,1.13-6.87-.73-12.51,8.73-17.61,19.7-13.09Z"/><path class="cls-14_team-presentation-7-18" d="M86.73,252.94c-1,9.77.75,19.76,2.49,29.51.41,2.29.91,4.75,2.61,6.34,1.25,1.17,2.96,1.68,4.62,2.07,11,2.58,22.86,1.35,33.09-3.45-.87-8.1-1.75-16.2-2.62-24.3-.7-6.47-1.44-13.08-3.77-19.2-.43-1.14-7.12-12.37-5.55-13.35-3.16,1.96-6.85,1.67-10.48,2.52-4.29,1.01-8.45,2.61-12.3,4.77-1.85,1.04-3.67,2.24-4.93,3.94-1.29,1.73-1.92,3.86-2.36,5.97-.37,1.72-.63,3.44-.81,5.18Z"/><path class="cls-8_team-presentation-7-18" d="M86.73,252.94c-1,9.77.75,19.76,2.49,29.51.41,2.29.91,4.75,2.61,6.34,1.25,1.17,2.96,1.68,4.62,2.07,11,2.58,22.86,1.35,33.09-3.45-.87-8.1-1.75-16.2-2.62-24.3-.7-6.47-1.44-13.08-3.77-19.2-.43-1.14-7.12-12.37-5.55-13.35-3.16,1.96-6.85,1.67-10.48,2.52-4.29,1.01-8.45,2.61-12.3,4.77-1.85,1.04-3.67,2.24-4.93,3.94-1.29,1.73-1.92,3.86-2.36,5.97-.37,1.72-.63,3.44-.81,5.18Z"/><path class="cls-13_team-presentation-7-18" d="M113.61,174.16s-3.23,4.1-3.25,6.6c-.01,2.51-.68,4.93-.68,4.93,0,0-.5,3.01-2.17,1.84-1.67-1.17-7.52-9.03-7.52-9.03l6.39-8.6,7.23,4.25Z"/><path class="cls-10_team-presentation-7-18" d="M123.54,246.53s-1.32-14.59-3.74-20.44c-.84-2.02-.68-4.43-.48-6.56.49-5.17,2.06-10.13,2.91-15.24.38-2.32-.04-4.52-.5-6.82-.89-4.43-1.93-8.84-3.12-13.2-.15-.55-.31-1.12-.7-1.54-.37-.4-.9-.6-1.42-.8-2.12-.8-4.25-1.59-6.37-2.39.67,2.05,1.3,4.34.38,6.29-.26.56-.67,1.08-1.24,1.33-1.15.49-2.43-.29-3.33-1.16-1.45-1.4-2.56-3.14-3.26-5.03-.36-.98-.62-2-.75-3.03-.1-.74.13-1.8-.44-2.32-.91,1.6-2.77,2.42-4.19,3.49-1.63,1.23-3.28,2.42-4.96,3.58-1.33.92-2.76,1.9-3.35,3.4-.46,1.18-.33,2.51-.06,3.75.3,1.36.76,2.68,1.01,4.04.32,1.73.3,3.5.43,5.26.19,2.7.96,5.14,1.51,7.75.31,1.52.31,3.15.44,4.7,0,0,2.41,8.86,1.91,11.03-.5,2.17-4.93,10.53-5.18,14.21-.25,3.68,1.42,11.37,1.42,11.37,0,0,4.12.28,8.7.46,5.38.21,15.15-2.08,15.87-2.8.95-.95,1.48-7.76,1.4-12.29,2.17,7.04,3.86,12.96,3.86,12.96h3.26Z"/><path class="cls-13_team-presentation-7-18" d="M91.83,255.45c.89.26,1.22,1.06,1.86,2.07.89,1.39,1.71,2.82,2.47,4.29.09.17.18.36.12.54-.06.2-.28.31-.48.39-.75.27-1.58.34-2.36.2-.3,1.89,0,3.87.84,5.59.21.42.43.98.09,1.31-.14.14-.35.18-.54.21-1.67.25-3.34-.41-4.85-1.16-.83-.41-1.65-.87-2.29-1.53-.67-.7-1.8-2.7-1.94-3.68-.11-.77.17-1.79.24-2.56.04-.4.41-5.53.53-5.53,1.84-.07,3.68-.15,5.53-.21.31-.01.57.02.79.08Z"/><polygon class="cls-12_team-presentation-7-18" points="91.86 253.42 92.31 255.64 84.62 256.98 84.62 254.42 91.86 253.42"/><path class="cls-10_team-presentation-7-18" d="M91.86,224.12s6.11-14.7,5.28-19.88c-.84-5.18-4.35-17.26-6.94-17.16s-3.43,3.62-3.43,6.79-5.21,32.22-5.54,34.89c-.33,2.67,2.94,27.36,2.94,27.36l8.69-1.92-1-30.1Z"/><path class="cls-13_team-presentation-7-18" d="M115.25,152.42c.13.08.25.19.36.33.75,1,.89,2.3,1.22,3.47,1.67,5.93,3.97,11.63.69,17.53-.26.47-.56.94-.99,1.26-.41.31-.92.46-1.42.57-2.39.52-4.94.08-7.07-1.12-1.18-.67-2.47-1.14-3.57-1.95-.52-.38-.99-.82-1.27-1.4-.26-.55-.68-1.11-.51-1.76.12-.45.39-.85.49-1.3.16-.71-.11-1.44-.39-2.12-.12-.3-.24-.63-.12-.93.22-.51.93-.47,1.48-.6.93-.22,1.53-1.11,1.96-1.96.53-1.06.94-2.19,1.22-3.35.23-.98.38-2.01.85-2.9.7-1.33,2.02-2.21,3.33-2.93.93-.51,2.7-1.48,3.74-.84Z"/><path class="cls-11_team-presentation-7-18" d="M117.9,161.08l.53-.46s.16.34.35.3c.19-.03.48-.18.48-.18,0,0-.29.42-.5.46-.21.04-.84-.06-.84-.06l-.02-.05Z"/><path class="cls-11_team-presentation-7-18" d="M118.37,160.66l.22-.41s.19.17.3.1c.11-.07.26-.23.26-.23,0,0-.08.33-.2.41-.12.08-.55.16-.55.16l-.03-.03Z"/><polygon class="cls-14_team-presentation-7-18" points="144.53 199.22 122.25 199.23 103.15 223.38 124.17 222.53 144.53 199.22"/><path class="cls-13_team-presentation-7-18" d="M131.31,218.98c.05-.22.09-.45.13-.69.24-1.5.28-3.05-.12-4.52-.4-1.46-1.27-2.84-2.56-3.63-.1-.06-.2-.12-.32-.14-.34-.05-.63.29-.67.63s.1.67.23.99c.39.98.67,2.01.82,3.05-.37-.42-.74-.85-1.12-1.27-.35-.39-.72-.81-1.22-.97s-1.16.04-1.3.55c-.08.29.02.59.12.87.35,1.01.7,2.02,1.06,3.03-.47-.96-1.24-1.76-2.18-2.28-.49.44-.39,1.26-.09,1.85.31.59.78,1.1.96,1.74-.29-.26-.43-.64-.68-.94s-.73-.48-1.01-.22c-.25.23-.19.63-.1.95.61,2.42,1.18,4.51.91,7.02,0-.01,1.25-.28,1.33-.3,1.09-.34,2.02-.88,2.97-1.5,1.69-1.11,2.44-2.33,2.84-4.22Z"/></g></svg>