<svg version="1.1" id="Layer_1" xmlns="http://www.w3.org/2000/svg" xmlns:xlink="http://www.w3.org/1999/xlink" x="0px" y="0px" viewBox="0 0 500 500" style="width: 166px;" xml:space="preserve" data-imageid="video-call-2-87" imageName="Video Call 2" class="illustrations_image">
<style type="text/css">
	.st0_video-call-2-87{fill:#231F20;}
	.st1_video-call-2-87{fill:#D1D3D4;}
	.st2_video-call-2-87{fill:#FFFFFF;}
	.st3_video-call-2-87{fill:#68E1FD;}
</style>
<g id="Laptop_video-call-2-87">
	<path class="st0_video-call-2-87" d="M21.4,372.2h457.1v6c0,7.7-6.3,14-14,14l0,0H35.4c-7.7,0-14-6.3-14-14l0,0C21.4,378.2,21.4,372.2,21.4,372.2z"/>
	<path class="st0_video-call-2-87" d="M459,392.8H41c-11.2,0-20.2-9.1-20.2-20.2v-0.4c0-0.3,0.3-0.6,0.6-0.6h457.2c0.3,0,0.6,0.3,0.6,0.6v0.4&#10;&#9;&#9;C479.2,383.7,470.2,392.8,459,392.8z M22.1,372.8c0.1,10.4,8.6,18.7,19,18.7H459c10.4,0,18.9-8.3,19-18.7H22.1z"/>
	<path class="st0_video-call-2-87" d="M70.1,107.8h359.9c5.6,0,10.1,4.5,10.1,10.1v254.3H60V117.9C60,112.3,64.5,107.8,70.1,107.8L70.1,107.8&#10;&#9;&#9;L70.1,107.8z"/>
	<path class="st0_video-call-2-87" d="M440,372.8H60c-0.3,0-0.6-0.3-0.6-0.6V122c0-8.1,6.6-14.8,14.7-14.8h351.8c8.2,0,14.8,6.6,14.8,14.8v250.2&#10;&#9;&#9;C440.7,372.6,440.4,372.8,440,372.8L440,372.8z M60.6,371.6h378.9V122c0-7.5-6.1-13.5-13.5-13.5H74.1c-7.5,0-13.5,6.1-13.5,13.5&#10;&#9;&#9;V371.6z"/>
	<polygon class="st1_video-call-2-87" points="287.7,379.1 212.3,379.1 205.8,372.2 294.2,372.2 &#9;"/>
</g>
<g id="Screen_video-call-2-87">
	<rect x="74.2" y="116.5" class="st2_video-call-2-87" width="351.7" height="249.2"/>
	<path class="st0_video-call-2-87" d="M425.9,366.4H74.2c-0.4,0-0.7-0.3-0.7-0.7l0,0V116.5c0-0.4,0.3-0.7,0.7-0.7h351.7c0.4,0,0.7,0.3,0.7,0.7v0&#10;&#9;&#9;v249.2C426.5,366.1,426.2,366.5,425.9,366.4L425.9,366.4L425.9,366.4z M74.9,365h350.3V117.2H74.8L74.9,365L74.9,365z"/>
</g>
<g id="Button_video-call-2-87">
	<circle class="st3_video-call-2-87 targetColor" cx="230" cy="347.1" r="5.4" style="fill: rgb(104, 225, 253);"/>
	<circle class="st3_video-call-2-87 targetColor" cx="250" cy="347.1" r="5.4" style="fill: rgb(104, 225, 253);"/>
	<circle class="st3_video-call-2-87 targetColor" cx="270" cy="347.1" r="5.4" style="fill: rgb(104, 225, 253);"/>
</g>
<g id="Character_3_video-call-2-87">
	<path class="st3_video-call-2-87 targetColor" d="M281.3,333.3H213c0.6-5.6,2.2-10.6,5.8-11.6c0,0,14.6-5.9,17.2-6.9c1.8-0.7,1.8-0.7,0,0l0.2-0.1&#10;&#9;&#9;c1.4-0.2,2.9-0.3,4.4-0.2l0,0c4.7,0.1,11.5,0.5,12.2,0.6h0.1l0.2,0.1c0.7,0.2,3,1,5.8,2c0.6,0.2,1.3,0.5,2,0.8c0,0,3.8,0.9,8.1,2.4&#10;&#9;&#9;s8.9,3.6,10.6,5.9C280.2,327.1,280.8,329.7,281.3,333.3L281.3,333.3z" style="fill: rgb(104, 225, 253);"/>
	<path class="st2_video-call-2-87" d="M228.9,308.8c-1-0.6-1.8-1.5-2.2-2.6c-0.1-0.8,0.1-1.7,0.4-2.5c2.8-8.4,2.2-18,7-25.5c0.6-1,1.4-1.9,2.4-2.5&#10;&#9;&#9;c1-0.6,2.3-0.6,3.3,0c4.2-7.1,14.5-2,17.4,3.7c3.1,6.1,4.9,13,7.2,19.5c0.9,1.9,1.3,4,1.2,6.1c-0.2,2.1-1.7,4.2-3.8,4.4l-1.1-1.9&#10;&#9;&#9;c0.5,0.6,0.4,1.5-0.2,2.1c-0.6,0.5-1.3,0.8-2.1,0.9c-7.4,1.9-15.4,3.4-22.6,0.8c-1.1-0.4-2.4-1.4-2-2.5&#10;&#9;&#9;C233.3,310.9,230.8,310.1,228.9,308.8L228.9,308.8z"/>
	<path class="st0_video-call-2-87" d="M244.4,313.5c-3,0-5.9-0.4-8.7-1.4c-0.9-0.3-1.6-0.8-2.2-1.5c-0.1,0.1-0.2,0.1-0.4,0.2c-1.8,0.6-4-0.9-4.6-1.3&#10;&#9;&#9;l0,0c-0.5-0.4-2.3-1.7-2.5-3c-0.1-0.9,0-1.8,0.4-2.7c1-3.3,1.8-6.7,2.2-10.1c0.9-5.4,1.9-11,4.8-15.7c0.6-1.1,1.6-2.1,2.7-2.8&#10;&#9;&#9;c1-0.6,2.3-0.7,3.4-0.3c1.5-2.2,4-3.4,6.6-3.2c4.4,0.1,9.7,3.5,11.7,7.6c2.1,4.4,3.9,9,5.3,13.7c0.6,2,1.3,3.9,2,5.8&#10;&#9;&#9;c0.9,2,1.3,4.2,1.2,6.5c-0.2,2.3-1.9,4.8-4.5,5c-0.3,0-0.5-0.1-0.7-0.3l-0.2,0.2c-0.7,0.6-1.5,1-2.4,1.1&#10;&#9;&#9;C254,312.6,249.2,313.4,244.4,313.5L244.4,313.5z M234.6,309.3c0,0.1,0,0.2,0,0.3c0.4,0.5,0.9,0.9,1.5,1.1c6.9,2.4,14.7,1,22.2-0.8&#10;&#9;&#9;c0.6-0.1,1.2-0.4,1.7-0.8c0.2-0.2,0.3-0.4,0.3-0.7v-0.1L260,308c-0.2-0.3-0.1-0.7,0.2-0.9c0.3-0.3,0.7-0.2,1,0&#10;&#9;&#9;c0.2,0.2,0.4,0.5,0.5,0.7l0.5,0.9c1.5-0.6,2.6-2,2.7-3.7c0-2-0.3-4-1.2-5.8c-0.7-1.9-1.3-3.9-2-5.9c-1.4-4.6-3.1-9.2-5.2-13.5&#10;&#9;&#9;c-2.2-3.8-6.1-6.4-10.5-6.8c-2.3-0.2-4.6,1.1-5.7,3.1c-0.1,0.2-0.3,0.3-0.5,0.3c-0.2,0-0.4,0-0.6-0.1c-0.8-0.5-1.8-0.5-2.6,0&#10;&#9;&#9;c-0.9,0.6-1.6,1.4-2.1,2.3c-2.8,4.5-3.7,9.6-4.6,15.1c-0.5,3.4-1.3,6.8-2.3,10.2c-0.3,0.7-0.4,1.4-0.4,2.1c0.4,0.9,1.1,1.6,1.9,2.1&#10;&#9;&#9;l0,0c1.3,0.9,2.6,1.4,3.4,1.1c0.3-0.1,0.5-0.3,0.5-0.5v-0.1c0.1-0.4,0.6-0.6,0.9-0.4c0.4,0.1,0.6,0.6,0.4,0.9l0,0&#10;&#9;&#9;C234.6,309.1,234.6,309.2,234.6,309.3L234.6,309.3z"/>
	<path class="st2_video-call-2-87" d="M252.2,333.3h-9.6c-2.7-5.7-2.1-17.4-2-18.9c0,0,0-0.1,0-0.1l-0.1-1.8l-0.4-5l0.1-0.7l0.1-1l0.4-5.5l11.6,0.1&#10;&#9;&#9;l0.4,6.8v0.1v0.3l0.3,4.3l0.1,2.4v0.1v0.8l0.1,2.3C253.2,317.4,256.3,327.8,252.2,333.3L252.2,333.3z"/>
	<path class="st0_video-call-2-87" d="M252.2,334h-9.6c-0.3,0-0.5-0.2-0.6-0.4c-2.8-5.9-2.1-17.9-2.1-19.2l-0.5-6.9l0.1-1.9l0.4-5.5&#10;&#9;&#9;c0-0.4,0.3-0.7,0.7-0.7l11.6,0.1c0.4,0,0.7,0.3,0.7,0.7l0.4,6.8v0.1l0.6,10.1c0.3,1.1,3,11-1.2,16.5&#10;&#9;&#9;C252.7,333.9,252.5,334,252.2,334L252.2,334z M243.1,332.6h8.8c3.6-5.2,0.7-14.9,0.7-15c0-0.1,0-0.1,0-0.2l-0.6-10.2v-0.1l-0.4-6&#10;&#9;&#9;l-10.3-0.1l-0.5,6.6l0.5,6.7c0,0.1,0,0.2,0,0.3C241.3,315.8,240.7,326.9,243.1,332.6L243.1,332.6z"/>
	<path class="st0_video-call-2-87" d="M240.1,307.5c0.9,1.6,2.2,2.9,3.8,3.9c2.5,1.6,6,3,9,2.5l-0.2-6.8c-2.2,0.3-4.5,0.3-6.7,0&#10;&#9;&#9;c-2-0.1-3.9-0.6-5.7-1.3L240.1,307.5L240.1,307.5z"/>
	<path class="st0_video-call-2-87" d="M251.6,314.7c-2.9-0.2-5.7-1.1-8.1-2.8c-1.7-1-3-2.4-4-4.1c-0.1-0.1-0.1-0.2-0.1-0.4l0.1-1.8&#10;&#9;&#9;c0-0.2,0.1-0.4,0.4-0.5c0.2-0.1,0.4-0.1,0.6,0c1.7,0.7,3.6,1.2,5.5,1.3c2.2,0.3,4.3,0.3,6.5,0c0.2,0,0.4,0,0.6,0.1&#10;&#9;&#9;c0.2,0.1,0.2,0.3,0.2,0.5l0.2,6.8c0,0.3-0.2,0.7-0.6,0.7C252.5,314.7,252.1,314.7,251.6,314.7L251.6,314.7z M240.8,307.4&#10;&#9;&#9;c0.9,1.4,2,2.6,3.4,3.4c2.3,1.6,5.1,2.5,7.9,2.5l-0.2-5.4c-2,0.2-4.1,0.2-6.1-0.1c-1.7-0.1-3.4-0.5-5-1L240.8,307.4L240.8,307.4z"/>
	<path class="st2_video-call-2-87" d="M246,308.7h1.2c5.6,0.1,10.2-4.4,10.3-10c0,0,0,0,0,0c-0.1-3.1-0.4-6.2-0.9-9.3c0,0-4.7-1.7-8.4-3.1&#10;&#9;&#9;c-6.2-2.3-7.9-5.7-7.9-5.7c-0.2,2.2-0.7,4.4-1.4,6.5c-0.8,1.5-1.7,2.9-2.8,4.2c0,0-0.2,5-0.2,7.1&#10;&#9;&#9;C235.9,304.1,240.4,308.6,246,308.7z"/>
	<path class="st0_video-call-2-87" d="M247.3,309.5H246c-6-0.1-10.8-5-10.8-11c0-2.1,0.2-7.1,0.2-7.1c0-0.2,0.1-0.3,0.1-0.4c1-1.3,1.9-2.7,2.7-4.1&#10;&#9;&#9;c0.7-2,1.2-4.1,1.4-6.3c0-0.3,0.3-0.6,0.6-0.7c0.3-0.1,0.6,0.1,0.8,0.4c0,0,1.7,3.1,7.5,5.3c3.7,1.4,8.4,3.1,8.4,3.1&#10;&#9;&#9;c0.2,0.1,0.4,0.3,0.5,0.6c0.5,3.1,0.8,6.3,0.9,9.4C258.1,304.7,253.3,309.4,247.3,309.5L247.3,309.5z M236.9,291.6&#10;&#9;&#9;c0,1-0.2,5-0.2,6.9c-0.1,5.2,4.1,9.5,9.3,9.6h1.3c5.2,0,9.4-4.2,9.4-9.3c-0.1-2.9-0.4-5.9-0.8-8.8c-1.2-0.4-4.9-1.8-8-2.9&#10;&#9;&#9;c-2.7-0.9-5.1-2.5-7.1-4.5c-0.2,1.7-0.7,3.3-1.3,4.9C238.8,288.8,237.9,290.3,236.9,291.6L236.9,291.6z"/>
	<path class="st0_video-call-2-87" d="M247.3,298.9c-0.6,0-1.2,0-1.8-0.1c-0.4-0.1-0.7-0.4-0.6-0.8s0.4-0.7,0.8-0.6l0,0c0.9,0.1,1.7,0.1,2.6,0&#10;&#9;&#9;c0.1-0.8-0.6-3.8-1.7-6.7c-0.1-0.4,0.1-0.8,0.4-0.9c0.4-0.1,0.8,0.1,0.9,0.4l0,0c0.7,2,2.3,6.7,1.5,8c-0.2,0.3-0.5,0.5-0.8,0.5&#10;&#9;&#9;C248.2,298.8,247.7,298.9,247.3,298.9L247.3,298.9z"/>
	
		<ellipse transform="matrix(1.099531e-02 -0.9999 0.9999 1.099531e-02 -52.7775 531.0339)" class="st0_video-call-2-87" cx="242.1" cy="292.2" rx="1.7" ry="0.7"/>
	
		<ellipse transform="matrix(1.099531e-02 -0.9999 0.9999 1.099531e-02 -43.3856 540.086)" class="st0_video-call-2-87" cx="251.3" cy="292" rx="1.7" ry="0.7"/>
	<path class="st2_video-call-2-87" d="M258.9,317.1c-0.2,5.5-1,10.9-2.4,16.2h-7.1c1.5-2.9,3.2-8.2,3.5-18.3c0-0.2,0-0.5,0-0.7&#10;&#9;&#9;c0.1,0,0.1-0.1,0.2-0.1c2.2-1,5.5,0.7,5.8,1.9C258.9,316.5,258.9,316.8,258.9,317.1L258.9,317.1z"/>
	<path class="st0_video-call-2-87" d="M256.5,334h-7.1c-0.4,0-0.7-0.3-0.7-0.7c0-0.1,0-0.2,0.1-0.3c1.4-2.6,3.1-7.9,3.4-18c0-0.3,0-0.5,0-0.7&#10;&#9;&#9;c0-0.3,0.1-0.5,0.4-0.6c0.1-0.1,0.2-0.1,0.4-0.2c1.5-0.5,3.2-0.4,4.6,0.4c0.5,0.3,1.9,1,2.1,2c0.1,0.4,0.1,0.8,0.1,1.2&#10;&#9;&#9;c-0.2,5.5-1,11-2.5,16.4C257.1,333.7,256.8,333.9,256.5,334L256.5,334z M250.5,332.6h5.5c1.3-5.1,2.1-10.2,2.2-15.5l0,0&#10;&#9;&#9;c0-0.3,0-0.6,0-0.9c-0.3-0.5-0.8-0.9-1.4-1.1c-1-0.5-2.1-0.7-3.2-0.4c0,0.1,0,0.2,0,0.3c-0.3,9.2-1.7,14.5-3.1,17.5L250.5,332.6z"/>
	<path class="st2_video-call-2-87" d="M244.2,333.3H237c-2-6.8-2.6-16.4-2.4-17.2c0.3-0.6,0.8-1.1,1.4-1.4c0.5-0.3,0.5-0.3,0,0&#10;&#9;&#9;c1.4-0.9,3.1-1,4.6-0.4v0.1C240.9,324.9,242.6,330.5,244.2,333.3L244.2,333.3z"/>
	<path class="st0_video-call-2-87" d="M244.2,334H237c-0.3,0-0.6-0.2-0.7-0.5c-2-6.6-2.7-16.4-2.4-17.6c0.3-0.8,0.9-1.4,1.7-1.8l0,0h0.1&#10;&#9;&#9;c1.4-0.8,3.6-1.3,5.3-0.4c0.2,0.1,0.4,0.4,0.4,0.6v0.1c0.3,10.5,2,15.9,3.4,18.5c0.2,0.4,0.1,0.8-0.3,1&#10;&#9;&#9;C244.4,334,244.3,334,244.2,334L244.2,334z M237.6,332.6h5.4c-1.4-3-2.8-8.5-3.1-17.8c-1.2-0.3-2.5-0.1-3.5,0.6l0,0&#10;&#9;&#9;c-0.7,0.4-1,0.8-1,0.9C235.5,321.7,236.2,327.2,237.6,332.6L237.6,332.6z"/>
	<path class="st0_video-call-2-87" d="M246.2,302.9c-2.2,0-4.3-0.7-6-2.1c-0.3-0.2-0.4-0.7-0.1-1s0.7-0.4,1-0.1c5.1,3.9,10.5,0.3,10.7,0.1&#10;&#9;&#9;c0.3-0.2,0.8-0.1,1,0.2s0.1,0.8-0.2,1l0,0C250.7,302.2,248.5,302.8,246.2,302.9L246.2,302.9z"/>
	<path class="st0_video-call-2-87" d="M304,334H196c-0.4,0-0.7-0.3-0.7-0.7l0,0v-63.7c0-0.4,0.3-0.7,0.7-0.7c0,0,0,0,0,0h108c0.4,0,0.7,0.3,0.7,0.7&#10;&#9;&#9;v0v63.7C304.7,333.7,304.4,334,304,334z M196.7,332.6h106.5v-62.3H196.7L196.7,332.6z"/>
</g>
<g id="Character_4_video-call-2-87">
	<path class="st3_video-call-2-87 targetColor" d="M392.1,323.6C392.1,323.6,392.1,323.6,392.1,323.6l-1.8,9.8h-64c0.2-2.4,0.7-4.7,1.3-7.1&#10;&#9;&#9;c0.8-1.2,23.7-10.7,23.7-10.7l0.7,0l0.5,0l1.5-0.1c0,0,0,0,0.1,0l1.5-0.1c1.2-0.1,2.5-0.1,4-0.2c2-0.1,4-0.2,5.8-0.2&#10;&#9;&#9;c1.3,0,2.5,0,3.4,0c0.3,0,0.6,0,0.9,0l0,0c0.1,0,0.3,0,0.4,0c0.3,0,0.7,0.1,1,0.2c0.1,0,0.1,0,0.2,0.1l0.4,0.1&#10;&#9;&#9;C375.5,316.8,392.1,323.6,392.1,323.6L392.1,323.6z" style="fill: rgb(104, 225, 253);"/>
	<polygon class="st0_video-call-2-87" points="353.4,310.9 370.3,310.9 370,317.4 358,317.4 352.2,314.6 &#9;"/>
	<path class="st0_video-call-2-87" d="M370,318.1h-12c-0.1,0-0.2,0-0.3-0.1l-5.8-2.8c-0.3-0.1-0.5-0.5-0.4-0.8l1.1-3.7c0.1-0.3,0.4-0.5,0.7-0.5l0,0&#10;&#9;&#9;h17c0.2,0,0.4,0.1,0.5,0.2c0.1,0.1,0.2,0.3,0.2,0.5l-0.3,6.5C370.7,317.7,370.4,318,370,318.1L370,318.1z M358.2,316.7h11.1&#10;&#9;&#9;l0.2-5.1l-15.7,0l-0.8,2.7L358.2,316.7L358.2,316.7z"/>
	<path class="st2_video-call-2-87" d="M374.7,294.4c0.9-2,1.2-4.7,1.5-6.8c0.3-1.6,1-4.2,0.2-5.8c-0.5-1-2.1-2-3.1-2.6c-0.5-4-4.3-6.5-8.1-6.7&#10;&#9;&#9;c-2.3,0-4.6,0.4-6.8,1.2c-2.1,0.7-4.4,1.6-5.5,3.6c-0.2,0.4-0.5,0.9-0.8,1.2c-0.4,0.4-0.8,0.7-1.3,0.9c-3,2-2.7,4.6-2.3,7.7&#10;&#9;&#9;c0.4,3.3,1.5,6.5,1.8,9.7c3.8,0.2,7.6,0.5,11.4,0.5C364.9,297.3,373.1,298,374.7,294.4L374.7,294.4z"/>
	<path class="st0_video-call-2-87" d="M365,298.1h-3.1c-3.1,0-6.2-0.2-9.3-0.4l-2.1-0.1c-0.3,0-0.6-0.3-0.6-0.6c-0.2-1.7-0.5-3.4-0.9-5&#10;&#9;&#9;c-0.4-1.6-0.7-3.1-0.9-4.7c-0.4-3-0.8-6.2,2.6-8.4l0.4-0.2c0.3-0.2,0.6-0.4,0.8-0.6c0.2-0.2,0.3-0.5,0.4-0.7l0.2-0.4&#10;&#9;&#9;c1.2-2.1,3.6-3.1,5.9-3.9c2.2-0.8,4.6-1.3,7-1.2c3.8,0.2,8,2.7,8.7,7c1.3,0.6,2.3,1.6,3.1,2.7c0.7,1.5,0.3,3.6,0,5.3&#10;&#9;&#9;c-0.1,0.3-0.1,0.6-0.2,0.9s-0.1,0.8-0.2,1.2c-0.2,2-0.7,3.9-1.4,5.8l0,0C374,297.7,368.9,298.1,365,298.1L365,298.1z M362.3,296.6&#10;&#9;&#9;h1.1c3.3,0,9.5,0.1,10.8-2.5l0,0c0.7-1.7,1.1-3.6,1.3-5.4c0.1-0.4,0.1-0.9,0.2-1.3s0.1-0.6,0.2-0.9c0.3-1.4,0.6-3.4,0.1-4.5&#10;&#9;&#9;c-0.7-1-1.7-1.8-2.8-2.2c-0.2-0.1-0.3-0.3-0.4-0.5c-0.5-3.8-4.1-5.9-7.4-6.1c-2.2,0-4.4,0.4-6.5,1.2c-2.1,0.7-4.2,1.5-5.2,3.2&#10;&#9;&#9;l-0.2,0.4c-0.4,0.8-1,1.5-1.8,1.9l-0.3,0.2c-2.6,1.7-2.4,4.1-2,7c0.2,1.5,0.5,3.1,0.9,4.6c0.3,1.5,0.7,3,0.9,4.6l1.6,0.1&#10;&#9;&#9;c3,0.2,6.1,0.4,9.2,0.4L362.3,296.6L362.3,296.6z"/>
	<path class="st2_video-call-2-87" d="M354.5,295c-0.5-4.1-7.3-5.4-7.1-0.5c0,1.7,0.6,3.3,1.7,4.6c1.1,1.3,2.9,1.8,4.5,1.2"/>
	<path class="st0_video-call-2-87" d="M352.3,301.2c-1.4,0-2.8-0.6-3.8-1.7c-1.2-1.4-1.8-3.2-1.8-5.1c-0.1-2.6,1.6-3.7,3.2-3.9&#10;&#9;&#9;c2.6-0.2,4.9,1.7,5.4,4.3c0,0.4-0.2,0.7-0.6,0.8c-0.4,0-0.7-0.2-0.8-0.6l0,0c-0.3-1.8-2-3.1-3.9-3c-0.7,0.1-1.9,0.5-1.9,2.4&#10;&#9;&#9;c0,1.5,0.5,3,1.5,4.2c0.9,1.1,2.4,1.5,3.8,1.1c0.4-0.1,0.8,0.1,0.9,0.5c0.1,0.3,0,0.7-0.3,0.8C353.4,301.2,352.8,301.3,352.3,301.2&#10;&#9;&#9;L352.3,301.2z"/>
	<path class="st2_video-call-2-87" d="M369.3,295c0.5-4.1,7.3-5.4,7.1-0.5c0,1.7-0.6,3.3-1.7,4.6c-1.1,1.3-2.9,1.8-4.5,1.2"/>
	<path class="st0_video-call-2-87" d="M371.6,301.2c-0.5,0-1.1-0.1-1.6-0.3c-0.4-0.1-0.6-0.5-0.5-0.9c0.1-0.4,0.5-0.6,0.9-0.5c0,0,0.1,0,0.1,0&#10;&#9;&#9;c1.4,0.4,2.8,0,3.8-1.1c1-1.2,1.5-2.6,1.5-4.2c0.1-2-1.1-2.4-1.9-2.4c-1.9-0.1-3.5,1.2-3.9,3c0,0.4-0.4,0.7-0.8,0.6&#10;&#9;&#9;c-0.4,0-0.7-0.4-0.6-0.8c0.4-2.6,2.7-4.4,5.4-4.3c1.9,0.1,3.3,1.7,3.2,3.5c0,0.1,0,0.2,0,0.3c0,1.9-0.7,3.6-1.8,5.1&#10;&#9;&#9;C374.4,300.5,373,301.1,371.6,301.2L371.6,301.2z"/>
	<path class="st2_video-call-2-87" d="M354,315.5c2.7,1.2,5.6,1.8,8.5,1.8c5.4,0.2,6.3-1.3,6.3-1.3l-0.1-2.9l-0.3-6.7l-0.3-6.3l-12.3-0.4l-0.6,5.1&#10;&#9;&#9;l-0.2,1.6L354,315.5L354,315.5z"/>
	<path class="st0_video-call-2-87" d="M363.5,318c-0.3,0-0.6,0-0.9,0c-3,0-6-0.7-8.8-1.9c-0.3-0.1-0.4-0.4-0.4-0.7l1.8-15.8c0.1-0.3,0.4-0.6,0.7-0.6&#10;&#9;&#9;l12.3,0.4c0.4,0,0.7,0.3,0.7,0.7l0.7,15.9c0,0.1,0,0.3-0.1,0.4C369.2,316.7,368.1,318,363.5,318L363.5,318z M354.8,315.1&#10;&#9;&#9;c2.5,1,5.1,1.5,7.8,1.5c3.8,0.1,5.1-0.6,5.5-0.9l-0.7-14.9l-11-0.4L354.8,315.1L354.8,315.1z"/>
	<path class="st0_video-call-2-87" d="M355,306.5c1,1.5,2.3,2.8,3.9,3.7c2.6,1.6,6.5,3.3,9.7,3l-0.3-6.7c-2.4,0.2-4.7,0.1-7.1-0.2&#10;&#9;&#9;c-2.1-0.1-4.1-0.6-6.1-1.4L355,306.5L355,306.5z"/>
	<path class="st0_video-call-2-87" d="M367.8,313.9c-3.4,0-7.2-1.9-9.2-3.1c-1.7-0.9-3.1-2.3-4.2-3.9c-0.1-0.1-0.1-0.3-0.1-0.4l0.2-1.6&#10;&#9;&#9;c0-0.2,0.2-0.4,0.4-0.5c0.2-0.1,0.4-0.1,0.6,0c1.9,0.7,3.9,1.2,5.9,1.3c2.3,0.3,4.6,0.4,6.9,0.2c0.2,0,0.4,0,0.5,0.2&#10;&#9;&#9;c0.1,0.1,0.2,0.3,0.2,0.5l0.3,6.7c0,0.4-0.3,0.7-0.6,0.7C368.4,313.9,368.1,314,367.8,313.9L367.8,313.9z M355.8,306.4&#10;&#9;&#9;c0.9,1.3,2.1,2.5,3.6,3.2c1.5,0.9,5.3,3,8.6,2.9l-0.2-5.3c-2.2,0.1-4.4,0-6.5-0.3c-1.8-0.2-3.6-0.5-5.4-1.1L355.8,306.4&#10;&#9;&#9;L355.8,306.4z"/>
	<path class="st2_video-call-2-87" d="M372.7,283.8l-0.5,14.9c0,0.6-0.1,1.3-0.3,1.9c-1.1,4.3-5,7.4-9.5,7.2h-1.1c-5.2-0.2-9.3-4.5-9.1-9.7&#10;&#9;&#9;c0,0,0,0,0,0l0.5-14.9c0,0,2.3,3.1,9,3C365.5,286.2,369.3,285.4,372.7,283.8z"/>
	<path class="st0_video-call-2-87" d="M362.8,308.5h-0.4h-1.1c-5.6-0.2-10-4.9-9.8-10.5c0,0,0,0,0-0.1l0.5-14.9c0-0.4,0.3-0.7,0.7-0.7&#10;&#9;&#9;c0.2,0,0.4,0.1,0.5,0.3c0,0,2.2,2.7,8.3,2.7h0.2c3.7,0,7.3-0.7,10.6-2.2c0.2-0.1,0.5-0.1,0.7,0c0.2,0.1,0.3,0.4,0.3,0.6l-0.5,14.9&#10;&#9;&#9;c0,0.7-0.1,1.3-0.3,2C371.5,305.3,367.4,308.5,362.8,308.5L362.8,308.5z M353.4,284.6l-0.5,13.4c0,0.8,0.1,1.7,0.3,2.5&#10;&#9;&#9;c1,3.7,4.3,6.4,8.2,6.6h1.1c4.1,0.1,7.8-2.6,8.8-6.7c0.1-0.6,0.2-1.2,0.2-1.8l0.5-13.8c-3.3,1.3-6.7,1.9-10.2,1.9&#10;&#9;&#9;C357.4,286.8,354.8,285.6,353.4,284.6L353.4,284.6z"/>
	<path class="st2_video-call-2-87" d="M362.3,292.2c0,0,3.1,6.8,1.7,7c-1.2,0-2.3-0.4-3.3-0.9"/>
	<path class="st0_video-call-2-87" d="M363.8,299.8c-1.2-0.1-2.3-0.4-3.4-1c-0.3-0.2-0.4-0.7-0.2-1c0.2-0.3,0.5-0.4,0.8-0.3c0.8,0.4,1.7,0.7,2.6,0.8&#10;&#9;&#9;c-0.4-2.1-1.1-4.1-2-6c-0.2-0.4,0-0.8,0.4-0.9s0.8,0,0.9,0.4c1,2.3,2.6,6.2,2,7.4c-0.2,0.3-0.5,0.5-0.8,0.5L363.8,299.8&#10;&#9;&#9;L363.8,299.8z"/>
	<path class="st0_video-call-2-87" d="M364.2,303.8c-1.8,0-3.6-0.5-5.2-1.2c-0.4-0.2-0.5-0.6-0.4-0.9c0.2-0.4,0.6-0.5,0.9-0.4l0,0&#10;&#9;&#9;c4.4,1.9,6.7,0.8,6.7,0.8c0.3-0.2,0.8,0,1,0.3c0.2,0.3,0,0.8-0.3,1l0,0C366.1,303.6,365.2,303.8,364.2,303.8L364.2,303.8z"/>
	<ellipse class="st0_video-call-2-87" cx="358.3" cy="291.1" rx="0.6" ry="1.5"/>
	<ellipse class="st0_video-call-2-87" cx="367" cy="291.1" rx="0.6" ry="1.5"/>
	<path class="st0_video-call-2-87" d="M371.9,314.2l-0.2,1.1l-2.9,18H356l-4-17.8l-0.3-1.3l0.6,0.2l1.8,0.5l1.4,0.4l7,2l0,0l0,0l6.2-2.1l0.9-0.3l0,0&#10;&#9;&#9;l0.4-0.1L371.9,314.2L371.9,314.2z"/>
	<path class="st0_video-call-2-87" d="M368.8,334H356c-0.3,0-0.6-0.2-0.7-0.5l-4.3-19.1c-0.1-0.4,0.1-0.8,0.5-0.8c0.1,0,0.2,0,0.4,0l10.7,3l6.9-2.3&#10;&#9;&#9;h0.1l2.1-0.7c0.2-0.1,0.5,0,0.7,0.1c0.2,0.2,0.3,0.4,0.2,0.6l-0.2,1.1l-2.9,18C369.5,333.8,369.2,334.1,368.8,334L368.8,334z&#10;&#9;&#9; M356.6,332.6h11.6l2.8-17.4l-1,0.4h-0.1l-7.1,2.4c-0.1,0.1-0.3,0.1-0.4,0l0,0l-9.7-2.8L356.6,332.6L356.6,332.6z"/>
	<path class="st2_video-call-2-87" d="M370.3,310.9c-0.2,0-7.9,6.4-7.9,6.4l4.7,5.5l4.7-8.6L370.3,310.9L370.3,310.9z"/>
	<path class="st0_video-call-2-87" d="M367.2,323.5c-0.2,0-0.4-0.1-0.5-0.2l-4.7-5.5c-0.1-0.1-0.2-0.3-0.2-0.5c0-0.2,0.1-0.4,0.2-0.5&#10;&#9;&#9;c7.8-6.6,8-6.6,8.3-6.6c0.3,0,0.5,0.2,0.6,0.4l1.6,3.3c0.1,0.2,0.1,0.4,0,0.6l-4.7,8.6C367.7,323.4,367.5,323.5,367.2,323.5&#10;&#9;&#9;L367.2,323.5L367.2,323.5z M363.5,317.4l3.6,4.2l4-7.4L370,312C368.7,313,365.6,315.6,363.5,317.4L363.5,317.4z"/>
	<path class="st2_video-call-2-87" d="M353.4,310.9c0.2,0,9.2,6.5,9.2,6.5l-5.4,5.5l-5.4-8.6L353.4,310.9L353.4,310.9z"/>
	<path class="st0_video-call-2-87" d="M357.1,323.5H357c-0.2,0-0.4-0.1-0.5-0.3l-5.4-8.6c-0.1-0.2-0.1-0.5,0-0.7l1.7-3.4c0.1-0.2,0.4-0.4,0.6-0.4&#10;&#9;&#9;c0.3,0,0.5,0,9.6,6.6c0.3,0.2,0.4,0.7,0.2,1c0,0,0,0.1-0.1,0.1l-5.4,5.5C357.5,323.4,357.3,323.5,357.1,323.5L357.1,323.5z&#10;&#9;&#9; M352.5,314.2l4.8,7.5l4.2-4.3c-2.7-2-6.4-4.6-7.8-5.6L352.5,314.2z"/>
	<path class="st3_video-call-2-87 targetColor" d="M398.5,333.3h-9c1.3-5,2.5-9,2.6-9.7c0,0,0-0.1,0-0.1c0,0,0.8-0.7,1.8,0.9&#10;&#9;&#9;C394.2,324.9,396.1,328.4,398.5,333.3z" style="fill: rgb(104, 225, 253);"/>
	<path class="st0_video-call-2-87" d="M416.4,334h-108c-0.4,0-0.7-0.3-0.7-0.7v0v-63.7c0-0.4,0.3-0.7,0.7-0.7h0h108c0.4,0,0.7,0.3,0.7,0.7v0v63.7&#10;&#9;&#9;C417.1,333.7,416.8,334,416.4,334z M309.1,332.6h106.6v-62.3H309.1L309.1,332.6z"/>
</g>
<g id="Character_2_video-call-2-87">
	<polygon class="st3_video-call-2-87 targetColor" points="101.9,333.3 98.4,333.3 100.3,328.8 &#9;" style="fill: rgb(104, 225, 253);"/>
	<polygon class="st3_video-call-2-87 targetColor" points="170.9,333.3 167.4,333.3 169,328.8 169,328.9 &#9;" style="fill: rgb(104, 225, 253);"/>
	<path class="st3_video-call-2-87 targetColor" d="M169,328.8L169,328.8l-0.9,4.5h-67.1c-0.6-2.5-0.9-4.2-0.7-4.5c0.8-1.4,23.4-10.2,23.4-10.2l1.3-0.1l2.3-0.1&#10;&#9;&#9;c4.6-0.3,12.4-0.7,16.4-0.5c0.7,0,1.4,0.1,2.1,0.3c0.4,0.1,0.7,0.3,1.1,0.4C151.7,320.6,168.3,328.5,169,328.8L169,328.8L169,328.8&#10;&#9;&#9;z" style="fill: rgb(104, 225, 253);"/>
	<rect x="127.3" y="318.5" class="st0_video-call-2-87" width="16.3" height="14.8"/>
	<path class="st0_video-call-2-87" d="M143.6,334h-16.3c-0.4,0-0.7-0.3-0.7-0.7l0,0v-14.7c0-0.4,0.3-0.7,0.7-0.7h0h16.3c0.4,0,0.7,0.3,0.7,0.7l0,0&#10;&#9;&#9;v14.8C144.3,333.7,144,334,143.6,334z M128,332.6h14.9v-13.4H128V332.6z"/>
	<path class="st2_video-call-2-87" d="M149.2,294.6c0.2-0.5,0.3-1,0.4-1.4c2.5-9.2-1.2-21.1-12.1-21.8c-5.1-0.2-9.8,2.5-12.2,7&#10;&#9;&#9;c-3.1,5.4-2.3,12.4-1.7,18.4c0,0.4,0.1,0.8,0.3,1.1c0.6,0.7,1.8,0.2,2.6,0.2c1.2,0,2.4,0.2,3.5,0.2c2,0.1,4,0.2,6.1,0.1&#10;&#9;&#9;c2.9,0.1,5.8,0,8.7-0.3c1.2-0.2,2.1-0.2,2.9-1.2C148.5,296.3,148.9,295.5,149.2,294.6L149.2,294.6z"/>
	<path class="st0_video-call-2-87" d="M140.7,299.1c-0.6,0-1.2,0-1.8,0c-0.9,0-1.7,0-2.5,0c-1.8,0-3.7,0-6.1-0.1c-0.5,0-0.9-0.1-1.4-0.1&#10;&#9;&#9;c-0.7-0.1-1.4-0.1-2.1-0.1c-0.2,0-0.4,0-0.6,0.1c-0.9,0.3-1.9,0.1-2.6-0.6c-0.3-0.4-0.5-1-0.5-1.5l-0.1-0.8&#10;&#9;&#9;c-0.6-5.9-1.2-12.6,1.8-18c2.5-4.7,7.5-7.5,12.8-7.3c4.1,0.2,7.9,2.3,10.2,5.6c3.1,4.4,4.1,11.1,2.5,17.1c-0.1,0.5-0.3,1-0.5,1.5&#10;&#9;&#9;c-0.3,0.9-0.8,1.8-1.4,2.5c-0.7,0.8-1.8,1.3-2.9,1.4l-0.4,0.1C143.7,299,142.2,299.1,140.7,299.1L140.7,299.1z M137.1,297.7&#10;&#9;&#9;c0.6,0,1.2,0,1.8,0c2,0.1,4,0,6-0.3l0.4-0.1c0.8,0,1.5-0.3,2-0.9c0.5-0.6,0.9-1.4,1.2-2.1l0,0c0.2-0.5,0.3-0.9,0.4-1.4&#10;&#9;&#9;c1.5-5.6,0.6-11.8-2.3-15.9c-2.1-3-5.5-4.9-9.1-5.1c-4.8-0.2-9.3,2.4-11.5,6.6c-2.9,5-2.2,11.4-1.7,17.1l0.1,0.8&#10;&#9;&#9;c0,0.3,0.1,0.5,0.2,0.7c0.2,0.2,0.7,0.2,1.3,0.1c0.3,0,0.5-0.1,0.8-0.1c0.8,0,1.5,0.1,2.2,0.1c0.4,0,0.9,0.1,1.3,0.1&#10;&#9;&#9;c2.3,0.1,4.2,0.2,6,0.1L137.1,297.7L137.1,297.7z"/>
	<path class="st2_video-call-2-87" d="M127.9,295.7c-0.6-4.6-8.1-6-7.9-0.6c0,1.9,0.6,3.7,1.8,5.1c1.2,1.4,3.2,2,5,1.4"/>
	<path class="st0_video-call-2-87" d="M125.4,302.6c-1.6,0-3.1-0.7-4.1-1.9c-1.3-1.6-2-3.5-2-5.6c-0.1-2.9,1.7-4.1,3.4-4.2c2.9-0.2,5.4,1.8,5.9,4.7&#10;&#9;&#9;c0,0.4-0.2,0.7-0.6,0.8c-0.4,0-0.7-0.2-0.8-0.6c-0.4-2.1-2.3-3.6-4.4-3.5c-0.8,0.1-2.2,0.5-2.2,2.8c0,1.7,0.6,3.4,1.7,4.7&#10;&#9;&#9;c1.1,1.2,2.7,1.7,4.3,1.2c0.4-0.1,0.8,0,0.9,0.4c0,0,0,0,0,0c0.1,0.4,0,0.8-0.4,0.9C126.6,302.5,126.1,302.6,125.4,302.6&#10;&#9;&#9;L125.4,302.6z"/>
	<path class="st2_video-call-2-87" d="M144.4,295.7c0.6-4.6,8.1-6,7.9-0.6c0,1.9-0.6,3.7-1.8,5.1c-1.2,1.4-3.2,2-5,1.4"/>
	<path class="st0_video-call-2-87" d="M146.8,302.6c-0.6,0-1.2-0.1-1.7-0.3c-0.3-0.2-0.5-0.6-0.3-0.9c0.2-0.3,0.5-0.4,0.8-0.3c1.5,0.5,3.2,0,4.3-1.2&#10;&#9;&#9;c1.1-1.3,1.7-3,1.7-4.7c0.1-2.2-1.3-2.7-2.1-2.8c-2.1-0.1-4,1.3-4.4,3.5c0,0.4-0.4,0.7-0.8,0.6c-0.4,0-0.7-0.4-0.6-0.8&#10;&#9;&#9;c0.5-2.8,3-4.9,5.9-4.7c1.7,0.1,3.5,1.3,3.4,4.2c0,2-0.7,4-2,5.6C149.9,301.9,148.4,302.6,146.8,302.6L146.8,302.6z"/>
	<path class="st2_video-call-2-87" d="M127.3,318.5c3,1.3,6.2,2,9.5,2c6,0.2,7-1.4,7-1.4l-0.1-3.2l-0.3-7.4l-0.3-7l-13.7-0.5l-0.6,5.6l-0.2,1.8&#10;&#9;&#9;L127.3,318.5L127.3,318.5z"/>
	<path class="st0_video-call-2-87" d="M137.8,321.3c-0.3,0-0.7,0-1.1,0c-3.4,0-6.7-0.7-9.8-2.1c-0.3-0.1-0.4-0.4-0.4-0.7l2-17.5&#10;&#9;&#9;c0-0.4,0.4-0.6,0.7-0.6l13.7,0.5c0.4,0,0.7,0.3,0.7,0.7l0.8,17.6c0,0.1,0,0.3-0.1,0.4C144.2,319.8,143,321.3,137.8,321.3&#10;&#9;&#9;L137.8,321.3z M128.1,318.1c2.8,1.1,5.7,1.7,8.7,1.7c4.3,0.2,5.8-0.7,6.2-1l-0.7-16.6l-12.3-0.4L128.1,318.1L128.1,318.1z"/>
	<path class="st0_video-call-2-87" d="M128.5,308.5c1.1,1.7,2.6,3.1,4.4,4.1c2.9,1.7,7.2,3.7,10.8,3.3l-0.3-7.4c-2.6,0.2-5.3,0.2-7.9-0.2&#10;&#9;&#9;c-2.3-0.2-4.6-0.7-6.8-1.5L128.5,308.5L128.5,308.5z"/>
	<path class="st0_video-call-2-87" d="M142.6,316.7c-3.8,0-7.9-2.1-10.1-3.5c-1.9-1-3.5-2.5-4.6-4.3c-0.1-0.1-0.1-0.3-0.1-0.4l0.2-1.8&#10;&#9;&#9;c0-0.2,0.2-0.4,0.3-0.5c0.2-0.1,0.4-0.1,0.6,0c2.1,0.8,4.3,1.3,6.5,1.5c2.6,0.4,5.1,0.5,7.7,0.2c0.2,0,0.4,0,0.5,0.2&#10;&#9;&#9;c0.1,0.1,0.2,0.3,0.2,0.5l0.3,7.4c0,0.4-0.3,0.7-0.6,0.7C143.4,316.7,143,316.7,142.6,316.7L142.6,316.7z M129.2,308.4&#10;&#9;&#9;c1,1.5,2.4,2.8,4,3.6c1.7,1,6,3.4,9.7,3.2l-0.3-6c-2.4,0.2-4.9,0.1-7.3-0.3c-2.1-0.2-4.1-0.6-6.1-1.2L129.2,308.4L129.2,308.4z"/>
	<path class="st2_video-call-2-87" d="M148.1,283.3l-0.6,16.6c0,0.7-0.1,1.4-0.3,2.1c-1.2,4.8-5.6,8.2-10.5,8l-1.2,0c-4.6-0.2-8.6-3.4-9.8-7.9&#10;&#9;&#9;c-0.2-1-0.4-2-0.3-3l0.6-16.6c0,0,2.6,3.4,10,3.3C140.1,285.9,144.3,285,148.1,283.3L148.1,283.3z"/>
	<path class="st0_video-call-2-87" d="M137.1,310.7h-0.4h-1.2c-5-0.2-9.2-3.6-10.4-8.4c-0.3-1-0.4-2.1-0.3-3.2l0.6-16.6c0-0.4,0.3-0.7,0.7-0.7&#10;&#9;&#9;c0.2,0,0.4,0.1,0.5,0.3c0,0,2.6,3.1,9.4,3.1c4.1,0,8.1-0.8,11.8-2.5c0.4-0.2,0.8,0,0.9,0.4c0,0.1,0.1,0.2,0.1,0.3l-0.6,16.6&#10;&#9;&#9;c0,0.8-0.1,1.5-0.3,2.2C146.7,307.2,142.2,310.7,137.1,310.7L137.1,310.7z M126.6,284.1l-0.5,15.1c-0.2,5.4,4,9.9,9.4,10.1&#10;&#9;&#9;c0,0,0,0,0,0l1.2,0c4.6,0.2,8.7-3,9.8-7.5c0.2-0.7,0.2-1.3,0.3-2l0.5-15.4c-3.6,1.4-7.5,2.2-11.4,2.2&#10;&#9;&#9;C131,286.6,128.1,285.2,126.6,284.1L126.6,284.1z"/>
	<path class="st2_video-call-2-87" d="M136.6,292.6c0,0,3.4,7.6,1.9,7.7c-1.3,0-2.5-0.4-3.7-1"/>
	<path class="st0_video-call-2-87" d="M138.2,301.1c-1.3-0.1-2.6-0.5-3.7-1.1c-0.3-0.2-0.5-0.6-0.3-0.9c0,0,0,0,0,0c0.2-0.3,0.6-0.5,0.9-0.3&#10;&#9;&#9;c0.9,0.5,2,0.8,3,0.9c0-0.9-0.9-3.8-2.2-6.8c-0.2-0.4,0-0.8,0.4-0.9s0.8,0,0.9,0.4c1.1,2.5,2.9,6.9,2.2,8.2&#10;&#9;&#9;c-0.2,0.3-0.5,0.5-0.8,0.5L138.2,301.1L138.2,301.1z"/>
	<path class="st0_video-call-2-87" d="M138.5,305.5c-2.3-0.1-4.6-0.7-6.6-1.9c-0.3-0.2-0.5-0.6-0.3-1c0.2-0.3,0.6-0.5,0.9-0.3l0,0&#10;&#9;&#9;c5.2,2.9,8.4,1.3,8.5,1.3c0.3-0.2,0.8,0,0.9,0.3s0,0.8-0.3,0.9C140.6,305.3,139.6,305.5,138.5,305.5L138.5,305.5z"/>
	<ellipse class="st0_video-call-2-87" cx="132.1" cy="291.5" rx="0.7" ry="1.6"/>
	<ellipse class="st0_video-call-2-87" cx="141.7" cy="291.5" rx="0.7" ry="1.6"/>
	<path class="st0_video-call-2-87" d="M191.6,334h-108c-0.4,0-0.7-0.3-0.7-0.7l0,0v-63.7c0-0.4,0.3-0.7,0.7-0.7h0h108c0.4,0,0.7,0.3,0.7,0.7l0,0&#10;&#9;&#9;v63.7C192.3,333.7,192,334,191.6,334z M84.3,332.6h106.6v-62.3H84.3V332.6z"/>
	<path class="st1_video-call-2-87" d="M165.4,273.2h19.5c0.9,0,1.6,0.7,1.6,1.6v1.2c0,0.9-0.7,1.6-1.6,1.6h-19.5c-0.9,0-1.6-0.7-1.6-1.6v-1.2&#10;&#9;&#9;C163.9,273.9,164.6,273.2,165.4,273.2z"/>
</g>
<g id="Character_1_video-call-2-87">
	<path class="st2_video-call-2-87" d="M340.4,242.5c1.1-2,2.8-3.2,3.6-5.3c0.9-2.9,1.2-5.9,0.8-8.9c-0.3-4.1-1.1-8.3-0.1-12.3c0.3-1.1,0.9-2.3,2-2.2&#10;&#9;&#9;c0.7,0.2,1.4,0.7,1.7,1.4c1.5,2.4,2.4,5,2.7,7.8c4.2-1.5,8.3-6.3,11.9-9.1c4.4-3.4,8.9-6.8,13.5-10.1c0.7-0.5,1.7-1,2.3-0.4&#10;&#9;&#9;c0.2,0.2,0.4,0.4,0.4,0.7c0.8,2.3-1.3,4.6-3.2,6.1c-3,2.4-6.1,4.7-9.3,6.8c2-1.3,5.2,8.4,5.3,9.5c0.4,4.6-1.5,7.3-4.3,10.6&#10;&#9;&#9;c-4.2,4.8-11.2,22.4-11.2,22.4c0.3-0.8-7.3-7.7-8-8.4L340.4,242.5L340.4,242.5z"/>
	<path class="st0_video-call-2-87" d="M356.6,260.2c-0.1,0-0.2,0-0.3,0c-0.3-0.1-0.4-0.4-0.4-0.6c-0.5-1-5.1-5.3-6.6-6.7l-1.2-1.2l-8.2-8.6&#10;&#9;&#9;c-0.2-0.2-0.3-0.5-0.1-0.8c0.5-0.9,1.1-1.7,1.8-2.4c0.8-0.8,1.4-1.8,1.9-2.8c1.1-2.8,1-6,0.8-8.6c-0.1-0.8-0.1-1.6-0.2-2.4&#10;&#9;&#9;c-0.4-3.3-0.7-6.8,0.1-10.1c0.4-1.4,1.2-2.9,2.8-2.7c1,0.2,1.8,0.8,2.2,1.7c1.3,2.2,2.3,4.6,2.7,7.2c2.5-1.1,4.9-3.4,7.3-5.6&#10;&#9;&#9;c1.2-1.1,2.4-2.2,3.6-3.1c4.4-3.4,9-6.8,13.5-10.1c1.6-1.2,2.6-0.9,3.2-0.4c0.3,0.3,0.5,0.6,0.7,1c0.7,2.1-0.4,4.5-3.4,6.9&#10;&#9;&#9;c-2.6,2.1-5.3,4.1-8.1,6c2.1,2,4.3,8.8,4.4,9.7c0.5,5-1.8,8-4.5,11.1c-4.1,4.7-11,22.1-11.1,22.2l0,0&#10;&#9;&#9;C357.2,260,356.9,260.2,356.6,260.2L356.6,260.2z M356,259.5L356,259.5z M341.3,242.4l7.8,8.2c0.1,0.1,0.6,0.6,1.2,1.1&#10;&#9;&#9;c3.5,3.3,5.3,5.1,6.2,6.2c1.7-4.2,7.2-17.2,10.8-21.3c2.6-3,4.6-5.6,4.1-10.1c-0.2-1.9-3.2-8.9-4.2-9l0,0c-0.3,0.2-0.8,0.1-1-0.2&#10;&#9;&#9;s-0.1-0.8,0.2-1l0,0l0,0c3.2-2.1,6.3-4.3,9.2-6.7c2.5-2,3.5-3.8,3-5.4c0-0.1-0.1-0.3-0.2-0.4c-0.2-0.2-0.8,0-1.5,0.5&#10;&#9;&#9;c-4.5,3.3-9.1,6.6-13.5,10c-1.1,0.9-2.2,1.9-3.5,3c-2.8,2.5-5.6,5.1-8.6,6.2c-0.2,0.1-0.4,0-0.6-0.1c-0.2-0.1-0.3-0.3-0.3-0.5&#10;&#9;&#9;c-0.3-2.7-1.2-5.2-2.6-7.5c-0.4-0.7-0.8-1-1.1-1c-0.6,0-1.1,0.8-1.3,1.7c-0.8,3.1-0.4,6.4-0.1,9.6c0.1,0.8,0.2,1.6,0.2,2.5&#10;&#9;&#9;c0.2,2.7,0.3,6.2-0.9,9.2c-0.5,1.2-1.2,2.2-2.1,3.2C342.2,241.1,341.8,241.7,341.3,242.4L341.3,242.4z"/>
	<path class="st0_video-call-2-87" d="M211.3,263.3c6.1-20.1,11.2-36.2,11.2-36.2l0,0c0.4,0.1,7.5,2.5,18.6,0.6c2.1-0.4,4.2-0.8,6.2-1.4l0.3-0.1&#10;&#9;&#9;c0,0,3.5,16.4,7.7,37.1L211.3,263.3L211.3,263.3z"/>
	<path class="st3_video-call-2-87 targetColor" d="M306.1,263.3h-59.4c0.5-19.8,0.8-35.4,0.8-35.4l-6.3-0.2l-18.6-0.6c0,0,0.1,13.4,0.1,36.2h-39.6&#10;&#9;&#9;c-3.2-11.3-5.7-19.7-3-22.8c5.5-6,33.1-14.5,33.1-14.5c3.1-0.7,6.2-1,9.3-1c7.7-0.2,17.9,0.2,24.9,0.6c4.6,0.2,7.8,0.4,7.8,0.4&#10;&#9;&#9;s22.6,0,27.4,8.2L306.1,263.3L306.1,263.3z" style="fill: rgb(104, 225, 253);"/>
	<path class="st3_video-call-2-87 targetColor" d="M360.6,255.1c0,0-1.2,3.2-3.1,8.1h-31.1l13.7-22.9l1.2,0.8l17.7,12.8L360.6,255.1L360.6,255.1z" style="fill: rgb(104, 225, 253);"/>
	<path class="st2_video-call-2-87" d="M192.7,193c-0.1,2.8,0.5,5.5,0.7,8.3s-0.2,5.8-2,7.9c-2.1,2.3-5.6,3-8.6,2.4s-5.8-2.3-8.5-3.9&#10;&#9;&#9;c-0.1,4.7,2.7,9.1,6.6,11.6c6.9,4.3,20.3,3.7,27.6,0.8c5.6-2.2,10.4-6.7,12.1-12.4c1.6-5.6,0.2-11.6-2.1-17&#10;&#9;&#9;c-2.5-5.9-7.3-11.4-14.3-11.3C198,179.4,193,187.4,192.7,193z"/>
	<path class="st0_video-call-2-87" d="M194.8,223c-5.4,0-10.8-1-14.3-3.2c-4.3-2.6-6.9-7.2-6.9-12.2c0-0.3,0.1-0.5,0.4-0.6c0.2-0.1,0.5-0.1,0.7,0&#10;&#9;&#9;c2.4,1.5,5.2,3.2,8.2,3.8c2.5,0.5,5.9,0.2,8-2.1c1.4-1.6,2.1-4.1,1.9-7.3c-0.1-1-0.2-2-0.3-3c-0.3-1.7-0.4-3.5-0.4-5.3l0,0&#10;&#9;&#9;c0.3-5.6,5.4-14.2,12.2-14.3c6.4-0.1,11.7,4.2,14.9,11.7c2.8,6.7,3.5,12.5,2.1,17.4c-1.7,5.7-6.4,10.5-12.6,12.9&#10;&#9;&#9;C204.2,222.3,199.5,223.1,194.8,223L194.8,223z M175,208.8c0.5,4,2.8,7.6,6.3,9.8c6.3,4,19.4,3.7,27,0.8c5.8-2.2,10.2-6.7,11.7-12&#10;&#9;&#9;c1.3-4.6,0.7-10.1-2-16.5c-1.4-3.3-5.5-10.9-13.5-10.9h-0.1c-5.9,0.1-10.6,7.8-10.9,13c0,1.7,0.1,3.4,0.3,5.1&#10;&#9;&#9;c0.1,1,0.3,2.1,0.3,3.1c0.2,3.6-0.5,6.4-2.2,8.4c-2.4,2.8-6.4,3.2-9.3,2.6C180,211.5,177.4,210.4,175,208.8L175,208.8z"/>
	<path class="st0_video-call-2-87" d="M203.1,189.1c-2.4-1-4.2-3-5-5.5c-0.8-2.5-0.2-5.2,1.4-7.2c0.5-0.6,1.1-1.1,1.9-1.4c0.7-0.3,1.5-0.4,2.3-0.3&#10;&#9;&#9;c3.5,0.2,6.6,2.6,7.6,6C212.9,186.1,208.8,191.7,203.1,189.1z"/>
	<path class="st0_video-call-2-87" d="M205.9,190.4c-1.1,0-2.2-0.3-3.1-0.7l0,0c-2.5-1.1-4.5-3.3-5.4-5.9c-0.8-2.7-0.3-5.7,1.6-7.9&#10;&#9;&#9;c0.6-0.7,1.3-1.2,2.1-1.6c0.8-0.3,1.7-0.4,2.6-0.4c3.8,0.3,7.1,2.8,8.3,6.4c1,3,0.2,6.3-2.1,8.6&#10;&#9;&#9;C208.8,189.9,207.4,190.5,205.9,190.4L205.9,190.4z M203.4,188.4c1.8,1,4,0.8,5.6-0.5c1.9-1.9,2.5-4.6,1.6-7.1&#10;&#9;&#9;c-1-3.1-3.8-5.2-7-5.5c-0.7,0-1.4,0-2,0.3c-0.6,0.3-1.2,0.7-1.6,1.2c-1.5,1.8-2,4.3-1.3,6.5C199.5,185.6,201.1,187.5,203.4,188.4&#10;&#9;&#9;L203.4,188.4z"/>
	<path class="st2_video-call-2-87" d="M221.6,141.6l-0.1,0.1c-0.8,0.5-3.5,3.7-4.2,3.8c-28.4,0.8-17,40.6-2.6,51.9c5.7,4.5,15.8,8.3,23,6.5&#10;&#9;&#9;c5.4-1.3,10.3-5.8,10.5-11.3c5.6-0.4,11.6-1.1,15.8-4.9c2.4-2.4,4.1-5.4,5-8.7c2.5-8,1.7-16.6-2.1-24c-6.9-12.7-25-20.5-38.9-16.5&#10;&#9;&#9;C225.7,139.2,223.5,140.3,221.6,141.6L221.6,141.6z"/>
	<path class="st0_video-call-2-87" d="M233.8,205c-6.8,0-14.7-3.3-19.6-7.1c-9.9-7.7-18.4-28.5-14-41.6c1.7-5.1,6-11.2,17.1-11.5&#10;&#9;&#9;c0.8-0.7,1.5-1.4,2.2-2.1c0.5-0.5,1-1,1.6-1.5l0.1-0.1c2-1.4,4.2-2.5,6.6-3.2c14.1-4.1,32.7,3.8,39.7,16.8&#10;&#9;&#9;c3.9,7.6,4.7,16.4,2.2,24.5c-0.9,3.4-2.7,6.5-5.2,9c-4.3,3.9-10.7,4.6-15.6,5c-0.6,5.9-5.9,10.1-11,11.3c-1.3,0.3-2.7,0.4-4,0.4&#10;&#9;&#9;H233.8z M235.8,138.1c-2.6,0-5.2,0.3-7.7,1.1c-2.2,0.7-4.3,1.7-6.2,3l0,0l-0.1,0.1c-0.5,0.4-1,0.9-1.4,1.4&#10;&#9;&#9;c-1.9,1.9-2.6,2.5-3.2,2.5c-8.3,0.2-13.6,3.8-15.8,10.5c-4.1,12.6,4,32.6,13.6,40.1c5.6,4.4,15.4,8.1,22.4,6.4&#10;&#9;&#9;c4.8-1.1,9.8-5.2,10-10.7c0-0.4,0.3-0.6,0.6-0.7c5.9-0.5,11.5-1.2,15.4-4.7c2.3-2.3,4-5.2,4.8-8.4c2.4-7.8,1.7-16.2-2-23.5&#10;&#9;&#9;C260.6,145.1,247.7,138.1,235.8,138.1L235.8,138.1z M221.5,141.6L221.5,141.6z"/>
	<path class="st2_video-call-2-87" d="M253.3,185.1c1.5-8.6,15.7-10.5,14.9-0.4c-0.1,3.5-1.5,6.9-3.9,9.4c-2.5,2.4-6.4,3.6-9.6,2.1"/>
	<path class="st0_video-call-2-87" d="M257.8,197.6c-1.2,0-2.3-0.2-3.3-0.7c-0.4-0.2-0.5-0.6-0.3-0.9c0,0,0,0,0,0c0.2-0.3,0.6-0.5,0.9-0.3&#10;&#9;&#9;c0,0,0,0,0,0c2.7,1.3,6.3,0.4,8.8-2c2.7-2.6,3.5-6.4,3.7-9c0.3-3.4-1.3-5.6-4.3-6c-3.7-0.5-8.4,2.1-9.2,6.6&#10;&#9;&#9;c-0.1,0.4-0.4,0.6-0.8,0.6c-0.4-0.1-0.6-0.4-0.6-0.8c0.9-5.3,6.3-8.3,10.7-7.7c3,0.4,6,2.5,5.5,7.5c-0.2,2.9-1.1,6.9-4.1,9.9&#10;&#9;&#9;C262.9,196.5,260.4,197.6,257.8,197.6z"/>
	<path class="st2_video-call-2-87" d="M217.8,184.7c-1.3-8.6-15.5-10.9-14.9-0.7c0.1,3.5,1.4,6.9,3.7,9.5c2.4,2.5,6.3,3.7,9.5,2.3"/>
	<path class="st0_video-call-2-87" d="M213.3,197.1c-2.7,0-5.3-1.2-7.1-3.1c-2.9-3-3.7-7.1-3.9-10c-0.3-5,2.8-7.1,5.7-7.4c4.5-0.5,9.8,2.6,10.6,8&#10;&#9;&#9;c0.1,0.4-0.2,0.7-0.6,0.8c0,0,0,0,0,0c-0.4,0.1-0.7-0.2-0.8-0.6c-0.7-4.5-5.3-7.2-9-6.8c-3,0.3-4.7,2.5-4.5,5.9&#10;&#9;&#9;c0.2,2.6,0.9,6.4,3.5,9.1c2.4,2.5,6,3.4,8.7,2.2c0.4-0.1,0.8,0.1,0.9,0.4c0.1,0.3,0,0.7-0.3,0.9&#10;&#9;&#9;C215.5,196.9,214.4,197.1,213.3,197.1L213.3,197.1z"/>
	<path class="st2_video-call-2-87" d="M222.5,227.1c0,0,7.9,7.4,13.4,7.3s11.6-6.5,11.6-6.5l-0.4-6l-0.8-13.9l-0.8-13l-22.3-0.2l-0.9,10.6l-0.3,3.4&#10;&#9;&#9;L222.5,227.1L222.5,227.1z"/>
	<path class="st0_video-call-2-87" d="M235.8,235c-5.7,0-13.4-7.1-13.7-7.4c-0.1-0.1-0.2-0.3-0.2-0.5l-0.4-18.3l1.1-14.2c0-0.4,0.3-0.6,0.7-0.6l0,0&#10;&#9;&#9;l22.3,0.2c0.4,0,0.7,0.3,0.7,0.7l1.9,33c0,0.2-0.1,0.4-0.2,0.5c-0.3,0.3-6.4,6.5-12.1,6.7L235.8,235L235.8,235z M223.2,226.7&#10;&#9;&#9;c1.3,1.1,7.9,6.9,12.5,6.9h0.1c4.6-0.1,9.8-5,10.9-6l-1.9-32l-21-0.2l-1.1,13.4L223.2,226.7L223.2,226.7z"/>
	<path class="st0_video-call-2-87" d="M222.1,208.8c1.8,3.1,4.3,5.6,7.3,7.5c4.8,3.1,11.9,6.6,17.8,5.7l-0.8-13.9c-4.3,0.6-8.6,0.6-12.9,0&#10;&#9;&#9;c-3.8-0.4-7.6-0.9-11.1-2.6L222.1,208.8L222.1,208.8z"/>
	<path class="st0_video-call-2-87" d="M245.1,222.7c-6,0-12.5-3.6-16.1-5.9c-3.1-1.9-5.7-4.6-7.5-7.7c-0.1-0.1-0.1-0.2-0.1-0.4l0.3-3.4&#10;&#9;&#9;c0-0.2,0.2-0.4,0.4-0.6c0.2-0.1,0.5-0.1,0.7,0c3.4,1.7,7.4,2.1,10.9,2.5c4.2,0.6,8.5,0.6,12.7,0c0.2,0,0.4,0,0.6,0.1&#10;&#9;&#9;c0.2,0.1,0.2,0.3,0.3,0.5l0.8,13.9c0,0.4-0.2,0.7-0.6,0.7C246.5,222.6,245.8,222.7,245.1,222.7L245.1,222.7z M222.8,208.6&#10;&#9;&#9;c1.7,2.9,4.1,5.3,6.9,7c3,1.9,10.5,6.3,16.7,5.6l-0.7-12.5c-4.1,0.5-8.2,0.4-12.3-0.1c-3.5-0.2-7-1-10.4-2.2L222.8,208.6&#10;&#9;&#9;L222.8,208.6z"/>
	<path class="st2_video-call-2-87" d="M233.5,211.1h2.3c10.8,0.1,19.7-8.6,19.9-19.4c0,0,0,0,0,0l0.2-18.6c0,0-11-2.7-18.1-5.4&#10;&#9;&#9;c-11.9-4.5-15.2-11-15.2-11c-0.4,4.3-1.3,8.5-2.8,12.6c-1.3,3.1-5.3,8.2-5.3,8.2s-0.4,9.7-0.4,13.7&#10;&#9;&#9;C213.9,202,222.6,210.9,233.5,211.1C233.5,211,233.5,211,233.5,211.1L233.5,211.1z"/>
	<path class="st0_video-call-2-87" d="M236,211.8h-0.2h-2.3c-11.2-0.1-20.2-9.3-20.1-20.6c0-4,0.4-13.6,0.4-13.8c0-0.1,0.1-0.3,0.1-0.4&#10;&#9;&#9;c0-0.1,4-5.2,5.2-8c1.5-4,2.4-8.1,2.8-12.3c0-0.4,0.4-0.7,0.7-0.6c0.2,0,0.5,0.2,0.6,0.4c0,0.1,3.3,6.3,14.8,10.6&#10;&#9;&#9;c7,2.6,17.9,5.3,18,5.3c0.3,0.1,0.5,0.4,0.5,0.7l-0.2,18.6C256.2,202.9,247.1,211.8,236,211.8L236,211.8z M215.1,177.7&#10;&#9;&#9;c0,1.5-0.4,9.8-0.4,13.5c-0.1,10.5,8.3,19,18.7,19.1c0,0,0,0,0,0l0,0h2.3h0.2c10.4,0,18.8-8.4,18.9-18.7l0.2-18&#10;&#9;&#9;c-2.3-0.6-11.5-2.9-17.6-5.2c-8.5-3.2-12.6-7.3-14.4-9.6c-0.5,3.7-1.4,7.3-2.7,10.8C219.3,172.3,215.9,176.8,215.1,177.7&#10;&#9;&#9;L215.1,177.7z"/>
	<path class="st0_video-call-2-87" d="M235.1,197.2c-1.1,0-2.2-0.1-3.3-0.2c-0.4-0.1-0.7-0.4-0.6-0.8c0,0,0,0,0,0c0-0.4,0.4-0.6,0.8-0.6c0,0,0,0,0,0&#10;&#9;&#9;c1.8,0.2,3.7,0.2,5.5,0.1c0.9-0.6-0.6-7-3.1-13.8c-0.2-0.4,0-0.8,0.4-0.9c0.4-0.2,0.8,0,0.9,0.4c0,0,0,0,0,0.1&#10;&#9;&#9;c0.8,2.1,4.5,12.5,3,14.9c-0.2,0.4-0.6,0.7-1.1,0.7C236.8,197.2,236,197.2,235.1,197.2L235.1,197.2z"/>
	
		<ellipse transform="matrix(1.099531e-02 -0.9999 0.9999 1.099531e-02 44.1862 403.0423)" class="st0_video-call-2-87" cx="225.8" cy="179.2" rx="3.3" ry="1.4"/>
	
		<ellipse transform="matrix(1.099531e-02 -0.9999 0.9999 1.099531e-02 62.2997 420.5292)" class="st0_video-call-2-87" cx="243.7" cy="178.8" rx="3.3" ry="1.4"/>
	<path class="st0_video-call-2-87" d="M235.1,201.8c-0.4,0-0.9,0-1.3-0.1c-7.2-0.6-11.6-6.5-11.8-6.8c-0.2-0.3-0.2-0.8,0.1-1c0.3-0.2,0.8-0.2,1,0.2&#10;&#9;&#9;l0,0c0,0.1,4.2,5.6,10.8,6.2c4.5,0.4,9.2-1.6,13.8-6c0.3-0.3,0.7-0.3,1,0c0.3,0.3,0.3,0.7,0,1c0,0,0,0,0,0&#10;&#9;&#9;C244.3,199.7,239.7,201.8,235.1,201.8L235.1,201.8z"/>
	<path class="st2_video-call-2-87" d="M219.4,150.9c2.9,7.6,6.8,15.3,13.4,20.2c3.4,2.3,7,4.2,10.9,5.5c5.8,2.2,11.4,2.5,16.2,6.5&#10;&#9;&#9;c4.6,3.8,7.9,8.9,9.4,14.7c3.5-9.2,2.6-19.5-2.3-28c-4.6-7.8-12.2-13.2-19.7-18.3c-4.1-2.8-8.6-5.6-13.5-5.5"/>
	<path class="st0_video-call-2-87" d="M269.3,198.5L269.3,198.5c-0.3,0-0.6-0.2-0.6-0.5c-1.5-5.6-4.7-10.6-9.2-14.3c-3.2-2.6-6.7-3.6-10.4-4.6&#10;&#9;&#9;c-1.8-0.5-3.7-1-5.6-1.8c-3.9-1.4-7.6-3.3-11-5.6c-7.1-5.3-11-13.7-13.6-20.5c-0.1-0.4,0-0.8,0.4-0.9c0.4-0.1,0.8,0,0.9,0.4&#10;&#9;&#9;c2.5,6.6,6.3,14.8,13.1,19.9c3.3,2.3,6.9,4.1,10.6,5.5c1.8,0.7,3.6,1.2,5.5,1.7c3.9,1.1,7.5,2.1,10.9,4.9c4.1,3.4,7.2,7.9,9,12.9&#10;&#9;&#9;c2.5-8.5,1.4-17.6-3-25.3c-4.5-7.6-12.1-13.1-19.5-18.1c-4.3-2.9-8.4-5.4-13.1-5.3c-0.4,0-0.7-0.2-0.7-0.6c0,0,0-0.1,0-0.1&#10;&#9;&#9;c0-0.4,0.3-0.7,0.7-0.7c0,0,0,0,0,0c5-0.1,9.4,2.6,13.9,5.6c7.5,5.1,15.3,10.6,19.9,18.5c5,8.7,5.9,19.1,2.5,28.6&#10;&#9;&#9;C269.9,198.3,269.6,198.5,269.3,198.5L269.3,198.5z"/>
	<path class="st3_video-call-2-87 targetColor" d="M188.2,263.3h-35.8c14.1-12.2,27.7-22.8,27.7-22.8L188.2,263.3z" style="fill: rgb(104, 225, 253);"/>
	<path class="st0_video-call-2-87" d="M281.5,264c0,0-0.1,0-0.1,0c-0.4-0.1-0.6-0.5-0.5-0.8c0,0,0,0,0,0c0.7-3.3,1.4-6,2.1-8.2&#10;&#9;&#9;c0.1-0.4,0.5-0.6,0.8-0.5s0.6,0.5,0.5,0.8c0,0,0,0,0,0.1c-0.6,2.1-1.3,4.8-2,8.1C282.1,263.8,281.8,264,281.5,264z"/>
	<path class="st2_video-call-2-87" d="M351.8,222.1c0,0,7.5,1.9,5.3,11.7"/>
	<path class="st0_video-call-2-87" d="M357.1,234.5c0,0-0.1,0-0.1,0c-0.4-0.1-0.6-0.4-0.5-0.8c0,0,0,0,0,0c2-9-4.5-10.8-4.8-10.9&#10;&#9;&#9;c-0.4-0.1-0.6-0.5-0.5-0.8c0.1-0.4,0.5-0.6,0.9-0.5c0.1,0,8.1,2.2,5.8,12.5C357.7,234.3,357.4,234.5,357.1,234.5L357.1,234.5z"/>
	<path class="st0_video-call-2-87" d="M416.4,264H83.6c-0.4,0-0.7-0.3-0.7-0.7l0,0V129.8c0-0.4,0.3-0.7,0.7-0.7h332.8c0.4,0,0.7,0.3,0.7,0.7&#10;&#9;&#9;c0,0,0,0,0,0v133.5C417.1,263.7,416.8,264,416.4,264C416.4,264,416.4,264,416.4,264z M84.3,262.6h331.4V130.5H84.3L84.3,262.6z"/>
	<path class="st1_video-call-2-87" d="M343.4,140.3h57c1.6,0,3,1.3,3,3v2.4c0,1.6-1.3,3-3,3h-57c-1.6,0-3-1.3-3-3v-2.4&#10;&#9;&#9;C340.4,141.6,341.8,140.3,343.4,140.3z"/>
</g>
</svg>